<?xml version="1.0" encoding="UTF-8" standalone="no"?>
<svg
   xmlns:dc="http://purl.org/dc/elements/1.1/"
   xmlns:cc="http://creativecommons.org/ns#"
   xmlns:rdf="http://www.w3.org/1999/02/22-rdf-syntax-ns#"
   xmlns:svg="http://www.w3.org/2000/svg"
   xmlns="http://www.w3.org/2000/svg"
   xmlns:sodipodi="http://sodipodi.sourceforge.net/DTD/sodipodi-0.dtd"
   xmlns:inkscape="http://www.inkscape.org/namespaces/inkscape"
   sodipodi:docname="contact.svg"
   inkscape:version="1.0 (4035a4fb49, 2020-05-01)"
   id="svg8"
   version="1.1"
   viewBox="0 0 600 300"
   height="300mm"
   width="600mm">
  <defs
     id="defs2">
    <rect
       id="rect136"
       height="222.20388"
       width="166.85928"
       y="32.505952"
       x="23.434524" />
  </defs>
  <sodipodi:namedview
     inkscape:window-maximized="1"
     inkscape:window-y="-8"
     inkscape:window-x="-8"
     inkscape:window-height="1017"
     inkscape:window-width="1920"
     showgrid="false"
     inkscape:document-rotation="0"
     inkscape:current-layer="layer1"
     inkscape:document-units="mm"
     inkscape:cy="560"
     inkscape:cx="400"
     inkscape:zoom="0.35"
     inkscape:pageshadow="2"
     inkscape:pageopacity="0.0"
     borderopacity="1.0"
     bordercolor="#666666"
     pagecolor="#ffffff"
     id="base" />
  <metadata
     id="metadata5">
    <rdf:RDF>
      <cc:Work
         rdf:about="">
        <dc:format>image/svg+xml</dc:format>
        <dc:type
           rdf:resource="http://purl.org/dc/dcmitype/StillImage" />
        <dc:title></dc:title>
      </cc:Work>
    </rdf:RDF>
  </metadata>
  <g
     id="layer1"
     inkscape:groupmode="layer"
     inkscape:label="Layer 1">
    <path
       d="m 110.2612,149.87905 c 0.26691,0.65283 0.59523,1.2838 0.80071,1.95847 0.90533,2.97255 0.46303,2.92375 1.05271,6.26451 0.38191,2.16367 0.94887,4.29194 1.33074,6.45561 0.67385,3.81808 1.85703,12.63978 2.37022,16.34561 1.08169,12.76354 0.22497,4.14618 1.79633,16.77329 0.30878,2.48126 0.53469,4.97301 0.88234,7.44912 0.74594,5.31272 1.71263,10.62567 2.6762,15.90413 2.84303,12.33819 1.48165,9.59907 25.87643,20.68898 1.90897,0.8678 3.52984,-2.34559 4.9332,-3.90376 3.01763,-3.35053 9.19481,-14.24227 10.97694,-17.22706 3.4202,-5.33142 -18.12198,-19.15114 -21.54219,-13.81972 v 0 c -2.57246,2.87726 -5.04456,5.8475 -7.71738,8.63178 -1.53431,1.5983 -3.02083,3.31237 -4.89018,4.50157 -0.35611,0.22654 -1.37316,-0.98209 -1.03126,-0.73464 22.40676,16.21707 26.27806,23.07525 19.87594,12.93659 -0.59083,-1.40518 -1.34624,-2.75201 -1.77248,-4.21554 -0.50137,-1.72145 -1.70361,-10.14222 -1.90633,-11.43064 -1.28205,-8.1482 -2.95618,-16.24334 -3.58835,-24.48125 -0.23615,-2.7639 -0.50036,-5.52554 -0.70847,-8.29169 -0.17577,-2.33635 -0.66237,-10.8984 -0.90218,-13.62818 -0.1148,-1.30673 -0.32729,-2.60329 -0.45925,-3.90839 -0.0866,-0.85614 -0.0955,-1.71946 -0.19623,-2.57405 -0.0719,-0.60987 -0.21411,-1.20938 -0.32116,-1.81407 2.94031,-6.81489 -24.59599,-18.69555 -27.5363,-11.88067 z"
       id="path72"
       style="fill:#ececec;fill-opacity:1;fill-rule:nonzero;stroke:none;stroke-width:0.264583" />
    <path
       d="m 165.66097,152.30645 c 5.01622,13.05374 6.58831,27.09732 8.27767,40.88506 1.31201,6.96804 2.43985,13.97506 3.05782,21.04202 0.14807,1.69328 0.0765,3.40809 0.33355,5.08828 0.23589,1.542 0.79715,3.01706 1.13919,4.53903 0.25969,1.15557 0.4435,2.32689 0.66526,3.49033 -0.8047,12.75426 3.01777,8.02447 27.40938,15.49458 1.14772,0.3515 -0.29498,-2.38317 -0.39286,-3.5795 -0.43657,-5.33585 -0.42109,-7.82642 -0.59256,-13.54801 0.74482,-11.95862 0.28108,-7.19428 1.72977,-19.35023 0.36917,-3.0977 0.70184,-6.20056 1.1442,-9.28866 0.0892,-0.62293 2.08606,-12.99706 2.6156,-14.36616 0.58523,-1.51307 1.82809,-2.68058 2.74213,-4.02087 0.86176,-0.90749 1.591,-1.96248 2.58527,-2.72248 1.00219,-0.76605 2.18729,-1.26341 3.32954,-1.79865 2.57817,-1.20811 3.50851,-1.57533 6.30988,-1.52796 0.80247,0.0136 1.6285,0.0718 2.38272,0.34617 0.68668,0.24979 1.22722,0.79348 1.84084,1.19021 7.32505,7.76925 1.89314,1.78246 -21.48626,-12.72044 -0.44792,-0.27786 0.94981,0.47038 1.37258,0.78518 0.23417,0.17436 0.38486,0.43919 0.57233,0.66301 1.23409,1.47337 0.81582,0.73163 1.39447,2.4433 1.56889,6.977 2.09391,14.17755 2.94918,21.26583 0.42804,3.54743 1.04973,7.07403 1.34042,10.63535 0.28051,3.43655 0.24763,6.8915 0.37145,10.33725 1.20114,11.95239 1.0892,6.3493 0.66366,16.79952 -2.84009,6.13624 21.95407,17.6119 24.79416,11.47566 v 0 c -0.75908,-10.81184 -0.3001,-5.09547 -1.41952,-17.14564 -0.38905,-5.06564 -1.25825,-15.78644 -1.46974,-20.89723 -0.12129,-2.93111 -0.16393,-5.86642 -0.13225,-8.79987 0.0158,-1.46261 0.45887,-7.34734 0.30856,-9.66858 -0.0602,-0.93013 -0.2697,-1.84455 -0.40455,-2.76683 0.0403,-0.62527 0.18546,-1.25256 0.12106,-1.87581 -0.0909,-0.88021 -1.20744,-4.71629 -1.93794,-5.21202 -22.99412,-15.60405 -15.76658,-13.22273 -27.57108,-16.6889 -1.97899,0.15457 -3.77963,0.20333 -5.71553,0.774 -3.47418,1.02413 -8.81177,3.8367 -11.31589,6.34382 -1.34569,1.34732 -2.28437,3.04732 -3.42657,4.57099 -0.70928,1.76217 -1.616,3.45721 -2.12785,5.2865 -0.62949,2.24973 -0.83198,4.59776 -1.27941,6.89065 -0.52338,2.68209 -1.22813,5.33123 -1.63291,8.03376 -1.43668,9.59205 -0.97967,19.40297 -3.51629,28.8359 -0.2452,8.32729 0.04,6.22719 -0.81504,13.08916 -0.0908,0.72912 -0.9617,1.81004 -0.32683,2.1799 8.78399,5.11735 18.14012,9.18744 27.32346,13.54772 1.18664,0.56341 -6.05234,-4.8413 -1.58883,-3.60631 -0.39926,-2.74284 -0.67597,-5.12212 -1.41335,-7.84062 -0.5169,-1.90568 -1.40998,-3.70645 -1.81246,-5.63953 -0.41444,-1.99056 -0.39842,-4.04705 -0.625,-6.06763 -0.99103,-8.83812 -0.54111,-5.54119 -2.53033,-14.91485 -0.40173,-2.79728 -0.78035,-5.59798 -1.20519,-8.39185 -0.44562,-2.9305 -1.03577,-5.83972 -1.4061,-8.78068 -0.34812,-2.76457 -0.40009,-5.56107 -0.74796,-8.32568 -0.63109,-5.01553 -1.85797,-9.9689 -2.2088,-15.02837 2.83616,-6.84873 -24.83689,-18.30855 -27.67305,-11.45982 z"
       id="path74"
       style="fill:#ececec;fill-opacity:1;fill-rule:nonzero;stroke:none;stroke-width:0.264583" />
    <path
       d="m 303.90334,177.60146 c -8.72001,-10.78873 -19.35794,-19.05926 -32.18643,-24.82173 -1.72207,-0.77356 -2.84863,2.5496 -4.27295,3.8244 -1.51927,3.73528 -3.12037,7.31488 -4.08195,11.27951 -0.8191,3.3772 -1.91795,12.14979 -2.59322,15.4324 -3.10561,15.0969 -1.20827,0.27003 -2.81234,16.4042 -3.18384,22.93994 0.66054,-6.11114 -1.48497,14.14115 -0.17168,1.62051 -0.64686,3.19871 -0.7745,4.82367 -0.2421,3.08197 0.29402,6.28018 0.78279,9.30738 8.7483,5.29149 16.95659,11.7121 26.24492,15.87446 1.16963,0.52415 1.65164,-2.03057 2.55512,-2.96834 0.86235,-0.89506 1.86971,-1.6276 2.7336,-2.52103 3.2076,-3.31721 5.92437,-7.27447 8.77853,-10.91135 3.28806,-5.52208 3.50798,-5.60167 6.3618,-11.65323 1.11311,-2.36038 2.30561,-4.69315 3.17858,-7.16176 1.03775,-2.93461 1.58932,-6.03643 2.53799,-9.0039 6.29732,-19.69809 0.62846,1.34011 5.98704,-19.84974 0.46966,-4.286 0.85857,-8.58253 1.40899,-12.85797 1.76818,-13.73498 2.28663,-11.8531 2.98524,-25.66596 0.20288,-4.0113 0.0835,-8.03357 0.17319,-12.04941 0.4073,-18.24473 0.35354,-2.77471 0.29877,-19.43955 -1.4483,-4.80462 0.5806,-9.50634 0.44201,-14.259949 -0.0562,-1.92959 -0.77853,-3.78336 -0.94959,-5.70554 -0.14705,-1.65225 0.20778,-5.89946 0.19712,-7.70464 -0.006,-1.04911 -0.11285,-2.09493 -0.16928,-3.14238 0.25148,-1.65969 -0.23463,-3.29327 -0.21196,-4.94214 0.008,-0.57321 0.26667,-1.1315 0.22725,-1.70328 -0.037,-0.5368 -0.36893,-1.01269 -0.45119,-1.54395 -0.0335,-0.21644 0.0746,-0.43152 0.11192,-0.64727 -9.05746,-4.00885 -18.11491,-8.01771 -27.17237,-12.02657 0.14203,1.17197 0.19558,2.35946 0.42614,3.51591 0.38719,1.9421 1.09204,3.8089 1.42367,5.76224 0.40783,2.40229 0.53597,4.84754 0.7893,7.27303 0.31356,3.00164 0.63593,6.00247 0.91136,9.0082 0.31896,3.4807 0.45358,6.98111 0.87175,10.45028 0.49062,4.07016 1.23529,8.102319 1.8529,12.153469 3.17672,37.32994 -1.67235,-15.991899 3.60561,28.48547 0.65228,5.49677 0.75573,11.05195 1.31517,16.55991 0.58266,5.73655 1.41155,11.44275 2.11021,17.16508 2.47163,20.24345 1.51865,11.9498 3.56444,31.35066 0.51575,4.34103 1.03153,8.68205 1.54731,13.02306 0.63077,3.60907 1.43272,7.1899 1.89235,10.82718 0.32697,2.58733 0.30893,5.20973 0.46339,7.81458 -2.70557,6.43462 22.13023,17.87918 24.83581,11.44456 v 0 c -0.41387,-2.73107 -0.73518,-5.47928 -1.24159,-8.19321 -5.37014,-28.77929 0.75219,8.71156 -4.40007,-24.14283 -2.21099,-14.65375 -2.5916,-16.64011 -4.51588,-31.66165 -0.72965,-5.69555 -1.52112,-11.38493 -2.07775,-17.10185 -0.64365,-6.61108 -1.66658,-24.65298 -2.18683,-31.59803 -0.31462,-4.19987 -0.72025,-8.39173 -1.08038,-12.5876 -0.29728,-3.89404 -0.57142,-7.79012 -0.89188,-11.68215 -0.28787,-3.49595 -0.70737,-6.980369 -0.93303,-10.481319 -0.85294,-13.23214 0.1827,-4.17059 -0.59759,-15.86279 -0.11652,-1.74623 -0.43267,-3.47444 -0.5321,-5.22182 -0.0568,-0.99754 0.0429,-1.9981 0.0644,-2.99715 -9.0769,-4.80076 -18.15383,-9.60151 -27.23073,-14.40228 0.0736,0.227 0.18301,0.44457 0.22069,0.68101 0.0602,0.3775 0.22238,3.23384 0.23484,3.3367 1.20626,9.9733 -0.40611,-5.85832 0.68228,5.26482 0.0326,1.03929 0.0236,2.08093 0.0977,3.11788 0.18351,2.56399 0.6618,5.5261 0.94157,8.05216 0.74798,6.75324 1.33199,13.53525 1.58734,20.32949 0.70168,11.772419 0.58283,7.001099 0.5991,19.516629 0.005,3.95563 0.11374,7.91395 -0.0262,11.86688 -0.44603,12.60553 -2.1699,25.10376 -4.35036,37.49363 -0.96721,3.2908 -1.85988,6.60663 -2.9016,9.87239 -3.88839,12.18989 -8.6494,24.14369 -15.92734,34.57858 -1.04108,1.33057 -1.99809,2.73839 -3.12325,3.99171 -0.97732,1.08865 -2.14258,1.97572 -3.16737,3.01545 -0.81705,0.82897 -1.53445,1.76155 -2.35466,2.5871 -0.59416,0.59802 -1.11553,1.36284 -1.88283,1.67798 -0.3626,0.14892 -1.4102,-0.68083 -1.08276,-0.45999 7.73004,5.21342 15.53796,10.29919 23.30694,15.44878 -0.444,0.0392 -0.97347,0.39446 -1.33201,0.1175 -1.88503,-1.45608 -1.32301,-3.58379 -1.45217,-5.63028 -0.10728,-1.69972 -0.38487,-3.38924 -0.40675,-5.09252 -0.0604,-4.70288 0.70074,-9.39296 0.55838,-14.0978 0.35664,-2.72836 0.5921,-5.47712 1.06993,-8.1851 0.20422,-1.15738 3.20677,-14.07323 3.47093,-15.32009 0.8796,-4.15182 1.19046,-8.28289 3.16288,-12.09162 0.39732,-0.76722 1.18742,-1.22528 1.78115,-1.83793 -3.33516,10.21989 0.0322,1.37501 -22.74925,-13.93445 -0.67636,-0.45452 1.26007,1.04597 1.86353,1.60169 1.77458,1.63421 3.367,3.46559 5.09159,5.1545 -2.25449,7.32115 26.00305,16.85761 28.25754,9.53647 z"
       id="path76"
       style="fill:#ececec;fill-opacity:1;fill-rule:nonzero;stroke:none;stroke-width:0.270712" />
    <path
       d="m 397.9912,143.99002 c 0.42865,3.60331 1.14371,9.06357 1.19925,12.46254 0.0457,2.79882 -0.31864,5.59171 -0.33581,8.39084 -0.0661,10.76272 0.45733,7.70407 0.68514,18.54771 0.061,2.9052 -0.0516,5.81144 -0.0775,8.71716 0.54972,16.01699 -0.063,0.40962 0.72525,15.16508 0.24175,4.52583 0.19182,6.73354 0.58777,11.12302 0.27823,3.08443 0.53356,4.35563 1.00994,7.25057 1.08326,12.58037 -5.95622,4.82289 27.67047,14.31857 1.04762,0.29583 0.45691,-2.1315 0.59171,-3.2117 1.11332,-8.92276 -0.64743,-1.09508 2.14368,-11.18283 1.61023,-7.35597 1.96324,-10.35182 4.87455,-17.55497 1.27019,-3.14267 2.92365,-6.11646 4.38333,-9.17571 2.746,-5.75518 5.10461,-11.25374 8.6092,-16.60021 1.41594,-2.16012 3.14655,-4.09673 4.71985,-6.1451 3.46744,-4.63702 3.27493,-5.1852 7.73183,-8.37959 1.09919,-0.78783 2.33411,-1.36678 3.51076,-2.0334 0.52295,-0.29628 2.97596,-1.88125 4.04148,-1.75486 0.49811,0.0591 0.86281,0.51175 1.29421,0.76763 0.61188,10.56204 0.50385,0.75259 -22.15456,-12.49837 -0.52242,-0.30551 0.60605,1.05966 0.78099,1.63902 0.32772,1.08527 0.46342,2.21963 0.71779,3.3244 1.64034,7.12438 1.39761,3.13955 0.71493,10.70666 0.15465,6.62824 -0.61105,13.19776 -1.29357,19.77144 -0.20135,1.93935 -0.2943,3.89031 -0.54531,5.82386 -2.04666,15.76432 0.16158,-5.0944 -1.28656,9.25996 0.38867,2.18569 -0.90173,4.24067 -0.84534,6.38774 0.0257,0.97904 0.46407,1.90532 0.61587,2.87286 0.11128,0.70941 0.0849,1.43459 0.17171,2.14741 0.38754,3.18352 0.27387,0.26799 0.31366,3.0394 1.20772,3.41028 -0.56358,-1.44301 1.06971,2.47161 0.26692,0.5695 0.29832,1.22091 0.53774,1.79931 0.72718,1.75684 0.54698,0.46072 0.60429,2.10725 8.86549,4.22185 17.36169,9.32792 26.59649,12.66555 0.90401,0.32673 1.06569,-1.662 1.22706,-2.60958 0.18698,-1.09805 -0.22018,-2.22083 -0.21479,-3.33467 0.007,-1.49495 0.24151,-2.98285 0.25276,-4.47778 0.0159,-2.11424 -0.34433,-4.23336 -0.1715,-6.34059 0.20034,-2.44269 0.85688,-4.8263 1.28532,-7.23945 2.39418,-12.27069 0.524,-3.97921 3.89429,-16.05551 2.12987,-7.63172 1.61756,-8.01004 5.21703,-14.9193 2.51677,-4.83104 4.08662,-6.51878 7.30324,-10.69667 1.12146,-1.20025 2.2497,-2.39424 3.36442,-3.60077 1.96757,-2.12961 1.95368,-2.93341 4.68735,-3.52009 0.40233,-0.0863 1.00367,-0.18221 1.22328,0.16579 0.33284,0.52743 0.61219,2.16249 0.0614,1.86999 -8.00714,-4.25216 -15.47836,-9.44464 -23.21753,-14.16696 0.56542,0.80376 1.32448,1.5016 1.69622,2.4113 2.00615,4.90942 1.62237,7.57593 1.87439,13.06211 1.2129,26.40486 -0.41183,-8.94669 0.52683,17.05934 0.0956,2.64873 0.28456,5.29327 0.42683,7.9399 0.59349,7.39937 0.61407,5.54829 0.58846,12.20337 -0.005,1.34407 -0.13197,2.68884 -0.0721,4.03158 0.0483,1.08281 0.28665,2.1491 0.39584,3.22747 0.14216,1.40405 0.20934,2.81476 0.33195,4.22066 2.54,4.28773 0.76838,0.1469 0.60709,2.57892 -0.0212,0.31853 0.66463,1.5282 0.7879,1.76237 -2.86549,6.71493 24.26695,18.29324 27.13244,11.5783 v 0 c 0.0419,-0.32063 0.16446,-0.64087 0.12567,-0.9619 -0.0502,-0.41552 -0.28572,-0.78845 -0.38629,-1.19473 -0.53678,-2.16848 0.42342,0.38396 -0.6804,-2.22142 -0.77856,-2.34355 -1.76686,-4.75004 -2.17733,-7.18818 -0.22802,-1.35453 -0.17005,-2.7441 -0.34936,-4.10593 -1.55935,-11.84259 -0.48294,1.1678 -1.36713,-12.3239 -1.5064,-13.01157 -0.66566,-3.05645 -0.93149,-16.38194 -0.0576,-2.88881 -0.33338,-5.77217 -0.33811,-8.66155 -0.003,-1.91919 0.55041,-10.86206 0.42799,-13.44125 -0.0648,-1.36388 -0.3877,-2.70316 -0.58156,-4.05475 -8.34093,-5.75742 -16.29574,-12.11891 -25.02281,-17.27228 -0.83068,-0.49052 -1.90558,0.42078 -2.76166,0.86548 -0.73221,0.38033 -1.27635,1.04594 -1.91762,1.56515 -0.83286,0.67434 -1.76306,1.24191 -2.50468,2.01546 -2.16398,2.25715 -3.54571,5.19217 -5.75961,7.40434 -1.04241,1.88981 -2.01965,3.81704 -3.12719,5.66943 -1.28283,2.1456 -2.86446,4.11213 -4.04016,6.31826 -5.34003,10.02022 -6.94643,21.41681 -9.72058,32.27884 -2.68587,10.91099 -1.14858,3.48867 -2.58395,13.37399 -0.20934,1.44157 -0.47649,2.87416 -0.72088,4.3102 -0.13203,0.77569 -0.50819,1.54447 -0.40833,2.32495 0.0297,0.23212 0.45852,-0.0939 0.68775,-0.14086 8.90006,4.53547 17.80011,9.07094 26.70017,13.60641 -0.24329,0 -0.51695,0.11769 -0.72986,-2e-5 -0.19378,-0.10714 -0.22291,-0.38302 -0.32152,-0.58126 -0.19378,-0.38949 -0.40658,-0.77225 -0.5552,-1.18111 -0.11864,-0.32647 -0.0749,-0.70923 -0.24249,-1.01349 -1.26429,-2.29511 -0.91856,-0.14114 -1.05381,-2.30348 -0.5891,-0.93972 -1.63875,-2.9912 -1.80504,-4.00893 -0.11226,-0.6871 0.12054,-1.39472 0.0556,-2.0879 -0.0951,-1.01514 -0.35565,-2.00792 -0.53348,-3.01188 -0.11446,-1.24549 -0.22892,-2.49098 -0.34338,-3.73646 1.64605,-7.61734 0.3624,-0.0999 0.66392,-9.34131 0.26649,-8.16733 0.7792,-3.61099 1.592,-12.06984 2.74066,-28.5226 -2.3273,13.47843 1.05659,-13.50479 0.0995,-3.79448 0.0639,-7.59287 0.22992,-11.38502 0.0561,-1.28086 0.35221,-2.55047 0.32732,-3.83232 -0.23744,-12.22571 -16.07019,-22.78836 -27.90156,-20.67673 -3.73057,1.14212 -1.15991,0.0742 -4.51162,2.27606 -0.97888,0.64306 -2.11371,1.06262 -3.0017,1.8263 -1.08096,0.92966 -1.92945,2.10116 -2.84033,3.198 -2.61522,3.14923 -4.93842,6.53478 -7.66948,9.5913 -8.3544,13.06198 -0.64608,0.36241 -8.37887,15.31625 -1.53371,2.96587 -3.43776,5.73469 -4.90194,8.73549 -1.52987,3.13541 -2.75341,6.41174 -4.06609,9.64411 -1.32006,3.25052 -5.23594,13.49912 -6.62408,17.11712 -0.72104,2.05481 -1.51665,4.08497 -2.16318,6.16443 -0.4744,1.52582 -0.65873,3.13722 -1.19661,4.64183 -0.31964,0.89412 -2.15,1.98033 -1.35797,2.50407 29.45876,19.48029 29.89728,23.16665 25.78701,11.86004 -0.62977,-2.44761 -1.31146,-4.88199 -1.91329,-7.33662 -0.42775,-1.74462 -0.9363,-3.47593 -1.21028,-5.25121 -0.30255,-1.96071 -0.3642,-3.95125 -0.51506,-5.92942 -0.15394,-2.01821 -0.89684,-13.5506 -0.9983,-15.11213 -0.52589,-9.84861 -0.52586,-7.99431 -0.65315,-18.00184 -0.0386,-3.03344 -0.16045,-6.06921 -0.0507,-9.10091 0.0995,-2.74982 0.54901,-5.47839 0.67778,-8.227 0.1102,-2.35253 -0.14975,-4.71766 0.0387,-7.06523 0.11923,-1.48522 0.5868,-2.92166 0.88017,-4.38249 3.19013,-6.65828 -23.71342,-19.54829 -26.90352,-12.89001 z"
       id="path100"
       style="fill:#ececec;fill-opacity:1;fill-rule:nonzero;stroke:none;stroke-width:0.264583" />
    <path
       d="m 517.98987,180.84235 c 0.71424,-0.40132 1.42849,-0.80265 2.14276,-1.20397 1.16091,-0.9189 2.19784,-2.02112 3.48276,-2.7567 2.0016,-1.14585 4.18597,-1.93933 6.30616,-2.84716 2.57929,-1.10442 5.15718,-2.21885 7.79004,-3.18863 2.69513,-0.99272 13.35456,-4.35897 16.31673,-5.30313 10.61492,-2.54815 3.28183,-0.89467 12.81046,-2.8132 1.46505,-0.29498 2.90145,-0.76469 4.38769,-0.92126 2.98188,-0.31412 6.05925,0.2815 8.97422,0.82808 0.70448,0.28754 1.40893,0.57507 2.11341,0.86261 5.26926,-5.15193 -15.54766,-26.44301 -20.81694,-21.29108 v 0 c -0.70138,-0.0654 -1.40277,-0.13087 -2.10418,-0.19631 -1.79784,0.0667 -4.04535,0.0806 -5.78588,0.47139 -1.12633,0.25289 -2.168,0.81064 -3.29062,1.07951 -1.55247,0.37181 -3.17783,0.40802 -4.71522,0.83787 -1.74128,0.48685 -3.3868,1.26726 -5.08019,1.90089 -2.35175,0.6102 -4.70352,1.22039 -7.05527,1.83059 -8.46164,2.71983 -16.91965,5.33937 -25.19593,8.59647 -2.69536,1.06076 -8.94447,3.59085 -11.81182,5.20288 -0.93458,0.52543 -1.74043,1.2526 -2.61064,1.8789 -4.21529,5.97495 19.9272,23.00721 24.14246,17.03225 z"
       id="path102"
       style="fill:#ececec;fill-opacity:1;fill-rule:nonzero;stroke:none;stroke-width:0.264583" />
    <path
       d="m 514.90919,199.29819 c 3.09015,0.94293 1.74297,0.61594 5.57993,1.32227 1.63785,0.30151 3.25975,0.73073 4.91882,0.87552 1.84751,0.16122 3.7106,-0.0405 5.56339,0.0393 15.02445,0.64662 0.083,0.62137 15.41553,0.42827 7.28773,-0.0142 14.54356,-0.67992 21.80717,-1.15215 1.8484,-0.12017 3.702,-0.1533 5.54961,-0.28481 2.45964,-0.17506 4.91757,-0.49533 7.36544,-0.79007 0.7601,-0.12612 1.52019,-0.25224 2.28029,-0.37836 4.84415,-5.38016 -16.89497,-24.9535 -21.73912,-19.57334 v 0 c -0.71308,0.15034 -1.42616,0.30068 -2.13921,0.45103 -0.89929,0.23099 -1.78345,0.53186 -2.69785,0.69298 -2.53968,0.44748 -6.70457,0.68397 -9.12143,0.89525 -7.06761,0.61786 -14.13725,1.20443 -21.24377,1.07468 -8.71852,-0.15709 -6.52936,0.14606 -15.04098,-1.03301 -1.92569,-0.26676 -3.86593,-0.47913 -5.75895,-0.92179 -3.65511,-0.85472 -7.23598,-2.32746 -10.33512,-4.44626 -5.64285,4.84983 13.95341,27.65037 19.59625,22.80054 z"
       id="path104"
       style="fill:#ececec;fill-opacity:1;fill-rule:nonzero;stroke:none;stroke-width:0.264583" />
    <path
       d="m 490.98271,194.16559 c 0.30536,0.52898 0.55796,1.09213 0.91604,1.58692 0.54827,0.75757 1.18557,1.44671 1.79367,2.15716 0.6241,0.72915 3.27456,3.7297 3.95589,4.42272 1.61374,1.64146 2.84559,2.64569 4.57848,4.143 0.92054,0.67023 1.88968,1.27833 2.76161,2.01067 0.63712,0.53513 1.10393,1.25579 1.75067,1.77926 0.95697,0.77458 1.99843,1.44126 3.03975,2.09809 8.82308,5.56533 17.60392,11.20194 26.55051,16.5665 0.9066,0.54363 1.98464,0.73012 2.96302,1.13044 1.26201,0.51638 2.50446,1.07938 3.75671,1.61907 1.54175,0.53668 3.05633,1.15894 4.62529,1.61003 3.5982,1.03454 7.28771,1.62321 10.9832,2.16786 6.21538,0.91604 12.46851,1.53223 18.69471,2.36815 5.67682,0.15921 11.45694,0.2533 17.0923,-0.58879 4.96763,-5.65108 -17.86618,-25.72339 -22.83381,-20.07231 v 0 c -1.50542,0.94266 0.0458,0.15447 -2.51568,0.48658 -0.58529,0.0759 -1.12625,0.41265 -1.71598,0.43632 -0.97992,0.0393 -1.9512,-0.22096 -2.93148,-0.24977 -9.38215,-0.27571 4.01949,0.65014 -7.59317,-0.27825 -3.96809,-0.23439 -7.07001,-0.31975 -11.05302,-1.00497 -2.26621,-0.38988 -4.48588,-1.01472 -6.73656,-1.48611 -1.80475,-0.37798 -3.65458,-0.55993 -5.42888,-1.06182 -1.97086,-0.55749 -7.33753,-2.79198 -9.50857,-3.67558 -8.98062,-4.74505 -23.9872,-14.79055 13.80937,9.32193 0.98915,0.63104 -2.01155,-1.21231 -2.97053,-1.88831 -0.75192,-0.53003 -1.42391,-1.16579 -2.15477,-1.7245 -0.77946,-0.59584 -1.58342,-1.15889 -2.37513,-1.73834 -0.90811,-0.62201 -1.84468,-1.20437 -2.72429,-1.86603 -2.02104,-1.52027 -2.49816,-2.13064 -4.29387,-3.82556 -1.61012,-1.51978 -3.21254,-2.97251 -4.40076,-4.86671 2.37035,-6.93823 -25.66437,-16.51588 -28.03472,-9.57765 z"
       id="path106"
       style="fill:#ececec;fill-opacity:1;fill-rule:nonzero;stroke:none;stroke-width:0.264583" />
    <circle
       r="0.26641652"
       cy="109.61309"
       cx="-343.95834"
       style="fill:#ececec;stroke:#000000;stroke-width:0.264583"
       id="path108" />
    <path
       d="m -358.86468,22.671074 c 2.15683,-0.13014 4.33578,-0.111124 6.45656,-0.641237 0.96939,0.182346 1.90726,-0.189003 2.86157,-0.265192 0.71785,-0.05728 1.44757,0.01156 2.16863,-0.03694 1.9389,-0.116773 -0.13466,0.09764 1.47389,-0.30451 0.24011,-0.06005 0.49022,-0.0405 0.73224,-0.08836 0.4628,-0.09154 0.83045,-0.22357 1.30618,-0.198616 -1.01485,-0.83643 -1.94566,-1.841127 -3.04457,-2.509285 -0.20692,-0.12583 -0.45763,0.125857 -0.6632,0.254869 -0.37568,0.235783 -1.57846,1.378761 -1.83104,1.60686 -2.0694,1.868802 -0.71698,0.528749 -3.06627,3.062027 -0.6879,0.763923 -1.42708,1.466918 -2.06371,2.291756 -0.70582,0.914487 -1.30329,1.940196 -1.95287,2.91228 -2.04207,3.055942 -3.98667,6.166223 -5.70396,9.496552 -0.61231,1.02893 -1.03954,2.17695 -1.60985,3.234435 -0.0598,0.110921 -0.12245,0.437852 -0.18455,0.32875 -0.0899,-0.157934 -0.1,-0.645189 0.0471,-0.570125 1.00274,0.511711 1.86581,1.348276 2.79872,2.022415 0.0417,-0.254817 0.0273,-0.532628 0.1252,-0.764445 0.3689,-0.873068 1.27378,-1.704568 1.85359,-2.244848 0.6399,-0.596271 1.24655,-1.267441 1.96689,-1.714211 2.09498,-1.29934 5.95505,-2.708366 8.10879,-3.565871 2.82401,-0.872121 4.96937,-1.66589 7.83539,-2.091124 0.90662,-0.134517 1.82708,-0.247325 2.73761,-0.157799 0.56958,0.05599 2.21102,0.654452 1.64218,0.588429 -4.67651,-0.542799 -2.02966,-2.047632 -5.49032,1.502111 -1.18154,0.866774 -2.33361,1.793633 -3.54465,2.600328 -1.31197,0.873934 -2.6666,1.654279 -4.0182,2.437458 -3.11447,1.804678 -6.34398,3.587641 -9.76796,4.38648 -0.62872,0.146687 -1.27451,0.156484 -1.91176,0.234725 -0.42637,-0.178579 -1.65311,-0.838421 -1.27911,-0.535743 0.73882,0.597913 1.53239,1.150226 2.39215,1.436512 0.21405,0.07127 0.35877,-0.313544 0.54483,-0.458565 0.4303,-0.335357 0.8438,-0.708551 1.30373,-0.982157 0.98291,-0.584735 2.68362,-1.230773 3.71693,-1.651391 1.50061,-0.41886 3.03773,-0.591367 4.53959,-0.0801 0.31757,0.108113 1.19454,0.661207 0.91714,0.447262 -2.24164,-1.728932 -1.9832,-2.199445 -2.16119,-0.558607 -1.00877,2.225566 -0.39584,1.199445 -2.2247,3.409886 -0.59306,0.716817 -1.17119,1.452977 -1.79418,2.13266 -0.61978,0.676178 -2.53649,2.24668 -2.93322,3.433064 -0.13324,0.398424 0.0875,0.851617 0.13121,1.277429 1.70493,0.723646 3.31746,1.921026 5.1148,2.170932 1.25106,0.173939 2.46866,-0.60058 3.69446,-0.946097 1.34428,-0.378922 2.67598,-0.8189 4.01431,-1.226796 1.29032,-0.393261 2.59647,-0.718305 3.87161,-1.176679 2.33643,-0.839866 3.1513,-1.371486 5.24306,-2.511467 0.32065,-0.499486 0.78556,-0.905446 0.96197,-1.498466 0.74538,-2.505743 -2.38815,-4.811229 -3.55878,-6.047435 -3.05899,-3.230305 -2.7358,-2.953343 -5.80933,-6.570474 -3.43773,-4.208227 -6.19202,-9.037704 -8.58952,-14.14324 -1.30056,-2.769548 -0.90215,-1.587178 -1.50318,-4.042559 -0.0599,-0.489777 -0.30022,-1.371935 0.0176,-1.889297 0.20827,-0.339051 1.107,-0.669399 1.44643,-0.698282 0.18034,-0.01535 0.3593,0.04856 0.53897,0.07283 1.01623,0.671571 3.16009,1.780618 -1.58016,-1.16652 -0.20456,-0.127186 0.36561,0.336771 0.53627,0.522001 0.57064,0.619372 0.56051,0.67077 1.02385,1.395029 0.93329,1.416017 0.31044,0.307072 0.87932,1.731741 0.49276,1.234066 0.49321,0.927465 0.89859,2.270327 0.31972,1.059156 0.35931,1.538576 0.54133,2.653787 0.93509,4.172548 0.6531,8.494235 0.44232,12.75296 -0.18666,4.14017 -0.35366,8.28672 -0.63028,12.420725 -0.0631,0.943006 -0.17525,1.88161 -0.21452,2.82646 -0.0374,0.900973 -0.0102,1.80412 -0.0153,2.706173 0.027,2.205628 -0.22814,4.409123 -0.11899,6.615255 0.0316,0.639486 0.13417,1.271467 0.18079,1.90965 0.0555,0.759829 0.10014,2.251 0.12764,3.053521 -0.0474,1.088364 0.0425,2.166085 0.11729,3.247025 0.0181,0.26098 0.002,0.52588 0.0357,0.78444 0.15977,1.18994 0.26209,0.31063 0.0536,1.31112 0.22656,1.00386 0.21436,2.07598 -0.25216,2.97387 -0.44462,0.0335 -0.77992,-0.21256 -1.18785,-0.40103 -0.22901,-0.10581 -0.46922,-0.17945 -0.69056,-0.30645 -0.55287,-0.31722 -1.06411,-0.72895 -1.59959,-1.08618 -0.28845,-0.2188 -1.16337,-0.85616 -0.86536,-0.65642 3.50032,2.34605 2.1135,1.62227 0.95163,0.58281 -0.84045,-0.75191 -1.61528,-1.65139 -2.32505,-2.57094 -1.01815,-0.96504 -1.85532,-2.12444 -2.51207,-3.455255 0.007,-0.08577 0.0488,-0.76155 0.0964,-0.831322 0.15235,-0.223582 0.37708,-0.361282 0.57819,-0.520765 1.07145,-0.8497 2.24613,-1.119464 3.46834,-1.545725 3.4625,-0.623308 6.94904,-1.057258 10.44955,-1.182807 1.2597,-0.206483 2.5638,-0.276378 3.83203,-0.110368 1.12539,0.147319 2.22486,0.556155 3.32312,0.866448 0.52682,0.277392 1.16679,0.581809 1.66819,0.950762 0.22496,0.165543 0.87394,0.708287 0.64597,0.5487 -4.4437,-3.110822 -2.40308,-1.832164 -1.40371,-0.941734 0.59186,0.616284 1.20735,1.262039 1.62903,2.06105 0.39354,0.728324 0.72444,1.488233 0.9908,2.291616 0.42329,0.98557 0.0183,0.8838 -0.98462,1.32359 -0.67897,0.29773 -1.36847,0.56002 -2.05269,0.84004 -0.53464,0.75947 2.03597,3.33827 2.57058,2.57881 v 0 c 1.18207,-0.41878 3.28646,-0.73954 3.94289,-2.31921 0.0624,-0.15009 0.10973,-0.32482 0.0908,-0.49082 -0.0183,-0.1605 -0.13039,-0.28413 -0.19559,-0.42619 0.0142,-0.53444 0.0532,-0.0926 -0.21179,-0.66902 -0.0322,-0.0702 -0.27779,-0.81147 -0.32,-0.89736 -0.076,-0.15465 -0.19603,-0.274959 -0.26848,-0.432045 -0.056,-0.121542 -0.075,-0.26266 -0.11245,-0.393992 -1.04863,-1.477827 0.2568,0.448227 -0.42732,-0.791563 -0.32475,-0.58849 -0.84891,-0.962821 -1.17655,-1.544673 -0.47307,-0.474822 -0.42241,-0.4513 -0.98039,-0.883873 -1.85073,-1.434809 -3.55936,-3.112278 -5.72146,-3.740394 -1.58943,-0.532602 -3.19653,-0.951585 -4.86005,-0.90831 -0.39915,0.01039 -0.79483,0.09248 -1.19313,0.125218 -0.45877,0.03774 -0.91846,0.05741 -1.37768,0.08607 -3.87683,0.272813 0.81919,-0.09046 -3.25051,0.334324 -0.62918,0.06568 -1.26182,0.07838 -1.89064,0.148844 -1.78987,0.200552 -3.56978,0.551791 -5.34583,0.874586 -0.51792,0.157122 -1.04772,0.266365 -1.55374,0.471373 -1.0088,0.408689 -3.05366,1.612688 -3.38025,2.994136 -0.0466,0.196882 0.0725,0.399887 0.10873,0.599836 0.20279,0.527274 0.45822,1.306931 0.74822,1.764144 0.15777,0.248738 0.37267,0.438546 0.54319,0.675005 1.20149,1.666164 -0.66593,-0.671447 0.93827,1.283474 1.11946,1.25718 2.24345,2.59694 3.52568,3.62112 1.23067,0.98297 2.48416,1.92461 3.73149,2.87717 0.30575,0.23351 0.61838,0.45393 0.92759,0.6809 0.83372,0.49442 2.73459,1.82899 3.6847,1.28862 0.14808,-0.0842 0.24776,-0.25666 0.37165,-0.38501 0.0179,-0.0262 0.54834,-0.80042 0.55104,-0.80806 0.25044,-0.71031 0.0282,-1.91978 0.11787,-2.67994 -0.0516,-1.81213 0.0426,0.59445 -0.12596,-1.37755 -0.0711,-0.83204 0.0308,-0.81529 -0.0357,-1.69107 -0.22763,-3.00103 -0.0909,0.82735 -0.17128,-2.35532 -0.14064,-1.250598 -0.22829,-1.787018 -0.25205,-3.088312 -0.0109,-0.595725 0.0358,-1.191456 0.029,-1.787272 -0.008,-0.66838 -0.0615,-1.335142 -0.0729,-2.003448 -0.11733,-6.907841 0.15617,2.807579 -0.0755,-4.709674 0.34515,-5.966079 0.38714,-11.956649 0.91332,-17.910384 0.0458,-0.960553 0.0819,-1.921831 0.13731,-2.881659 0.0495,-0.857186 0.15387,-1.71018 0.17752,-2.568939 0.0692,-2.513426 -0.31477,-4.990601 -0.59126,-7.470646 -0.12124,-0.498547 -0.26527,-0.989988 -0.36374,-1.495639 -0.21821,-1.120755 -0.0827,-1.384779 -0.46335,-2.45727 -0.14718,-0.414582 -0.39352,-0.770398 -0.55354,-1.178136 -0.76717,-1.954908 0.3537,0.156825 -0.81625,-1.860224 -1.36445,-2.486716 -3.53671,-4.637133 -6.05567,-5.064109 -1.19449,0.228228 -2.46593,0.983074 -2.62295,2.600236 -0.0437,0.450216 0.0334,0.905583 0.05,1.358372 0.17105,0.608438 0.30218,1.23502 0.51319,1.825306 0.29243,0.817972 0.64106,1.60641 0.99365,2.38984 2.34014,5.199605 5.3398,9.913754 8.57501,14.361784 2.07495,2.435343 3.66362,4.377378 5.82278,6.64118 0.73483,0.770431 1.52693,1.460494 2.26296,2.229303 0.20939,0.218714 1.83974,1.702866 1.70003,2.632067 -0.0774,0.514791 -0.49131,0.866122 -0.73697,1.299186 -0.74687,0.351824 -1.49829,0.690205 -2.24062,1.05547 -0.9484,0.466659 -1.8571,1.055949 -2.83114,1.440077 -0.7604,0.299881 -7.15099,2.174431 -7.84239,2.33942 -1.23985,0.29588 -2.75373,-0.235241 -3.74792,0.697359 -0.51006,0.478491 0.45837,1.448977 0.68756,2.173471 -0.9339,-0.865704 -0.73427,-0.345499 0.55382,-1.966963 2.08076,-2.619302 4.52125,-4.8408 6.20029,-7.893614 0.0778,-0.523346 0.53576,-1.179949 0.23333,-1.570033 -1.95367,-2.519941 -4.89619,-3.803177 -7.69558,-3.311712 -0.59962,0.105273 -1.17925,0.334798 -1.76885,0.502197 -1.8857,0.762294 -2.01094,0.717033 -3.77694,1.811138 -0.55328,0.342788 -1.1651,0.606241 -1.62033,1.114603 -0.35536,0.396838 -1.00696,1.032255 -0.72953,1.509498 0.77889,1.339899 2.10709,2.105143 3.29683,2.906847 0.37259,0.25108 0.85018,0.116047 1.27528,0.174074 0.67417,-0.100319 1.3597,-0.122784 2.02248,-0.300957 1.77742,-0.477815 4.35632,-1.68675 5.94818,-2.502565 3.99584,-2.047854 7.88424,-4.427944 11.55947,-7.204945 0.82463,-0.852059 2.40718,-1.256654 2.4739,-2.556179 0.16872,-3.285652 -1.93464,-4.681328 -3.95637,-4.740971 -0.91224,-0.02692 -1.82279,0.15314 -2.72421,0.322708 -1.20849,0.227338 -2.40995,0.51661 -3.59771,0.866553 -1.40666,0.414429 -2.78634,0.949859 -4.1795,1.424785 -1.61869,0.681747 -6.60021,2.702847 -8.23952,3.680947 -0.77074,0.45988 -1.43668,1.137504 -2.13163,1.745644 -0.49688,0.434815 -1.01861,0.846097 -1.44137,1.381079 -0.3582,0.453285 -0.74082,1.564747 -0.96715,2.164226 0.97343,1.035077 1.84278,2.229353 2.9203,3.105242 0.15007,0.121978 0.32792,-0.205389 0.45068,-0.365056 0.10057,-0.130829 0.11775,-0.327767 0.1973,-0.477809 0.12921,-0.243711 0.30173,-0.452573 0.42677,-0.699356 0.11736,-0.231628 1.09894,-2.526186 1.11836,-2.571348 0.32076,-0.595288 0.65546,-1.180196 0.96228,-1.785865 0.38498,-0.759946 0.69802,-1.572221 1.11251,-2.309714 0.49516,-0.881046 1.06795,-1.696332 1.61101,-2.536198 1.80689,-2.794432 3.64479,-5.583566 5.95107,-7.829138 0.57175,-0.619818 1.11515,-1.279039 1.71522,-1.85946 0.56984,-0.551188 1.78263,-1.424489 2.44357,-1.918432 0.28383,-0.212119 0.56553,-0.428332 0.85044,-0.638386 0.20959,-0.154516 0.7742,-0.214313 0.63299,-0.45527 -0.68843,-1.17484 -1.75051,-1.963612 -2.62578,-2.945416 -0.47326,0.225763 0.20668,-0.07694 -0.67575,0.163406 -0.18509,0.05041 -0.35489,0.17265 -0.5426,0.206701 -0.25524,0.04631 -0.52148,-0.0319 -0.77402,0.03216 -0.19705,0.04998 -0.34948,0.264825 -0.54834,0.303283 -0.26517,0.05129 -0.53675,-0.02767 -0.80514,-0.04151 -0.48483,0.07541 -0.77636,0.140964 -1.27812,0.127759 -0.30538,-0.0081 -0.60883,-0.09516 -0.91399,-0.07883 -0.2748,0.01471 -0.53968,0.130973 -0.8127,0.17124 -0.67828,0.100043 -1.3792,0.110906 -2.06042,0.139837 -2.15104,0.38942 -4.32868,0.584745 -6.50527,0.459525 -0.6294,0.789007 2.04118,3.824962 2.67059,3.035957 z"
       id="path116"
       style="fill:#ff9955;fill-opacity:1;fill-rule:nonzero;stroke:none;stroke-width:0.139695" />
    <path
       id="path118"
       d="m -381.96862,71.48614 -1.01745,-0.65865 0.23201,-7.282517 c 0.12758,-4.005383 0.34913,-12.679101 0.49233,-19.274942 0.24606,-11.334161 0.22292,-12.043235 -0.42161,-12.9179 -0.5969,-0.81005 -0.61113,-0.957898 -0.11416,-1.185555 0.73996,-0.338984 0.84565,-6.830116 0.11114,-6.826625 -0.60696,0.0031 -11.13254,3.293734 -12.44407,3.890663 -0.56561,0.25743 -1.40316,0.468055 -1.86123,0.468055 -0.9889,0 -2.33072,-1.579645 -1.83244,-2.157232 0.37135,-0.430471 15.20121,-5.075081 18.42087,-5.769291 3.02588,-0.652429 5.78427,-0.210261 8.56244,1.372564 1.8575,1.058291 2.57386,1.73498 3.02061,2.853362 0.54028,1.352518 0.53838,1.552172 -0.0244,2.577722 -0.76396,1.39189 -2.38874,2.371804 -6.84801,4.130084 l -3.50877,1.383501 -0.23646,4.236948 c -0.13005,2.330323 -0.34419,11.350646 -0.47587,20.045158 -0.1663,10.980665 -0.36126,15.802875 -0.6384,15.790755 -0.21945,-0.009 -0.85683,-0.31385 -1.41641,-0.6761 z m 9.60204,-45.908926 c 1.13989,-1.005451 1.30909,-1.922655 0.52691,-2.856374 -0.49292,-0.588447 -1.2263,-0.699614 -3.94524,-0.598041 l -3.33977,0.124762 -0.10672,3.381816 -0.10671,3.38181 3.02912,-1.314214 c 1.66603,-0.72281 3.44012,-1.676707 3.94241,-2.119759 z"
       style="fill:#ff9955;stroke-width:0.39913" />
    <path
       d="m 35.180294,79.615731 c 1.871777,-1.12868 0.169437,-0.22686 3.040208,-1.16705 0.683869,-0.22397 1.311431,-0.62951 2.017575,-0.76808 1.649034,-0.32359 5.753074,-0.20437 7.159781,-0.33012 1.682086,-0.15037 3.344098,-0.47444 5.016146,-0.71165 7.462234,-1.00561 14.995847,-1.25506 22.508815,-1.58656 2.82819,-0.1248 5.654813,-0.4341 8.484936,-0.36601 24.078635,0.57928 -3.527605,1.26679 17.193765,0.5183 5.10776,-0.0272 10.10831,1.07506 15.17499,1.46925 14.22963,1.10708 -2.69697,-0.9278 12.62229,0.68693 15.9065,1.67662 -1.53405,0.29919 12.04562,1.28637 1.52678,0.2497 6.65626,1.12278 8.49513,1.31021 0.90395,0.0921 1.8216,0.0128 2.72289,0.12802 0.9356,0.11962 1.84112,0.41478 2.77074,0.57433 4.49721,0.77184 -1.08006,-0.44124 3.25414,0.54998 0.96779,0.25033 2.41753,0.36558 2.36892,1.68234 7.00533,-6.21183 -18.09422,-34.51764 -25.09955,-28.30581 v 0 c -0.23093,0.15048 -0.42467,0.38746 -0.69277,0.45144 -0.82897,0.1978 -1.73542,-0.32115 -2.55491,-0.0964 -2.56666,0.12676 -0.17126,0.10571 -3.6022,-0.30706 -0.75784,-0.0912 -1.52343,-0.10073 -2.28362,-0.16963 -0.96723,-0.0877 -1.92811,-0.25137 -2.89808,-0.30001 -1.08955,-0.0547 -2.18265,0.0331 -3.27273,-0.009 -1.47862,-0.0577 -2.95313,-0.19411 -4.42969,-0.29116 -3.86426,-0.16771 -7.44507,-0.27997 -11.31551,-0.64542 -2.31931,-0.21898 -4.614511,-0.69834 -6.941228,-0.81481 -1.96737,-0.0985 -3.938878,0.25365 -5.907005,0.17166 -19.11953,-0.79644 4.106206,-0.94189 -14.815579,-0.59224 -2.704105,0.0201 -5.409041,-0.01 -8.112318,0.0603 -2.762136,0.0714 -5.518148,0.35784 -8.281202,0.36365 -3.09781,0.007 -6.190019,-0.35476 -9.287711,-0.32669 -2.766449,0.025 -5.520954,0.37899 -8.285448,0.4859 -3.867922,0.14958 -11.636266,0.17839 -15.646271,0.20767 -0.70195,0.0271 -9.185009,0.32848 -10.443525,0.46732 -3.623097,0.39969 -6.5150598,2.11161 -10.084906,2.62521 -5.87764528,7.19652 23.200663,30.94579 29.078307,23.74928 z"
       id="path140"
       style="fill:#ececec;fill-opacity:1;fill-rule:nonzero;stroke:none;stroke-width:0.264583" />
    <path
       d="m 26.872802,66.070791 c 0.25876,0.57916 0.635532,1.11895 0.776282,1.73747 0.135788,0.59671 -0.08105,1.23503 0.03679,1.83554 1.145187,5.83593 0.690306,-0.43804 1.545234,5.81859 0.15169,1.11011 -0.007,2.25369 0.196127,3.35556 0.306612,1.66357 0.88347,3.26579 1.325202,4.89868 -0.214215,1.72645 -0.64987,3.43968 -0.642644,5.17936 0.0099,2.37303 0.630177,4.71308 0.693597,7.08528 0.07163,2.67922 -0.25737,5.355349 -0.289343,8.035339 -0.03786,3.17379 0.143772,6.34833 0.0799,9.5217 -0.515242,25.59668 -0.669817,-5.99441 -0.343445,21.51911 -0.281768,3.78567 -0.563536,7.57135 -0.845306,11.35703 -0.118246,4.26523 -0.0915,8.53696 -0.35474,12.79571 -0.24684,3.99345 -0.898395,7.95408 -1.174553,11.94562 -0.254499,3.67848 -0.151238,7.37626 -0.416694,11.05397 -0.218452,3.0265 -0.730323,6.02506 -1.033986,9.0442 -0.245883,2.44467 -0.409641,4.89691 -0.614462,7.34536 -0.228436,2.98626 -0.548919,6.83596 -0.699391,9.90693 -0.05294,1.08032 0.05388,2.17278 -0.100602,3.24334 -0.101188,0.7012 -0.51677,1.32659 -0.65902,2.02062 -0.666725,3.25295 0.468087,0.58193 -0.631406,2.84943 -0.01307,4.27765 0.22583,-1.50971 -0.555081,1.89958 -0.09225,0.40275 0.116632,0.82341 0.09385,1.23595 -0.01924,0.34843 -0.145753,0.68251 -0.218629,1.02375 -4.24238,8.21581 28.954529,25.35761 33.196908,17.1418 v 0 c -1.122053,-3.09576 -0.161163,0.6319 0.439055,-1.56374 1.298855,-4.75131 -2.202826,1.91315 0.358743,-2.51519 0.928397,-4.23751 -0.02791,1.16295 -0.01341,-3.95422 0.0024,-0.81161 0.387853,-1.58983 0.402635,-2.40131 0.02066,-1.13493 -0.24696,-2.25832 -0.297098,-3.39232 -0.416441,-9.41848 0.621845,1.3309 -0.772224,-10.5605 0.416547,-19.27295 -0.176011,5.6548 0.563939,-16.8523 0.121459,-3.69443 0.08547,-7.39417 0.269703,-11.086 0.200686,-4.02152 0.61319,-8.02978 0.884708,-12.04714 0.866352,-12.81854 0.741101,-11.68266 1.264211,-24.16556 0.488852,-3.52246 1.258271,-7.01726 1.466554,-10.56737 0.208422,-3.55247 -0.311828,-7.11606 -0.220369,-10.67347 0.07862,-3.05786 0.577016,-6.09248 0.729948,-9.14752 0.137687,-2.7505 -0.03526,-5.51236 0.141486,-8.26063 0.262155,-4.07635 1.28987,-8.08249 1.274646,-12.187829 -0.174633,-9.01424 0.138898,-0.55122 -0.528068,-8.38096 -0.08714,-1.02292 -0.04565,-2.05455 -0.143132,-3.07654 -0.08371,-0.87769 -0.355677,-1.73408 -0.399698,-2.61466 -0.03411,-0.68223 0.260252,-1.36576 0.166886,-2.04242 -0.08571,-0.62115 -0.460111,-1.16662 -0.690163,-1.74993 3.615878,-8.47964 -30.647066,-23.08995 -34.262932,-14.61031 z"
       id="path146"
       style="fill:#ececec;fill-opacity:1;fill-rule:nonzero;stroke:none;stroke-width:0.264583" />
    <path
       d="m 65.953603,141.91553 c 1.015878,-0.28801 1.995546,-0.7742 3.047632,-0.86405 2.214407,-0.18911 4.446932,0.13063 6.667315,0.0344 20.649467,-0.89499 -5.298813,-0.60616 18.442895,-1.25926 7.632815,-0.20997 13.687495,0.0719 21.276415,0.296 14.54532,-0.49476 1.6239,-0.22712 15.04753,-0.0569 1.86045,0.0236 3.72159,-0.10446 5.58153,-0.0548 1.60862,0.0429 3.20695,0.33697 4.81614,0.3324 7.43568,-0.0211 -1.29733,-0.93695 6.07592,0.049 2.66097,0.37848 1.5289,0.2286 3.3939,0.46677 6.38068,-6.55593 -20.10926,-32.33776 -26.48994,-25.78184 v 0 c -2.39514,-0.20712 -1.2334,-0.27209 -3.48742,0.14998 -0.8647,0.006 -1.73308,-0.0625 -2.59409,0.0174 -5.37989,0.49938 -0.40231,0.64587 -6.83232,1.03218 -1.86792,0.11223 -3.74273,0.003 -5.61375,0.0347 -7.503949,0.12712 -6.428444,0.15902 -14.363155,0.68175 -13.714714,0.54696 -5.701496,0.37123 -20.536874,0.31779 -7.921683,-0.0285 -12.413056,0.0892 -20.178058,-0.28416 -2.445904,-0.1176 -4.880152,-0.42918 -7.326466,-0.53791 -1.398887,-0.0622 -2.80048,0.017 -4.200721,0.0256 -6.28642,6.74985 20.987096,32.15083 27.273517,25.40097 z"
       id="path148"
       style="fill:#ececec;fill-opacity:1;fill-rule:nonzero;stroke:none;stroke-width:0.264583" />
    <path
       d="m 448.29721,112.34344 c 1.51525,-0.56839 2.56072,-1.86861 3.93867,-2.64451 1.34223,-0.75581 2.81811,-1.24935 4.18682,-1.95606 1.71969,-0.88793 3.35375,-1.93536 5.07259,-2.82489 4.76539,-2.46617 9.64322,-4.70871 14.46258,-7.067643 2.73322,-1.338276 19.13776,-9.391399 20.67898,-10.043663 5.61536,-2.376455 11.39053,-4.355965 17.08518,-6.535515 7.01675,-2.685568 14.03273,-5.373227 21.04909,-8.05984 C 539.09303,68.0413 518.20299,50.578154 513.8811,55.748173 v 0 c -7.79452,2.128063 -15.63926,4.080037 -23.38353,6.38419 -13.85771,4.123086 -27.50384,9.103092 -40.9162,14.487572 -2.67324,1.189019 -5.32082,2.437469 -8.01971,3.567057 -4.3489,1.820177 -8.82647,3.322487 -13.1731,5.148061 -1.47023,0.617493 -2.86303,1.414894 -4.35014,1.990503 -10.80101,4.180636 1.85073,-1.31499 -5.44402,1.913274 -5.71809,7.351069 23.98469,30.45568 29.70281,23.10461 z"
       id="path150"
       style="fill:#ff7f2a;fill-opacity:1;fill-rule:nonzero;stroke:none;stroke-width:0.264583" />
  </g>
</svg>
