<?xml version="1.0" encoding="UTF-8" standalone="no"?>
<svg
   xmlns:dc="http://purl.org/dc/elements/1.1/"
   xmlns:cc="http://creativecommons.org/ns#"
   xmlns:rdf="http://www.w3.org/1999/02/22-rdf-syntax-ns#"
   xmlns:svg="http://www.w3.org/2000/svg"
   xmlns="http://www.w3.org/2000/svg"
   xmlns:sodipodi="http://sodipodi.sourceforge.net/DTD/sodipodi-0.dtd"
   xmlns:inkscape="http://www.inkscape.org/namespaces/inkscape"
   width="600mm"
   height="300mm"
   viewBox="0 0 600 300"
   version="1.1"
   id="svg8"
   inkscape:version="1.0 (4035a4fb49, 2020-05-01)"
   sodipodi:docname="project.svg">
  <defs
     id="defs2" />
  <sodipodi:namedview
     id="base"
     pagecolor="#ffffff"
     bordercolor="#666666"
     borderopacity="1.0"
     inkscape:pageopacity="0.0"
     inkscape:pageshadow="2"
     inkscape:zoom="0.35"
     inkscape:cx="400"
     inkscape:cy="949.86283"
     inkscape:document-units="mm"
     inkscape:current-layer="layer1"
     inkscape:document-rotation="0"
     showgrid="false"
     inkscape:window-width="1920"
     inkscape:window-height="1017"
     inkscape:window-x="-8"
     inkscape:window-y="-8"
     inkscape:window-maximized="1" />
  <metadata
     id="metadata5">
    <rdf:RDF>
      <cc:Work
         rdf:about="">
        <dc:format>image/svg+xml</dc:format>
        <dc:type
           rdf:resource="http://purl.org/dc/dcmitype/StillImage" />
        <dc:title></dc:title>
      </cc:Work>
    </rdf:RDF>
  </metadata>
  <g
     inkscape:label="Layer 1"
     inkscape:groupmode="layer"
     id="layer1">
    <path
       d="m 27.718939,48.92404 c 4.442118,-1.305478 10.129197,-3.003842 14.034415,-3.778019 6.997645,-1.387227 14.090277,-2.357751 21.152494,-3.449993 9.66947,-1.495469 19.333588,-3.030893 29.041043,-4.312897 21.258949,-2.807557 53.113319,-6.13827 74.252709,-8.434624 26.08509,-2.136116 41.38873,-3.913083 67.05994,-4.150845 7.86917,-0.07283 15.75737,0.06471 23.59636,0.687111 5.32217,0.422564 10.75719,0.847145 15.7965,2.440528 2.88551,0.912388 10.40845,5.314508 7.38595,4.889597 -6.63261,-0.932422 -12.53055,-4.329075 -18.79581,-6.493612 -2.45017,2.56156 -4.47275,5.51059 -7.35053,7.684706 -11.63798,8.792276 -28.70347,16.500176 -42.05802,21.667997 -10.31586,3.991927 -20.94502,7.313657 -31.57621,10.57192 -19.58434,6.002236 -38.73601,10.568786 -58.60921,15.558646 -27.940276,5.97729 -14.44905,3.96594 -39.8973,6.45078 -10.000783,0.97652 -11.116181,1.78615 -20.16862,0.52055 -1.651796,-0.23091 -3.316994,-0.56898 -4.833466,-1.20029 -0.967288,-0.40268 -1.639605,-1.22381 -2.459436,-1.8357 -4.69735,3.70703 11.993402,20.740325 16.690746,17.033295 v 0 c 0.988129,0.15262 1.963631,0.40295 2.964433,0.45787 1.536874,0.0844 3.081196,0.0282 4.618977,-0.0416 8.520963,-0.38686 9.557391,-0.59915 18.815137,-2.63268 14.686349,-3.225965 21.137169,-5.287035 36.388449,-9.530035 103.0372,-31.144461 -62.001847,18.656275 57.04206,-16.93974 10.91256,-3.26302 21.82942,-6.518581 32.66975,-9.970008 9.92422,-3.15974 20.03198,-5.950435 29.61804,-9.86164 14.97663,-6.110635 17.9748,-9.534846 29.24879,-18.36516 -5.67042,-6.16508 -10.59473,-12.950417 -17.01127,-18.495252 -4.14243,-3.579716 -18.58586,-2.986903 -21.46817,-2.937305 -28.90128,0.49736 -57.29015,5.857418 -86.08446,7.591538 -12.97759,1.174447 -25.94092,2.483275 -38.93274,3.52333 -12.70725,1.01728 -25.444784,1.70599 -38.159218,2.648233 -10.449414,0.774392 -20.882181,1.72322 -31.331245,2.501596 -7.856944,0.585277 -15.725519,1.038191 -23.585537,1.58926 -4.891667,0.342959 -9.796924,0.573451 -14.669256,1.092812 -1.141802,0.121679 -2.2164408,0.550143 -3.324682,0.825208 -4.0523432,4.428575 15.887031,19.123033 19.939387,14.694471 z"
       id="path20"
       style="fill:#ececec;fill-opacity:1;fill-rule:nonzero;stroke:none;stroke-width:0.216055" />
    <path
       d="m 153.40036,29.713497 c -0.14023,0.415688 -0.32369,0.819017 -0.42073,1.247049 -0.16258,0.717055 -0.18161,1.463001 -0.35563,2.177315 -0.79954,3.282015 -2.18536,6.563587 -3.3228,9.727096 -0.5956,1.656544 -1.14623,3.329177 -1.71933,4.993765 -0.88321,2.138527 -1.87647,4.234181 -2.64963,6.415606 -1.96927,5.556267 -4.63539,15.462988 -6.16226,20.767957 -1.36353,4.73748 -2.79278,9.45572 -4.13133,14.20045 -15.52635,55.035785 7.14029,-24.07322 -10.16331,36.101905 -4.37939,13.15558 -7.10174,26.77563 -10.94244,40.0807 -1.75383,6.07565 -3.9266,12.0216 -5.7473,18.07723 -1.61079,5.35755 -2.89526,10.81218 -4.54571,16.15747 -10.740737,34.78562 0.71978,-5.67885 -7.535217,24.06143 -2.24452,4.16621 14.451787,13.3102 16.696317,9.144 v 0 c 2.09824,-9.84239 3.12401,-14.91526 5.55683,-25.0796 3.4178,-14.27955 5.1194,-20.38751 9.04316,-34.90241 6.77915,-25.0776 3.8652,-14.81091 11.46931,-39.72233 7.9726,-24.35006 3.8478,-12.33314 11.96361,-34.998545 1.63378,-4.56266 3.25877,-9.12851 4.89796,-13.68919 1.34162,-3.73271 2.57745,-7.50652 4.04446,-11.19096 1.99663,-5.014628 4.64481,-9.751054 6.40324,-14.869772 0.81249,-1.544889 1.70292,-3.050598 2.43749,-4.634655 1.04869,-2.261373 1.6789,-4.601031 2.56331,-6.919488 3.04431,-7.980466 -0.63857,1.897847 2.23028,-4.867177 0.22396,-0.528129 0.34114,-1.09606 0.51169,-1.644084 2.61021,-5.020995 -17.51176,-15.654756 -20.12197,-10.633762 z"
       id="path22"
       style="fill:#ececec;fill-opacity:1;fill-rule:nonzero;stroke:none;stroke-width:0.203836" />
    <path
       d="m 252.86805,99.317725 c 1.14801,0.11559 2.29899,0.20414 3.44402,0.34661 1.86145,0.23163 3.71155,0.551345 5.57389,0.775505 3.81801,0.45955 7.76784,0.64383 11.54594,1.43555 1.75684,0.36813 3.45941,0.96272 5.18911,1.4441 3.79374,-3.704745 -11.05322,-19.160155 -14.84696,-15.455435 v 0 c -12.9753,-2.35794 3.75906,0.60705 -10.61691,-1.66853 -5.34222,-0.84564 -10.65016,-1.9359 -15.93663,-3.07678 -3.97626,3.90451 11.67128,20.103475 15.64754,16.19898 z"
       id="path28"
       style="fill:#ececec;fill-opacity:1;fill-rule:nonzero;stroke:none;stroke-width:0.203836" />
    <path
       d="m 256.57553,124.05976 c 0.49771,0.068 0.99087,0.2063 1.49313,0.20403 1.1229,-0.005 2.23838,-0.23468 3.36127,-0.22605 1.64758,0.0127 3.28754,0.24309 4.93453,0.28991 1.55717,0.0443 3.11567,-0.0355 4.67335,-0.0168 1.65055,0.0199 6.2594,0.19328 8.06488,0.25783 1.97451,0.0751 3.63246,0.0839 5.57928,0.35325 0.72841,0.10074 1.43759,0.32015 2.1664,0.41776 0.3978,0.0533 0.80996,-0.0459 1.20342,0.0336 1.45261,0.2936 1.56864,0.54951 2.71235,1.36771 0.12389,0.0787 0.26096,0.13944 0.3717,0.23606 0.32486,0.28336 1.29688,1.1248 0.93003,0.89946 -5.90421,-3.62697 -11.72967,-7.3829 -17.56642,-11.1192 -0.41699,-0.26691 0.91802,0.3987 1.30418,0.70919 0.29823,0.2398 0.46412,0.61067 0.70657,0.90758 0.42148,0.51619 0.85661,1.02091 1.28491,1.53137 0.35711,0.66457 0.78761,1.29409 1.07133,1.99369 0.3411,0.84109 0.5469,1.73199 0.79399,2.60581 0.35439,1.25327 0.79544,2.4895 1.0102,3.77456 0.60044,3.5927 0.61906,9.70188 0.31054,12.91353 -0.32126,3.3441 -1.0544,6.63487 -1.58159,9.95229 -1.93948,7.95785 -4.82986,20.78188 -7.69336,28.24481 -4.58184,11.94134 -10.87058,23.36342 -18.24839,33.76711 -7.85281,11.07344 -15.03435,18.13271 -24.18184,27.91595 -7.4227,4.979 -13.84135,11.32495 -21.13423,16.47785 -2.55788,1.80734 -5.27325,3.38198 -7.99138,4.93343 -2.24174,1.27955 -4.49982,2.55443 -6.87765,3.55352 -5.63194,2.36628 -7.79699,2.39345 -13.67898,3.38578 -3.81207,0.50463 -6.30117,1.00919 -10.06821,0.91363 -1.1584,-0.0294 -2.33931,-0.0652 -3.45618,-0.37647 -0.61564,-0.17161 -1.07772,-0.69159 -1.6166,-1.03737 6.03201,3.90861 12.064,7.8172 18.09602,11.72579 2.1147,-5.22214 -18.81336,-13.83735 -20.92808,-8.61521 v 0 c 6.17713,4.46956 12.12853,9.27464 18.53141,13.40868 0.54903,0.3545 1.29858,-0.11927 1.94712,-0.18659 4.40981,-0.45808 8.84171,-0.83553 13.10121,-2.18303 6.40624,-1.47546 7.88048,-1.42953 13.94436,-4.46186 5.88392,-2.94234 9.23875,-5.67535 14.29916,-10.00687 8.59933,-7.36068 10.70757,-9.86154 19.15397,-18.35255 3.92718,-4.44386 7.97019,-8.78639 11.78153,-13.33163 9.37781,-11.18353 15.93731,-19.65196 23.61258,-32.1503 3.30397,-5.38015 6.54742,-10.83178 9.1647,-16.58323 1.64578,-3.61659 7.90913,-23.47323 9.34497,-27.9471 2.34219,-9.13823 2.65187,-9.15833 3.84688,-17.91418 0.22883,-1.67669 0.43972,-3.36383 0.4608,-5.0562 0.0418,-3.35841 -0.79978,-6.64949 -1.90991,-9.78156 -0.21356,-0.64746 -0.37881,-1.31318 -0.64066,-1.94233 -3.40795,-8.18789 -15.54406,-11.86228 -21.10517,-15.33995 -0.32852,-0.20546 -0.72476,-0.28798 -1.10623,-0.35118 -0.315,-0.0522 -0.63843,0.006 -0.95765,0.009 -2.10322,-0.32796 -4.29735,-0.50322 -6.427,-0.46634 -0.71852,0.0127 -1.43212,0.13092 -2.1503,0.1564 -0.94677,0.0336 -1.89466,0.0139 -2.84198,0.0208 -7.32499,-0.1883 0.24148,0.0335 -8.07856,-0.3072 -3.39229,-0.1389 -6.31341,-0.15202 -9.69928,-0.4601 -1.30977,-0.11914 -2.60589,-0.36229 -3.91336,-0.50481 -0.64977,-0.0708 -1.30407,-0.09 -1.9561,-0.13503 -3.90105,4.13027 12.6513,20.02284 16.55234,15.89256 z"
       id="path30"
       style="fill:#ececec;fill-opacity:1;fill-rule:nonzero;stroke:none;stroke-width:0.203836" />
    <path
       d="m 298.22245,144.76822 c 4.97989,-0.43328 9.84693,-1.71924 14.68111,-2.92765 5.13409,-1.2834 10.12935,-2.45467 15.04516,-4.47396 2.04836,-0.84143 3.96507,-1.97762 5.94762,-2.96643 5.1783,-2.77801 4.5568,-2.23375 9.03952,-5.37066 1.11703,-0.78168 2.31142,-1.47886 3.29209,-2.42849 1.0749,-1.04087 3.13424,-4.27542 3.80053,-5.66496 0.43728,-0.91194 0.70676,-1.89638 1.06014,-2.84458 0.38847,-2.32623 0.62457,-4.75951 0.29358,-7.11545 -0.0837,-0.59638 -0.32322,-1.16299 -0.41163,-1.75872 -0.34036,-2.29329 0.5043,-0.34681 -0.79824,-2.61115 -4.29726,-7.803833 -0.96517,-2.21359 -19.98775,-13.254603 -0.474,-0.27512 -1.09028,-0.13402 -1.63688,-0.11445 -0.63629,0.0228 -1.25867,0.22084 -1.89505,0.24109 -5.0874,0.16188 -0.75986,-0.59417 -5.79031,0.5883 -4.5661,0.56312 -2.47034,0.17346 -6.86719,1.22633 -1.15641,0.27693 -2.34342,0.44875 -3.46739,0.83844 -1.21879,0.4226 -2.55313,0.74179 -3.53114,1.58811 -2.38579,2.06453 -7.56793,9.871643 -9.07325,12.024763 -4.97043,7.30753 -9.69303,14.8979 -13.26515,23.0207 -0.98315,2.2356 -1.79368,4.54631 -2.58379,6.85842 -0.68705,2.01054 -1.36455,4.03173 -1.84523,6.1023 -0.41319,1.77987 -0.55308,3.61316 -0.82962,5.41977 -0.0603,1.78776 -0.3161,6.3788 -0.0362,8.35711 0.15873,1.12226 0.58161,2.19007 0.87393,3.28469 0.22878,0.85665 0.38573,1.73646 0.68936,2.56914 1.20604,2.47935 0.75832,1.31365 1.44423,3.45588 6.27661,7.04312 3.09061,3.73171 20.72175,14.12087 0.86959,0.51239 1.98044,0.37136 2.97151,0.55231 3.80585,0.69485 7.62994,1.21798 11.4532,1.80485 3.19338,0.96911 5.92714,0.62069 9.01781,-0.36615 0.94864,-0.3029 1.9546,-0.49722 2.8155,-1.00035 1.26069,-0.73678 2.30914,-1.79274 3.47401,-2.67541 1.34125,-1.01629 2.69611,-2.01419 4.04416,-3.02129 1.30059,-1.10172 2.60117,-2.20343 3.90177,-3.30512 1.12117,-1.04293 2.20669,-2.12618 3.36349,-3.12875 2.25235,-1.95205 3.4983,-2.48057 5.34086,-4.70846 0.1526,-0.18449 2.38285,-3.71999 2.59751,-4.05906 2.19157,-3.849 0.11051,0.35948 1.23866,-3.83341 0.1523,-0.56604 0.64377,-1.01029 0.75629,-1.58575 0.1169,-0.59796 -0.10637,-1.21699 -0.0892,-1.82622 0.0969,-3.44171 0.3924,0.21331 0.007,-3.17307 -0.14042,-0.81924 0.1666,-1.62474 0.13464,-2.43803 -0.0134,-0.34126 -0.15465,-0.66704 -0.18776,-1.00694 -0.0638,-0.6567 0.10802,-1.01189 0.28166,-1.66949 1.73103,-5.51599 -20.37465,-12.56811 -22.1057,-7.05212 v 0 c 0.15374,-0.21343 0.26339,-0.46772 0.46123,-0.64034 0.0571,-0.0499 -0.0239,0.16075 0.0107,0.22818 0.15226,0.2928 0.37976,0.54066 0.53893,0.82968 0.70638,1.2827 0.57114,0.83264 0.34418,2.17729 0.0541,0.43866 0.0929,0.87955 0.16246,1.31599 0.0728,0.45684 0.23503,0.90048 0.26454,1.36222 0.0295,0.46154 -0.0715,0.92245 -0.089,1.38463 -0.0541,1.4319 -0.0156,2.80636 -0.67662,4.13317 -2.79016,2.89743 0.48511,-0.69551 -2.31595,3.13978 -0.56818,0.778 -1.24238,1.47135 -1.87222,2.19948 -2.80577,3.24374 -5.55347,6.55039 -9.23204,8.85121 -2.57446,1.60606 -4.53784,3.05372 -7.36847,4.07671 -1.80473,0.65222 -2.77603,0.44625 -4.64225,0.50921 -3.69964,0.12485 -0.95997,0.31109 -5.47066,-0.35748 -6.71206,-1.14645 -0.78834,0 -8.0049,-1.8326 -1.0304,-0.26157 -2.12826,-0.28313 -3.11582,-0.67848 -0.96841,-0.3877 -3.53924,-2.21814 -2.67055,-1.63802 16.58719,11.07729 23.15148,14.25262 15.5687,10.49989 -1.3219,-1.35443 -2.54982,-2.91768 -3.35705,-4.65405 -1.56419,-3.36466 -1.67058,-7.11399 -2.51114,-10.6782 0.53423,-3.78289 0.88635,-6.95491 1.8639,-10.7054 1.55302,-5.95837 2.6768,-8.42628 5.45243,-14.07643 1.29478,-2.6357 2.55249,-5.30133 4.08967,-7.80115 1.55853,-2.53452 3.45055,-4.84446 5.17582,-7.26668 1.69658,-1.96796 3.20323,-4.12032 5.08975,-5.90388 1.47988,-1.39912 4.95259,-3.6718 7.24544,-4.36004 1.06485,-0.31965 2.19124,-0.37234 3.28435,-0.57276 4.70086,-0.86182 1.75512,-0.52209 6.72439,-0.84826 3.61208,-0.35564 2.10673,-0.50669 5.68688,0.36012 0.50799,0.12295 1.02078,0.23689 1.51178,0.41686 0.32866,0.12041 1.2296,0.66961 0.93493,0.47978 -17.7717,-11.447383 -24.58842,-12.450293 -16.49923,-11.071103 0.65417,0.43172 0.94287,0.52594 1.37048,1.286003 0.45571,0.81 1.38928,3.82371 1.46568,4.62421 0.0649,0.67987 -0.0771,1.3638 -0.1156,2.0457 -0.1149,0.74318 -0.11667,1.51335 -0.34471,2.2295 -0.62375,1.95944 -1.50759,2.69016 -2.82603,4.24961 -0.72287,0.85503 -1.32777,1.83038 -2.17685,2.55798 -1.68166,1.44108 -6.54625,4.06432 -8.23198,5.02251 -1.94927,0.87332 -3.85729,1.84691 -5.84777,2.61995 -9.56374,3.71422 -19.9159,5.85502 -30.17067,4.72489 -3.94899,4.09395 12.45783,20.18188 16.40681,16.08793 z"
       id="path32"
       style="fill:#ececec;fill-opacity:1;fill-rule:nonzero;stroke:none;stroke-width:0.203836" />
    <path
       d="m 390.83091,122.71427 c -0.39126,0.095 -0.77181,0.26526 -1.17378,0.28492 -0.78695,0.0386 -1.57381,-0.14481 -2.36102,-0.11203 -1.05357,0.0439 -2.09702,0.22588 -3.14525,0.34148 -1.39507,0.15387 -2.8024,0.22201 -4.18461,0.46693 -1.27955,0.22671 -2.51527,0.65913 -3.78315,0.94488 -1.26262,0.28455 -2.53758,0.51038 -3.80636,0.76556 -2.0693,0.50131 -4.04284,0.7549 -5.86094,1.95602 -0.6178,0.40814 -1.09524,1.00354 -1.58652,1.5596 -1.07086,1.21204 -2.11219,2.53713 -2.1573,4.28575 -0.0263,1.01799 0.42585,1.99093 0.63877,2.98639 0.61904,1.00833 1.14562,2.0807 1.85712,3.02499 1.83785,2.43913 4.24867,4.61494 6.44048,6.69936 1.09966,1.04578 2.15585,2.14217 3.3175,3.11744 7.16556,6.01601 22.6669,14.4206 26.53196,16.77569 4.82955,1.6336 9.82196,2.63412 14.74557,3.91965 3.86461,-3.72 -11.04352,-19.46411 -14.90812,-15.7441 v 0 c -1.31024,-0.31705 -2.64124,-0.55695 -3.93073,-0.95109 -1.58642,-0.48491 -8.27872,-2.98373 -9.92777,-3.59346 4.14825,2.72238 8.2938,5.44898 12.44477,8.16719 1.42651,0.93411 -2.88584,-1.82014 -4.27139,-2.81496 -3.47245,-2.49325 -6.66425,-5.35974 -9.54381,-8.52324 -0.61986,-0.68099 -1.20199,-1.39593 -1.803,-2.09389 -0.43091,-0.33817 -0.85124,-0.69051 -1.29273,-1.01452 -0.11679,-0.0858 -0.36977,-0.0669 -0.37874,-0.21222 -0.0165,-0.26609 1.30031,-1.18586 1.4473,-1.27802 2.12952,-1.33506 1.97898,-1.02437 4.75631,-1.67095 1.07017,-0.31586 2.11137,-0.75822 3.21053,-0.94753 0.70524,-0.12143 7.25409,-0.53431 8.08337,-0.52454 1.14281,0.0136 2.27441,0.25045 3.41666,0.28906 0.66058,0.0223 1.32046,-0.14967 1.98005,-0.10671 0.51695,0.0336 1.01217,0.22302 1.51826,0.33454 4.00895,-4.0607 -12.26447,-20.3929 -16.27343,-16.33223 z"
       id="path34"
       style="fill:#ececec;fill-opacity:1;fill-rule:nonzero;stroke:none;stroke-width:0.203836" />
    <path
       d="m 349.39145,94.311474 c 6.86854,-0.466526 -9.85271,0.723372 9.81271,-1.411448 5.23663,-0.568482 10.4872,-0.844576 15.72984,-1.289648 7.79093,-0.661451 15.58155,-1.330501 23.3708,-2.029956 31.27289,-2.808305 32.38358,-2.994745 64.99128,-6.213607 65.91555,-4.037853 5.58095,-0.594114 67.17977,-3.434062 8.56012,-0.394672 17.11691,-0.921706 25.67538,-1.382536 1.65229,-2.499984 -5.5128,-11.912306 -7.16509,-9.412322 v 0 c -8.1697,0.969993 -16.33243,2.065171 -24.50914,2.909969 -17.40351,1.798065 -48.64899,4.272149 -65.47673,5.658396 -24.15613,0.89926 -44.28603,1.950866 -68.30011,1.737136 -8.50585,-0.07587 -17.00803,-0.534049 -25.51001,-0.903812 -5.78753,-0.251711 -11.57929,-0.433096 -17.35748,-0.960551 -4.09265,-0.373557 -8.14258,-1.437698 -12.23793,-1.79035 -3.25159,4.813832 10.54511,23.336597 13.79671,18.522791 z"
       id="path36"
       style="fill:#ececec;fill-opacity:1;fill-rule:nonzero;stroke:none;stroke-width:0.201204" />
    <path
       d="m 443.58093,88.562692 c -0.36157,3.43799 -0.49021,5.04709 -1.13531,8.80726 -0.44072,2.56892 -1.00917,5.114088 -1.477,7.678128 -1.93486,10.60455 -3.72115,21.23251 -5.40646,31.87974 -1.11632,7.12215 -2.72794,14.15933 -3.85014,21.2806 -0.45384,2.87992 -0.69623,5.79066 -1.13412,8.6731 -0.34068,2.24257 -0.817,4.46209 -1.20093,6.69753 -1.37032,7.97893 -0.22495,2.25213 -1.60248,8.79597 -0.18039,0.8836 -0.40852,1.75865 -0.54118,2.6508 -0.0985,0.66266 -0.0957,1.33669 -0.15101,2.00445 -0.11989,1.44834 -0.34833,2.88031 -0.0764,4.31737 -0.56294,1.33804 -0.15712,0.90153 0.25687,1.89663 0.10885,0.26161 0.0865,0.56299 0.17255,0.83301 0.71987,2.25716 0.15686,-0.345 0.60342,2.03975 0.0272,0.1811 0.25383,1.74326 0.31163,1.88525 0.16743,0.41135 0.55507,0.71595 0.68626,1.14048 0.0515,0.16675 -0.22298,0.32095 -0.18222,0.49071 0.59908,0.923 0.43775,0.44386 0.56519,1.40697 0.1162,0.131 0.23242,0.26201 0.34862,0.39301 -1.69698,5.48076 20.26755,12.39414 21.96454,6.91338 v 0 c -0.0759,-0.12863 -0.15173,-0.25728 -0.22761,-0.38591 -0.60476,-0.1716 -0.66042,-0.0768 -1.03716,-0.54882 -0.10021,-0.12549 -0.13257,-0.29974 -0.24195,-0.41715 -0.13117,-0.1408 -0.32969,-0.20402 -0.46457,-0.34119 -0.77444,-0.78758 -0.59422,-0.62177 -0.74671,-1.65419 -0.1524,-0.6589 -0.36936,-1.30308 -0.49075,-1.96847 -0.16141,-0.88463 -7e-5,-1.81161 -0.73506,-2.49823 -1.21252,-1.84612 -0.15587,0.21056 -0.15053,-1.07756 10e-4,-0.31682 -0.2063,-0.59954 -0.28069,-0.90736 -0.1234,-0.51061 -0.29696,-1.01962 -0.31199,-1.54496 -0.0181,-0.63389 0.14244,-1.26018 0.21368,-1.89028 -0.04,-0.97207 -0.08,-1.94416 -0.11998,-2.91625 0.47207,-14.1114 -0.34436,8.65 0.53042,-9.23118 0.11655,-2.38286 -0.0522,-4.78313 0.21016,-7.15418 0.31358,-2.83307 1.12646,-5.59094 1.51304,-8.41486 3.96464,-28.96164 -2.22084,8.89608 2.96056,-21.56704 1.64395,-8.6788 2.43267,-13.3438 4.40899,-21.86609 1.82018,-7.84894 2.35038,-9.13571 4.33695,-16.48029 0.47968,-1.7734 0.79579,-3.59589 1.39269,-5.33275 0.33068,-0.96216 0.917,-1.81463 1.3755,-2.721948 2.66706,-5.06212 -17.61976,-15.92758 -20.28683,-10.86543 z"
       id="path38"
       style="fill:#ececec;fill-opacity:1;fill-rule:nonzero;stroke:none;stroke-width:0.203836" />
    <path
       d="m 511.45581,108.89014 c -3.34935,0.82309 -0.0384,-0.12193 -4.24876,1.67304 -1.49434,0.63704 -3.05302,1.11431 -4.54176,1.76456 -2.4203,1.05712 -4.73629,2.35229 -7.17927,3.35497 -6.31051,2.59002 -11.05098,3.90074 -17.53784,5.90821 -22.67645,11.02684 7.73895,-3.55091 -12.11752,5.36055 -2.74488,1.2319 -8.21094,3.68152 -7.31773,7.89309 0.3055,1.44049 1.6192,2.45239 2.4288,3.6786 7.89956,4.0685 15.43823,8.94598 23.69868,12.2055 2.8284,1.11607 6.05032,0.56249 9.08309,0.72994 4.47138,0.24687 8.9505,0.32254 13.42462,0.51278 12.61968,0.53666 25.2153,1.30338 37.81674,2.15824 2.35625,0.39952 4.75596,0.59362 7.06873,1.19859 7.35937,1.92516 19.04522,14.68868 -14.02196,-9.01146 -0.4707,-0.33737 0.84825,-0.96171 0.81241,-1.54285 -0.0188,-0.30533 -0.60681,0.0627 -0.89853,0.14679 -0.75419,0.21746 -1.48718,0.50372 -2.23077,0.75556 -3.13085,1.47343 -6.47701,2.36524 -9.72238,3.51923 -1.28285,0.45617 -2.52857,1.01415 -3.81154,1.46988 -2.51469,0.89327 -6.02421,1.92887 -8.55751,2.70037 -16.50383,4.84602 7.41984,-2.0742 -9.63156,2.5041 -1.5281,0.41029 -2.99442,1.04091 -4.53124,1.41667 -1.58798,0.38829 -3.21564,0.58762 -4.82527,0.87117 -7.09855,1.25042 -1.51259,0.20023 -7.75454,1.40128 -3.43003,0.5747 -1.79812,0.43264 -4.88808,0.50783 -3.72382,4.25282 13.31963,19.42341 17.04345,15.17059 v 0 c 2.54929,-0.58432 1.18378,-0.1955 4.07271,-1.24833 1.25466,-0.16937 2.52307,-0.25591 3.76396,-0.50813 1.35915,-0.27625 2.68107,-0.71392 4.02075,-1.07419 6.38893,-1.71817 12.7156,-3.68037 19.20418,-5.00345 7.78679,-2.80113 0.83002,-0.37318 8.56121,-2.86229 1.31795,-0.42434 2.60315,-0.95466 3.93715,-1.32445 1.35142,-0.37462 2.76904,-0.48676 4.10764,-0.90556 1.06086,-0.33191 2.03831,-0.89075 3.05746,-1.3361 1.11005,-0.33162 2.22009,-0.66321 3.33014,-0.9948 0.89213,-0.41576 1.83818,-0.72987 2.67638,-1.24729 0.75157,-0.46394 5.26087,-4.19164 4.23764,-5.1572 -14.4371,-13.62336 -15.25524,-12.27752 -28.75418,-12.95143 -12.4006,-0.37185 -24.85402,-0.43508 -37.21147,-1.6618 -4.83299,-0.47978 -9.65295,-1.119 -14.44492,-1.91373 -3.23797,-0.537 -10.82626,-5.15776 -9.62621,-2.07841 1.86694,4.79064 8.24418,6.07299 12.36627,9.10949 -1.03721,-0.0114 -2.07725,0.0426 -3.11165,-0.0353 -0.51349,-0.0387 -1.55656,0.20405 -1.5132,-0.31328 0.0577,-0.68787 1.10941,-0.81026 1.64359,-1.24209 0.95633,-0.77308 1.78004,-1.72816 2.82659,-2.37153 3.61011,-2.21927 7.84825,-3.28069 11.44942,-5.50495 2.80722,-0.96059 5.62198,-1.89905 8.42166,-2.88179 2.93208,-1.0292 5.81145,-2.21455 8.77309,-3.1538 2.73946,-0.86879 5.54261,-1.51844 8.317,-2.26613 1.6945,-0.45664 3.39963,-0.87336 5.08958,-1.34686 0.97376,-0.27281 1.91685,-0.65614 2.90016,-0.89162 0.60195,-0.14418 1.22686,-0.16245 1.84029,-0.24366 3.66686,-4.36562 -13.82864,-19.30416 -17.4955,-14.93853 z"
       id="path44"
       style="fill:#ececec;fill-opacity:1;fill-rule:nonzero;stroke:none;stroke-width:0.203836" />
    <path
       d="m 172.58465,85.698595 c -0.88373,2.20425 -1.4253,3.42649 -2.10125,5.94966 -1.02799,3.83724 -3.74262,16.143735 -4.47489,19.136715 -1.03746,4.24026 -2.17772,8.45429 -3.26659,12.68141 -1.05563,4.35369 -2.11125,8.70737 -3.16688,13.06106 -1.84284,9.85385 -5.26684,19.24815 -8.49673,28.68803 -0.54708,1.59896 -0.98348,3.23812 -1.60275,4.81009 -0.26453,0.67153 -1.6482,1.51586 -1.0396,1.89739 6.35673,3.98513 13.41103,6.70814 20.11656,10.06219 0.10269,-0.93567 0.039,-1.90559 0.3081,-2.80699 0.71077,-2.3807 4.58241,-10.88946 5.3275,-12.41793 1.38007,-2.83108 2.77521,-5.65998 4.34688,-8.38764 3.89897,-6.7667 6.67601,-10.30601 11.20846,-16.62167 5.1891,-6.63924 11.23011,-12.50702 17.40073,-18.19849 1.48818,-1.37261 2.93807,-2.79403 4.51784,-4.0583 2.81175,-2.25019 4.32447,-2.94155 7.31687,-4.59242 3.23372,-4.39208 -14.36781,-17.566085 -17.60153,-13.17401 v 0 c -1.03516,0.7668 -2.12757,1.46067 -3.10543,2.30043 -0.87413,0.75065 -7.62657,7.43333 -7.93948,7.75328 -5.98692,6.12239 -11.53497,12.64286 -16.60127,19.56405 -4.09334,5.48258 -8.20863,10.84559 -12.01265,16.5422 -5.50171,8.23894 -4.45467,7.17481 -8.99455,15.19231 -4.19078,7.40097 -1.9389,2.66471 -4.60445,8.70263 6.63179,3.73161 12.89203,8.23262 19.89538,11.19483 0.81081,0.34295 0.20664,-1.76097 0.33501,-2.63797 0.25998,-1.77662 0.49795,-3.55779 0.82992,-5.32215 1.87847,-9.98424 4.44718,-19.83418 6.13714,-29.85782 3.58383,-13.82626 2.80228,-11.78107 7.24805,-25.15356 2.35621,-7.0873 4.77716,-14.35203 8.36791,-20.938335 0.3634,-0.66651 0.82061,-1.27647 1.23088,-1.91471 2.81161,-4.88557 -16.76757,-16.33985 -19.57918,-11.45428 z"
       id="path46"
       style="fill:#ececec;fill-opacity:1;fill-rule:nonzero;stroke:none;stroke-width:0.203836" />
    <path
       id="path66"
       d="m 209.78876,172.87948 c -5.09851,-1.84327 -15.13521,-7.04797 -16.86934,-8.74787 -0.92315,-0.90491 -1.66347,-2.74233 -1.66347,-4.12857 0,-3.321 2.99494,-11.53992 4.8776,-13.3854 1.44068,-1.41225 1.6794,-1.38527 5.87389,0.66367 2.40469,1.17466 5.30579,3.22337 6.44687,4.55271 l 2.0747,2.41696 -2.04478,3.50567 c -1.12462,1.92812 -2.04934,3.78438 -2.05492,4.12501 -0.0201,1.22683 5.84193,0.57941 13.16342,-1.45383 11.17093,-3.10225 23.65654,-9.3951 28.17326,-14.19957 l 3.72159,-3.95868 -7.81979,-0.23779 c -4.30089,-0.13078 -9.03965,0.0924 -10.53057,0.49592 -3.50955,0.94991 -4.98687,0.38477 -9.01702,-3.4494 -3.11492,-2.96345 -4.86529,-5.95038 -3.98985,-6.80853 0.21263,-0.20844 6.08893,-0.60844 13.05844,-0.88888 14.43778,-0.58096 13.23696,-0.94281 24.87879,7.49677 3.85355,2.7936 6.65959,5.46823 6.95747,6.63169 1.20518,4.70698 -5.02092,10.82676 -16.83607,16.54857 -7.39403,3.58077 -31.6109,12.03567 -34.18821,11.93624 -0.69498,-0.0268 -2.59039,-0.52843 -4.21201,-1.11469 z m 0.8424,-2.92534 c 0,-0.44251 -1.13723,-1.38105 -2.5272,-2.08564 -2.28579,-1.15869 -2.5272,-1.15818 -2.5272,0.006 0,0.70756 0.85293,1.62255 1.89539,2.03329 2.52897,0.99644 3.15901,1.0058 3.15901,0.0469 z m 40.04866,-32.17136 c -0.3054,-0.48439 -0.95839,-0.88071 -1.45109,-0.88071 -0.5586,0 -0.49469,0.47381 0.16974,1.25861 1.1554,1.36468 2.18801,1.06013 1.28135,-0.3779 z"
       style="fill:#ff7f2a;stroke-width:0.834043" />
    <path
       transform="scale(0.26458333)"
       id="path68"
       d=""
       style="fill:#ff7f2a;stroke-width:2.85714" />
    <path
       transform="scale(0.26458333)"
       id="path70"
       d=""
       style="fill:#ff7f2a;stroke-width:2.85714" />
    <path
       transform="scale(0.26458333)"
       id="path72"
       d=""
       style="fill:#ff7f2a;stroke-width:2.85714" />
    <path
       transform="scale(0.26458333)"
       id="path74"
       d=""
       style="fill:#ff7f2a;stroke-width:2.85714" />
  </g>
</svg>
