<?xml version="1.0" encoding="UTF-8" standalone="no"?>
<svg
   xmlns:dc="http://purl.org/dc/elements/1.1/"
   xmlns:cc="http://creativecommons.org/ns#"
   xmlns:rdf="http://www.w3.org/1999/02/22-rdf-syntax-ns#"
   xmlns:svg="http://www.w3.org/2000/svg"
   xmlns="http://www.w3.org/2000/svg"
   xmlns:sodipodi="http://sodipodi.sourceforge.net/DTD/sodipodi-0.dtd"
   xmlns:inkscape="http://www.inkscape.org/namespaces/inkscape"
   width="300mm"
   height="300mm"
   viewBox="0 0 300 300"
   version="1.1"
   id="svg8"
   inkscape:version="1.0 (4035a4fb49, 2020-05-01)"
   sodipodi:docname="rainforss.svg">
  <defs
     id="defs2" />
  <sodipodi:namedview
     id="base"
     pagecolor="#ffffff"
     bordercolor="#666666"
     borderopacity="1.0"
     inkscape:pageopacity="0.0"
     inkscape:pageshadow="2"
     inkscape:zoom="0.35"
     inkscape:cx="400"
     inkscape:cy="584.8"
     inkscape:document-units="mm"
     inkscape:current-layer="layer1"
     inkscape:document-rotation="0"
     showgrid="false"
     inkscape:window-width="1274"
     inkscape:window-height="1040"
     inkscape:window-x="78"
     inkscape:window-y="0"
     inkscape:window-maximized="0" />
  <metadata
     id="metadata5">
    <rdf:RDF>
      <cc:Work
         rdf:about="">
        <dc:format>image/svg+xml</dc:format>
        <dc:type
           rdf:resource="http://purl.org/dc/dcmitype/StillImage" />
        <dc:title />
      </cc:Work>
    </rdf:RDF>
  </metadata>
  <g
     inkscape:label="Layer 1"
     inkscape:groupmode="layer"
     id="layer1">
    <path
       style="fill:#e6e6e6;fill-opacity:1;fill-rule:nonzero;stroke:none;stroke-width:0.194851"
       id="path74"
       d="m 3.0225413,45.441173 c 2.8968619,-1.89031 6.4978873,-2.155419 9.7454157,-2.925448 10.796942,-2.560087 1.410596,-0.736957 14.390817,-2.952515 3.460123,-0.526498 6.918109,-1.068834 10.380367,-1.579493 4.0304,-0.594456 8.050982,-1.278152 12.09743,-1.735826 8.403177,-0.950445 19.461358,-1.514483 27.839904,-2.131445 22.798735,-1.678806 6.416625,-0.862849 30.070875,-1.718168 14.88496,0.161271 16.01393,-0.08668 30.49204,1.048696 4.16291,0.326456 8.32995,0.661242 12.46732,1.246194 3.32329,0.469857 6.59744,1.267368 9.89367,1.915267 9.09429,1.787554 5.43893,0.909616 13.22265,3.114264 1.09775,0.500189 5.49594,2.328919 6.6722,3.432438 1.99178,1.868611 3.20219,6.183017 3.44158,8.849307 0.11779,1.311775 0.0191,2.635196 0.0286,3.952793 -0.13041,1.362851 -0.20163,2.733446 -0.39125,4.088553 -0.19196,1.37192 -0.43642,2.737815 -0.75229,4.084014 -0.33213,1.415446 -1.45914,5.620898 -1.18934,4.190803 0.48796,-2.586562 2.2785,-5.071354 1.84547,-7.668756 -0.26751,-1.604481 -1.38662,2.960481 -2.43009,4.162224 -1.42741,1.64392 -3.25717,2.842163 -4.88575,4.263244 -2.31959,1.195251 -4.56558,2.564309 -6.95876,3.585752 -7.38158,3.150578 -10.90449,3.687462 -18.85779,5.370334 -3.95383,0.836609 -7.89724,1.748155 -11.88358,2.390834 -4.88671,0.787839 -9.81807,1.230648 -14.72087,1.898352 -5.38462,0.733325 -10.76048,1.536429 -16.14072,2.304644 -36.214424,3.539221 3.59909,-0.07035 -29.40048,2.133884 -3.775001,0.252154 -7.534876,0.712622 -11.302309,1.068934 -2.287492,-0.530614 -4.321597,9.211613 -2.034115,9.742227 v 0 c 13.630687,-2.140928 27.279284,-4.27201 41.063884,-4.981103 11.74346,-0.93418 19.0647,-1.387907 30.6537,-2.795282 3.96786,-0.481861 7.91955,-1.103048 11.87313,-1.701261 3.41265,-0.516365 6.85679,-0.866113 10.22483,-1.642371 6.33417,-1.459884 10.29078,-3.334687 16.18749,-5.75642 1.85076,-1.079524 3.90631,-1.838232 5.55226,-3.23857 4.85641,-4.131707 6.80821,-15.552421 7.98126,-19.455134 0.41399,-1.377281 0.68366,-2.799474 0.95789,-4.215012 0.93595,-4.831143 0.73472,-4.200721 0.93616,-8.999025 -0.61106,-4.203881 -0.76828,-7.484376 -3.22037,-11.071917 -0.72507,-1.060811 -1.46391,-2.17051 -2.47295,-2.930933 -1.64425,-1.239126 -6.00992,-2.120764 -7.69198,-2.553594 -1.95875,-0.345578 -3.90234,-0.806263 -5.87628,-1.036734 -2.37325,-0.277096 -16.8937,-1.118926 -18.18847,-1.201608 -14.41797,-0.920722 -28.84414,-1.897573 -43.30125,-1.589079 -5.14499,-0.0016 -10.292643,-0.178822 -15.434969,-0.0045 -4.858846,0.164673 -9.69766,0.743091 -14.551876,1.020836 -12.274234,0.702302 -15.645736,0.462657 -27.745349,1.427659 -4.012577,0.320021 -8.002327,0.918546 -12.015236,1.233866 -3.392135,0.266543 -6.795408,0.340792 -10.193108,0.511187 -2.742447,0.318794 -5.484884,0.637589 -8.227331,0.956383 -1.955559,0.05994 -3.918914,-0.01353 -5.866687,0.179797 -1.493444,0.148234 -2.943475,0.62027 -4.428696,0.842083 -0.9624679,0.143741 -1.9407836,0.134669 -2.9063188,0.253377 -3.8387914,0.471959 -0.2477837,0.25825 -2.9839446,0.38315 -3.3419611,-0.513063 -5.30879128,13.720076 -1.9668207,14.233139 z" />
    <path
       style="fill:#e6e6e6;fill-opacity:1;fill-rule:nonzero;stroke:none;stroke-width:0.194851"
       id="path76"
       d="m 96.563139,37.691612 c 0.213116,0.821388 0.567514,2.066091 0.583096,2.852011 0.02583,1.302783 -0.553005,10.370374 -0.572528,10.604346 -0.23881,2.863061 -0.574161,5.716265 -0.857676,8.574792 -0.423744,4.272373 -0.842727,8.545268 -1.264088,12.817902 -1.757066,20.831366 -0.70907,9.999562 -3.175332,32.191737 -0.644767,5.8018 -1.217214,11.61303 -1.933218,17.40554 -0.728624,5.89463 -1.668322,11.75881 -2.400307,17.65297 -6.686296,53.84008 3.009962,-19.91363 -4.167135,34.0096 -0.761127,5.25477 -1.522244,10.50954 -2.283361,15.76431 -0.572139,4.43531 -1.077771,8.88072 -1.716397,13.30593 -0.574703,3.98224 -1.328185,7.93399 -1.923085,11.91292 -1.220402,8.16243 -2.164297,16.38139 -3.210097,24.57051 -0.438244,3.45504 -0.466911,6.94356 -0.754993,10.41062 -0.11969,1.44049 -0.323795,2.87202 -0.457111,4.31118 -0.342662,1.97857 -0.196907,3.9934 -0.37564,5.98328 -0.07463,0.8305 -0.224159,1.65158 -0.336243,2.47737 0.05165,1.20496 -0.284189,2.36921 -0.35908,3.55992 -0.02193,0.34888 0.06723,0.69922 0.0433,1.04796 -0.06504,0.9487 -0.363799,1.76923 -0.229961,2.72236 -0.01966,0.0991 -0.03931,0.19827 -0.05897,0.29742 2.785186,1.85833 9.909089,-10.00352 7.123903,-11.86185 v 0 c 0.0244,-0.13567 0.0489,-0.27132 0.07331,-0.40699 -0.120668,-2.2445 0.154025,-4.47033 0.296353,-6.70967 0.513143,-7.28266 0.480023,-14.59328 1.169127,-21.86656 0.469626,-4.68368 0.838286,-9.37832 1.319459,-14.0607 0.407089,-3.96149 1.945275,-16.55278 2.34604,-19.91095 2.336308,-19.57652 0.772085,-7.00996 3.505216,-28.28583 2.445942,-20.30005 1.555716,-13.36869 4.299815,-34.2244 0.770575,-5.85652 1.628751,-11.70067 2.330865,-17.56674 0.688144,-5.74937 1.191471,-11.52181 1.839532,-17.276347 0.808547,-7.17967 3.127639,-26.140296 4.033068,-33.591597 1.421099,-10.188329 1.974679,-13.709642 3.093409,-23.055014 0.28738,-2.400641 0.62009,-4.797451 0.805,-7.209265 0.22031,-2.873368 -0.0343,-5.79134 0.34151,-8.65881 -2.86741,-1.859349 -9.995203,10.352698 -7.127798,12.212045 z" />
    <path
       style="fill:#e6e6e6;fill-opacity:1;fill-rule:nonzero;stroke:none;stroke-width:0.194851"
       id="path78"
       d="m 92.346647,137.27979 c 0.214344,-0.0352 0.43719,-0.0335 0.643028,-0.1057 0.309249,-0.10846 0.577118,-0.32822 0.888028,-0.43126 0.324961,-0.10771 0.67183,-0.12061 1.004864,-0.1961 4.690363,-1.06309 -2.443112,0.41792 2.764648,-0.47199 0.622247,-0.10634 1.2325,-0.27979 1.848745,-0.41968 2.39751,0.008 4.70558,-0.80275 7.08176,-0.98899 0.72755,-0.057 1.45926,0.0319 2.18862,0.0143 5.06844,-0.12238 -0.83964,-0.13557 3.45071,-0.10103 0.56664,0.0395 1.80787,0.0796 2.38379,0.28902 0.31617,0.11498 0.55536,0.41153 0.87343,0.52048 0.26141,0.0895 0.575,-0.0653 0.82261,0.0605 0.27807,0.14127 0.42982,0.46746 0.6549,0.69011 0.23857,0.23599 0.49025,0.4568 0.73537,0.68519 0.51937,0.4636 1.36101,1.13418 1.7,1.77729 0.25459,0.483 0.28349,1.07263 0.52782,1.56148 0.23895,0.47809 0.61467,0.86531 0.90698,1.30923 1.16667,1.77185 0.80505,1.16482 1.59815,3.22382 1.21067,4.63081 1.50941,9.42087 1.5776,14.20041 0.14297,3.27866 -0.0224,6.56183 0.0366,9.84093 0.0211,1.17013 0.13235,2.33759 0.14052,3.5079 0.0195,2.78441 -0.11286,5.56769 -0.16409,8.35165 -0.19372,4.64261 -0.2594,9.29468 -0.54344,13.93302 -0.10574,1.72675 -0.29449,3.44715 -0.39887,5.17401 -0.66024,10.92347 0.36153,-1.98816 -0.57864,9.16453 -0.8719,8.5615 -1.94123,17.11588 -3.29213,25.60996 -0.82829,6.91533 0.2552,-1.54243 -0.90446,5.66562 -0.11509,0.71528 -0.14984,1.44251 -0.24145,2.16155 -0.23116,1.81448 -0.55727,3.60667 -0.74924,5.42657 -0.16569,1.491 -0.36563,2.97806 -0.70312,4.4337 -0.36828,1.58848 -0.31531,0.5227 -0.31369,1.64824 -0.0588,0.29118 -0.15209,0.57693 -0.17619,0.87352 -0.0164,0.20236 0.0816,0.40513 0.0559,0.60643 -0.0366,0.28725 -0.16631,0.55265 -0.23901,0.83216 -0.21867,0.84075 -0.44226,1.65496 -0.56362,2.51894 -0.11652,2.10379 0.0827,-0.61351 -0.33886,2.1439 -0.0481,0.31458 -0.007,0.63913 -0.05,0.95446 -0.15039,1.0916 -0.44116,2.17047 -0.76061,3.21671 -1.28322,6.69313 0.78485,-14.75116 3.43461,-10.73699 -3.31939,-0.20093 -4.08965,13.93612 -0.77025,14.13705 v 0 c 3.83507,-3.5455 4.25922,-9.84627 4.81916,-15.08347 0.255,-1.03174 0.37062,-2.0226 0.51729,-3.07339 0.0524,-0.37554 0.15113,-0.74411 0.18386,-1.12211 0.023,-0.26562 -0.0655,-0.53811 -0.0174,-0.79998 0.0771,-0.42002 0.25851,-0.81111 0.38777,-1.21667 0.16971,-0.59146 0.40498,-1.30183 0.47745,-1.92894 0.10633,-0.92005 0.0759,-1.86997 0.2607,-2.78595 0.24421,-0.81875 0.50882,-1.75851 0.56195,-2.62152 0.0161,-0.26186 -0.0908,-0.52267 -0.068,-0.78397 0.0816,-0.93223 0.45827,-1.81992 0.44566,-2.76897 0.16777,-2.56972 -0.0222,-0.21589 0.34574,-3.17447 0.11992,-0.96426 0.29554,-3.04334 0.43779,-3.94798 0.14998,-0.95384 0.41066,-1.8872 0.53631,-2.84494 0.11136,-0.84882 0.11554,-1.70945 0.17331,-2.56417 1.20506,-8.47299 2.13572,-16.97965 3.0117,-25.49595 0.17435,-3.08919 0.44298,-6.17253 0.58089,-9.26378 0.0689,-1.54638 0.0326,-3.09644 0.0924,-4.64325 0.18703,-4.83443 0.68751,-9.65088 0.76779,-14.4909 0.0365,-2.26234 0.10891,-6.04607 0.10097,-8.33129 -0.005,-1.22071 -0.0709,-2.44096 -0.0593,-3.66161 0.0122,-1.27089 0.13103,-2.53942 0.13051,-3.81036 -8.6e-4,-2.06601 -0.32421,-4.12502 -0.15602,-6.19585 -0.10773,-2.06839 -0.11055,-4.14283 -0.25561,-6.20869 -0.0581,-0.82737 -0.19499,-1.64649 -0.29783,-2.46899 -0.10505,-0.84018 -0.13892,-1.69479 -0.32582,-2.51902 -0.15138,-0.6676 -1.16312,-3.18451 -1.42393,-3.85063 -0.26442,-0.61579 -0.49305,-1.25008 -0.79325,-1.84737 -1.06287,-2.11463 -0.80291,-1.18249 -1.96458,-3.13248 -0.30565,-0.51306 -0.47628,-1.11583 -0.83111,-1.59244 -0.56332,-0.75666 -1.59448,-1.04127 -1.97202,-2.0013 -0.3308,-0.35683 -0.62484,-0.75616 -0.9924,-1.07049 -1.79265,-1.53299 -4.13957,-1.72335 -6.34837,-1.80298 -1.23166,10e-4 -2.37742,-0.0241 -3.61082,0.0957 -0.76617,0.0744 -1.52334,0.23259 -2.28861,0.31652 -2.38649,0.26173 -4.77878,0.43953 -7.14063,0.92532 -0.58801,0.0116 -1.17976,-0.0359 -1.76405,0.0347 -0.978737,0.1183 -1.900289,0.60408 -2.882071,0.68979 -0.353354,0.0309 -0.703708,-0.11673 -1.058259,-0.11331 -0.563089,0.005 -1.113721,0.23847 -1.683849,0.14326 -3.27101,-0.63346 -5.699371,13.29751 -2.428356,13.93097 z" />
    <path
       style="fill:#e6e6e6;fill-opacity:1;fill-rule:nonzero;stroke:none;stroke-width:0.194851"
       id="path80"
       d="m 146.00934,114.35677 c 1.48874,-0.1032 2.94196,-0.48507 4.42076,-0.66347 1.21738,-0.14687 2.44504,-0.18227 3.66356,-0.31819 1.47471,-0.1645 2.93626,-0.45642 4.41435,-0.58288 2.60429,-0.22283 5.8333,-0.17483 8.46041,-0.17751 2.02048,0.87031 4.35881,0.14955 6.40608,0.84919 2.50273,0.85529 4.50504,3.72 5.4903,6.13753 0.43644,1.07089 0.65488,2.22649 0.98233,3.33974 0.17148,1.11517 0.44747,2.21798 0.51444,3.34548 0.0952,1.60321 -0.17796,5.06482 -0.54248,6.66927 -0.28289,1.24518 -1.39923,4.90088 -1.1248,3.6536 1.88359,-8.56074 3.83059,-11.63895 0.5298,-5.40403 -1.35199,2.18384 -2.1477,3.72591 -3.89022,5.57573 -0.62954,0.6683 -1.36579,1.21554 -2.07276,1.79144 -0.74098,0.60363 -1.46295,1.24385 -2.26935,1.74575 -1.36614,0.85025 -3.23401,1.43826 -4.71707,1.97596 -0.77388,-0.0763 -3.89369,-0.34833 -4.64442,-0.56615 -0.74407,-0.21589 -1.42082,-0.63561 -2.13029,-0.95577 -0.68296,-0.3082 -1.40588,-0.53361 -2.04699,-0.92928 -1.18,-0.72826 -2.04351,-1.74556 -2.99573,-2.74296 -0.67853,-1.02779 -1.8486,-2.12855 -1.62711,-3.54112 0.0576,-0.36748 0.50165,-1.38945 0.41434,-1.02853 -2.6872,11.10853 -4.51728,15.30082 -2.19114,9.66338 0.56662,-0.45923 1.098,-0.97131 1.69985,-1.37769 3.75233,-2.53357 7.89527,-4.46012 12.17306,-5.75177 1.56393,-0.47223 3.17055,-0.77028 4.75583,-1.15542 2.9049,0.56159 5.05775,-11.81016 2.15284,-12.37174 v 0 c -6.52682,2.12013 -3.24413,1.12475 -9.84814,2.9858 -1.48555,0.48152 -2.93033,1.09305 -4.39701,1.63502 -1.11046,0.41032 -2.2545,0.72915 -3.33439,1.22184 -0.83236,0.37977 -1.588,0.92418 -2.382,1.38627 -0.54729,0.43343 -1.39906,0.62565 -1.64189,1.3003 -3.14996,8.75154 -6.20215,11.34528 -2.76679,17.13328 0.28479,0.47982 0.56284,0.97066 0.91743,1.39568 0.3811,0.45678 0.85066,0.82226 1.27599,1.23338 2.25864,1.68674 1.12107,0.92702 3.68651,2.44775 0.77024,0.45657 1.4999,1.00066 2.31295,1.36559 2.59278,1.16377 5.43511,1.40416 8.21405,1.28602 0.97382,-0.16881 1.96816,-0.23722 2.92144,-0.50642 2.81708,-0.79553 5.57487,-2.60158 7.67151,-4.71236 1.62556,-1.6365 3.02785,-3.70351 4.39102,-5.56999 4.52235,-7.40888 2.45213,-3.45377 6.94201,-18.50133 0.86761,-2.90774 1.0478,-7.67684 0.61498,-10.67189 -0.18103,-1.25275 -0.55069,-2.46704 -0.82603,-3.70056 -0.4466,-1.19851 -0.75498,-2.46502 -1.33979,-3.59553 -1.4011,-2.70848 -4.69378,-5.95423 -7.51252,-6.93431 -1.63232,-0.56756 -5.42333,-0.43845 -7.00001,-0.44829 -1.62587,0.0321 -7.01218,0.13131 -8.54057,0.19172 -1.45892,0.0577 -2.91671,0.14548 -4.37404,0.23745 -1.22773,0.0775 -2.45097,0.25726 -3.68083,0.27087 -1.42742,0.0158 -2.8436,-0.35433 -4.27625,-0.24356 -3.19629,-0.744284 -6.0495,12.86842 -2.85322,13.61271 z" />
    <path
       style="fill:#e6e6e6;fill-opacity:1;fill-rule:nonzero;stroke:none;stroke-width:0.194851"
       id="path82"
       d="m 198.21395,97.124711 c 0.63953,1.538816 1.92822,2.537587 3.09443,3.609239 2.88563,1.30991 7.90718,-10.979749 5.02155,-12.289666 v 0 c -1.05268,-1.272198 -2.07272,-2.540756 -2.83445,-4.038104 -2.98633,-1.377731 -8.26785,11.3408 -5.28153,12.718531 z" />
    <path
       style="fill:#e6e6e6;fill-opacity:1;fill-rule:nonzero;stroke:none;stroke-width:0.194851"
       id="path84"
       d="m 201.25198,122.43236 c 0.0864,3.1834 -0.40195,6.36233 -0.60239,9.53402 -0.16321,2.58289 -0.22197,5.172 -0.35126,7.75704 -0.56971,6.80925 -0.98121,13.65376 -2.60188,20.29711 2.63027,1.86978 9.79804,-9.33233 7.16778,-11.2021 v 0 c 0.29534,-2.59174 0.15935,-1.20017 0.3872,-4.1769 0.25692,-2.48226 0.68906,-4.94256 0.9278,-7.42683 0.12992,-1.35198 0.17711,-2.71137 0.26566,-4.06706 0.14176,-1.45001 0.28351,-2.90001 0.42526,-4.35002 0.13089,-2.71063 0.22278,-5.17835 0.46044,-7.88011 0.31104,-3.53612 0.87247,-7.04772 0.99383,-10.60238 -2.84514,-1.84491 -9.91758,10.27232 -7.07244,12.11723 z" />
    <path
       style="fill:#e6e6e6;fill-opacity:1;fill-rule:nonzero;stroke:none;stroke-width:0.194851"
       id="path86"
       d="m 222.73406,109.83042 c 0.004,0.38456 0.029,2.43032 0.0142,2.63159 -0.0555,0.759 -0.19907,1.50817 -0.28005,2.26462 -0.31387,2.93131 -0.6808,5.84035 -0.90621,8.78199 -0.18061,1.22833 -0.40186,2.4508 -0.54183,3.68501 -0.13516,1.19169 -0.1887,2.39209 -0.28303,3.58814 -0.14069,1.28312 -0.26651,2.56814 -0.42205,3.84936 -0.43016,3.54335 -1.10956,7.02435 -1.65593,10.54733 -0.20734,2.81368 -1.2079,5.4527 -1.71811,8.19668 -0.12664,0.6811 -0.20384,1.37144 -0.31561,2.05541 -0.33445,1.27 0.10569,1.25746 -0.21563,2.56061 -0.10966,0.44472 -0.14581,0.44488 -0.36813,0.72535 2.15299,-4.15091 4.30601,-8.30181 6.45902,-12.45272 0.009,-0.26004 0.0447,-0.52068 0.0259,-0.78012 -0.154,-2.1261 -0.17705,-0.15818 -0.46009,-2.50915 -0.30402,-2.52515 -0.10341,-5.04808 0.10486,-7.56652 0.38242,-2.12862 0.22419,-4.31668 0.51443,-6.45372 0.15324,-1.12827 1.09415,-5.4685 1.38057,-6.66362 0.21712,-0.90586 0.96523,-3.59589 0.7068,-2.70215 -0.91844,3.17637 -1.79136,6.36716 -2.68703,9.55074 0.91719,-2.94707 1.95125,-5.87556 3.54627,-8.50202 0.7752,-1.2765 1.65497,-2.4793 2.45586,-3.73806 1.07793,-1.18776 1.98483,-2.51401 3.02992,-3.7314 0.42787,-0.49843 0.9093,-1.15638 1.5052,-1.47235 0.22658,-0.12014 0.49319,-0.12505 0.73979,-0.18757 0.44477,-0.17575 2.18311,-0.88483 2.52605,-0.90837 0.4407,-0.0302 0.86275,0.19947 1.29434,0.29816 0.76817,0.17566 1.52019,0.44144 2.29915,0.55242 0.35631,0.0508 0.71888,0.0192 1.07832,0.0288 0.95977,0.27796 1.72886,0.91353 2.53831,1.48554 0.23143,0.16355 0.48724,0.2916 0.70082,0.48022 0.49155,0.43415 0.90395,0.95978 1.37603,1.41732 0.31346,0.11894 0.685,0.13135 0.94041,0.35683 0.28338,0.25018 0.35828,0.68563 0.58706,0.99166 1.94131,2.59676 -0.43096,-0.90908 1.25063,1.25378 0.19633,0.25252 0.63358,1.10392 0.80224,1.42256 0.14804,0.16125 0.35612,0.27942 0.44409,0.48374 0.11432,0.26552 0.0713,0.5794 0.13573,0.86296 0.0367,0.16189 0.12582,0.30669 0.1666,0.46752 0.048,0.18893 0.0423,0.39105 0.0984,0.57746 0.0636,0.21135 0.21563,0.38984 0.25815,0.60698 0.0563,0.28739 0.0219,0.58644 0.033,0.87965 0.3914,1.72251 -0.10012,-0.64207 0.151,1.4176 0.0213,0.17478 0.1412,0.32882 0.14882,0.50486 0.0141,0.3259 -0.084,0.6484 -0.0847,0.97464 -0.002,0.51761 0.0814,1.03282 0.0817,1.55043 0.12991,1.06304 -0.0993,2.12028 -0.0763,3.18475 0.008,0.37636 0.0865,0.74864 0.094,1.12501 0.0205,1.03563 -0.0582,2.07082 -0.0873,3.10623 0.2133,1.59519 0.006,3.14821 -0.14353,4.72833 -0.12422,1.31712 -0.16499,2.61924 -0.32858,3.93478 -0.16167,1.10292 -0.3461,2.13191 -0.36908,3.25411 -0.01,0.46378 0.0993,0.92604 0.0766,1.38931 -0.0312,0.63951 -0.19452,1.26593 -0.23792,1.90466 -0.0327,0.48094 0.008,0.96432 0.0103,1.44648 -0.0379,0.50828 -0.0757,1.01657 -0.11354,1.52485 -0.0442,1.2851 0.20315,2.58299 0.0286,3.86652 -0.0136,0.0997 -0.3883,1.37078 -0.4025,1.41951 -0.077,0.70924 -0.0553,0.35913 -0.0683,1.05011 2.73896,1.89032 9.98549,-9.77463 7.24655,-11.66496 v 0 c 0.25861,-0.91933 0.27166,-0.52208 0.1534,-1.18146 0.0207,-0.23937 0.13882,-1.56667 0.13472,-1.70084 -0.006,-0.19596 -0.0972,-0.37997 -0.11862,-0.57472 -0.10708,-0.97307 0.0796,-1.94869 -0.0541,-2.92128 0.17636,-3.09133 0.23691,-6.18915 0.77371,-9.24234 0.0231,-2.00836 0.42336,-3.99507 0.3999,-6.00966 -0.005,-0.45395 -0.13582,-0.9005 -0.13503,-1.35448 0.002,-0.61715 0.0937,-1.23035 0.14062,-1.84552 -0.0353,-0.49815 -0.17181,-2.20508 -0.14644,-2.71352 0.0274,-0.55039 0.17183,-1.08971 0.19865,-1.64013 0.0461,-0.94583 -0.14005,-1.93537 -0.18507,-2.87902 0.0288,-0.72312 0.0877,-2.16501 -0.0742,-2.86488 -0.0457,-0.19757 -0.22301,-0.33595 -0.29636,-0.52405 -0.17286,-0.44331 -0.25661,-1.15434 -0.32833,-1.60446 -0.65112,-1.52025 0.0331,0.22744 -0.41794,-1.46722 -0.2877,-1.08084 -1.12045,-1.82001 -1.6113,-2.79582 -0.186,-0.26763 -0.84593,-1.25386 -1.0944,-1.46284 -0.23662,-0.199 -0.56459,-0.24943 -0.80459,-0.44387 -0.74257,-0.60156 -1.51128,-1.72782 -2.24309,-2.37896 -1.63556,-1.62358 -3.55388,-2.821454 -5.74203,-3.433186 -0.40054,-0.185673 -0.77972,-0.434736 -1.20163,-0.557018 -0.4556,-0.132046 -0.93691,-0.130294 -1.40498,-0.198456 -2.37756,-0.346225 -0.56474,-0.166956 -3.07726,-0.228198 -0.5376,-0.0131 -1.07705,-0.129497 -1.61185,-0.07034 -0.58336,0.06453 -1.14,0.291865 -1.71,0.437797 -0.38314,0.05289 -0.78006,0.03902 -1.14942,0.158657 -2.04835,0.66347 -4.20334,3.902584 -5.45363,5.597234 -2.90473,3.66269 -5.5557,7.58415 -6.86812,12.21282 -1.42717,4.92821 -2.93017,9.83272 -4.28151,14.78463 -0.22768,0.8343 -0.28774,1.70975 -0.45184,2.56047 -0.21399,1.10929 -0.49407,2.20448 -0.68233,3.31894 -0.56706,3.35699 -0.62565,6.75601 -0.96441,10.13965 -0.0652,1.8759 -0.19446,4.04854 -0.0685,5.94091 0.0447,0.67147 0.20714,1.32923 0.27347,1.99871 0.0662,0.66719 0.0204,1.34629 0.12355,2.00826 0.12903,0.82828 0.53712,1.67633 0.85901,2.43539 2.31549,-3.93163 4.70196,-7.8178 6.94646,-11.7949 0.0668,-0.11828 -0.0539,-0.27057 -0.0596,-0.40806 -0.0399,-0.96428 0.238,-1.91454 0.31003,-2.87055 0.34729,-2.38077 -0.21714,1.2486 0.47838,-2.11439 0.0788,-0.38122 0.09,-0.77472 0.1487,-1.15995 0.31869,-2.09336 0.60856,-4.18903 0.94856,-6.27954 1.09283,-7.1778 -0.12736,1.11389 0.84051,-6.40455 0.0946,-0.73462 1.07335,-7.42357 1.15391,-8.1041 0.14202,-1.19965 0.21361,-2.40745 0.33099,-3.61006 0.11284,-1.15578 0.23977,-2.30999 0.35966,-3.46499 0.4796,-3.20452 0.56691,-3.52678 0.88762,-6.58799 0.0894,-0.85318 0.11005,-1.71476 0.23167,-2.5635 0.13402,-0.93526 0.40558,-1.84507 0.53425,-2.78117 0.13451,-0.97873 0.008,-1.985163 0.21427,-2.958231 -2.80563,-1.901571 -10.09528,10.047391 -7.28965,11.948961 z" />
    <path
       style="fill:#e6e6e6;fill-opacity:1;fill-rule:nonzero;stroke:none;stroke-width:0.194851"
       id="path90"
       d="m 124.31579,217.2981 c 3.90338,-0.47978 7.81366,-1.02765 11.74123,-1.24098 1.82965,-0.0994 3.6644,-0.0402 5.49517,-0.11301 7.83719,-0.31173 2.24637,-0.47091 9.24444,-0.0652 3.77192,0.78509 7.5908,0.10031 11.38946,0.26779 1.31146,0.0578 2.61355,0.26049 3.92034,0.39073 2.86,0.77921 5.84707,-11.40129 2.98708,-12.1805 v 0 c -1.30842,-0.17153 -2.61218,-0.38871 -3.92526,-0.51459 -3.86664,-0.37066 -7.71754,-0.17969 -11.59191,-0.20601 -17.9523,1.07845 10.84668,-0.52131 -9.30092,0.11031 -1.86683,0.0585 -3.71885,0.38687 -5.58439,0.48068 -3.71415,0.18676 -7.59324,0.26023 -11.25729,-0.5137 -3.18963,-0.81334 -6.30759,12.77107 -3.11795,13.58442 z" />
    <path
       style="fill:#e6e6e6;fill-opacity:1;fill-rule:nonzero;stroke:none;stroke-width:0.194851"
       id="path92"
       d="m 143.76939,240.47658 c 0.0214,0.22045 0.0688,0.43978 0.0642,0.66133 -0.007,0.34552 -0.0796,0.68655 -0.0988,1.03157 -0.1473,2.64941 -0.23646,5.31963 -0.21281,7.97194 0.16078,0.64489 0.35437,1.28169 0.48238,1.9347 0.1591,0.81162 0.1989,1.64717 0.37798,2.45416 0.39648,1.78666 0.76547,2.41069 1.45606,4.05192 0.25613,0.60872 0.41199,1.2742 0.75959,1.83022 0.30062,0.48085 0.76833,0.81891 1.1525,1.22839 2.18772,1.44807 4.54338,2.17614 7.13874,2.21564 1.00543,0.0152 2.00336,-0.18852 3.00701,-0.25353 1.65718,-0.10733 3.31781,-0.14361 4.97664,-0.21711 2.7119,-0.35512 1.08871,0.1008 3.49952,-1.17915 0.4302,-0.2284 0.95732,-0.29095 1.31549,-0.63045 0.46199,-0.4379 0.85519,-0.99889 1.05693,-1.61831 4.22172,-12.96199 3.91773,-9.53361 4.17189,-16.39053 -0.34363,-1.52704 -0.33472,-3.11674 -0.6431,-4.64853 -0.21739,-1.0798 -1.16586,-4.05557 -1.56733,-5.02849 -0.60335,-1.46218 -1.47812,-2.89707 -2.25588,-4.25902 -0.40809,-0.64693 -0.7079,-1.38645 -1.22427,-1.9408 -2.24987,-2.41537 -4.99184,-2.36161 -7.93877,-2.37316 -4.04528,-0.0159 -2.89599,-0.0363 -6.84939,0.57673 -0.99512,0.31818 -1.99023,0.63636 -2.98534,0.95454 -3.00998,-0.58353 -5.24691,12.23566 -2.23695,12.81919 v 0 c 0.92281,-0.33174 1.84564,-0.66347 2.76845,-0.99521 1.00474,-0.13603 2.00845,-0.28073 3.01421,-0.40811 2.46554,-0.31226 3.43853,-0.67335 5.80386,0.0268 0.62898,0.18617 1.19094,0.56991 1.76304,0.9024 0.46488,0.27017 0.98724,0.48707 1.34276,0.9026 0.42985,0.50238 0.62889,1.17951 0.94333,1.76927 0.36002,0.54628 0.78773,1.04936 1.08006,1.63883 0.35403,0.71389 0.58876,1.48752 0.84642,2.24589 1.00826,2.96749 1.52422,6.09105 1.19227,9.24261 -1.56786,6.53626 -0.0217,-0.13497 2.92359,-8.75023 0.16011,-0.46834 -0.0724,1.00108 -0.21211,1.4766 -0.0938,0.31935 -0.26996,0.61448 -0.47678,0.86792 -1.01724,1.24652 -1.13102,1.03093 -2.64731,1.54892 -0.72402,0.1764 -1.43639,0.41859 -2.17206,0.5292 -0.75755,0.1139 -4.60251,0.29954 -5.29228,0.25186 -0.79126,-0.0547 -1.56708,-0.25991 -2.34478,-0.42317 -0.58458,-0.1227 -1.20898,-0.14907 -1.74008,-0.4343 -0.38781,-0.20826 -0.60585,-0.65881 -0.90878,-0.98822 -0.3062,-0.48757 -1.25827,-1.95572 -1.43824,-2.45599 -0.22826,-0.63451 -0.28809,-1.32314 -0.45639,-1.97814 -0.15426,-0.60042 -0.38364,-1.17934 -0.51095,-1.78675 -0.41451,-1.97764 -0.30542,-2.39415 -0.31111,-4.46012 -0.0311,-2.06397 0.006,-4.10589 0.21081,-6.16173 0.0634,-0.6356 0.21232,-1.26207 0.2406,-1.90048 0.14199,-3.20435 -0.48152,1.33354 0.0557,-2.05128 -2.86449,-1.85745 -9.98504,10.34218 -7.12055,12.19964 z" />
    <path
       style="fill:#e6e6e6;fill-opacity:1;fill-rule:nonzero;stroke:none;stroke-width:0.194851"
       id="path94"
       d="m 180.06102,233.76601 c 0.0807,1.00126 0.11449,1.505 0.23569,2.56389 0.0775,0.67723 0.20268,1.34883 0.25408,2.02882 0.23434,3.10062 0.13855,6.22296 0.0433,9.32572 -0.34159,4.84977 -0.64595,9.71225 -1.3252,14.5257 -0.0294,1.20054 0.0513,1.08861 -0.26798,2.20933 -0.0748,0.26279 -0.34841,1.03355 -0.27614,0.76997 1.15089,-4.19786 2.23079,-8.41965 3.51268,-12.57511 0.0462,-0.14967 0.27317,-0.20467 0.41848,-0.16844 0.85259,0.21251 1.65868,0.59528 2.48802,0.89293 0.13411,-0.11391 0.30578,-0.19138 0.40232,-0.34174 0.25526,-0.39751 0.1661,-0.81352 0.22596,-1.25449 0.12342,-0.90927 0.40888,-1.77205 0.72786,-2.62038 -7.94823,27.60302 -0.78215,2.76455 0.54553,-2.06438 0.58596,-2.13118 0.26652,-1.52504 0.51438,-3.58583 0.72392,-6.01889 -0.0516,2.06295 0.48286,-3.83956 0.12815,-0.70749 0.21267,-1.42533 0.38445,-2.12247 0.19028,-0.77224 0.90782,-3.04423 0.69964,-2.27714 -0.90418,3.3316 -2.08606,6.58639 -2.78793,9.97174 -0.15556,0.75032 0.70872,-1.34568 1.12952,-1.97271 2.17096,-3.2349 1.8419,-2.5998 4.7813,-5.12265 3.79648,-2.85332 1.52758,-1.26117 5.1533,-3.58816 0.68666,-0.44071 1.3344,-0.95369 2.05173,-1.33631 0.51684,-0.27567 1.08797,-0.41957 1.63221,-0.62864 0.43737,-0.16802 0.86031,-0.38655 1.31262,-0.50264 0.29665,-0.0761 0.60908,-0.0458 0.91361,-0.0687 0.98939,0.46247 1.20897,-0.15813 2.31281,0.18083 3.07054,1.03135 7.0242,-12.04585 3.95366,-13.0772 v 0 c -0.21183,-0.117 -0.40661,-0.27787 -0.63547,-0.35099 -0.90823,-0.29018 -1.94224,-0.18753 -2.86525,-0.37844 -1.1759,0.21048 -1.89365,0.27535 -3.03928,0.77957 -0.66762,0.29383 -1.28491,0.70133 -1.93006,1.04641 -0.70995,0.37974 -1.44523,0.70936 -2.13521,1.12801 -2.04484,1.24073 -3.47698,2.42334 -5.40738,3.89632 -2.06555,1.42139 -3.90761,2.49955 -5.61961,4.40998 -0.62445,0.69684 -1.25709,1.44707 -1.5833,2.34182 -2.34404,6.42941 -4.43518,12.39129 -5.37225,19.02312 -0.28626,1.89686 -0.50219,3.81222 -0.9216,5.68363 -0.126,0.56219 -0.59321,2.22405 -0.42889,1.67296 1.79334,-6.01418 7.71681,-26.63242 -0.59083,2.20075 -0.37913,2.18354 -0.83504,3.41104 0.12711,5.53219 0.89075,0.28229 1.7667,0.62296 2.67226,0.84683 0.19382,0.0479 0.53172,0.15974 0.5961,-0.0389 1.70046,-5.24398 4.15535,-10.54446 3.81348,-16.15545 0.42427,-4.6938 0.76626,-9.38795 0.86348,-14.10539 0.0404,-1.1929 0.13567,-2.38513 0.12113,-3.5787 -0.0128,-1.04702 -0.14924,-2.08847 -0.20298,-3.13405 -0.14519,-2.82552 -0.10712,-5.66316 -0.55588,-8.46292 -2.89296,-1.67583 -9.31728,10.64501 -6.42432,12.32085 z" />
    <path
       style="fill:#e6e6e6;fill-opacity:1;fill-rule:nonzero;stroke:none;stroke-width:0.194851"
       id="path100"
       d="m 228.92751,213.61233 c -0.2105,0.27769 -0.4043,0.57041 -0.6315,0.83306 -1.25856,1.45501 -1.13228,1.03291 -2.5033,2.6962 -1.85614,2.25184 -3.49354,4.72704 -5.18381,7.11603 -1.54278,2.34023 -2.97331,4.75605 -4.3341,7.21503 -0.17256,0.31183 -0.45283,0.57105 -0.54328,0.91923 -1.21798,4.68803 -2.2466,9.42845 -3.36989,14.14266 0.58979,0.47063 1.09625,1.08852 1.76938,1.41188 0.88064,0.42302 1.87089,0.523 2.80596,0.78598 8.61261,2.4223 -2.38664,-0.56631 6.03873,1.42015 0.24486,0.0578 3.94112,1.16252 4.47309,1.32108 0.27072,0.28719 0.80118,0.45688 0.81215,0.86156 0.01,0.36178 -0.82884,1.07873 -0.76918,0.72228 0.62586,-3.73967 2.20024,-7.29855 2.50305,-11.08253 0.0651,-0.81402 -1.13716,1.11288 -1.74572,1.61875 -2.03845,1.69453 -4.18025,3.24621 -6.26323,4.87947 -12.16851,6.33091 5.20235,-2.7966 -6.23261,3.49658 -0.79716,0.43873 -1.63495,0.79002 -2.45242,1.18504 -3.12208,-0.44824 -4.84038,12.84845 -1.71831,13.29667 v 0 c 2.82493,-2.06479 5.67633,-4.09234 8.84945,-5.53687 1.1323,-0.71222 2.26459,-1.42445 3.39689,-2.13667 1.03695,-0.56299 2.09724,-1.08061 3.11086,-1.68897 0.8455,-0.50746 2.05129,-0.72458 2.46062,-1.65496 1.85607,-4.21859 7.95728,-11.85055 3.40367,-15.97247 -0.45623,-0.41298 -1.05398,-0.61077 -1.58097,-0.91615 -2.20859,-0.5532 -2.46867,-0.67576 -4.82814,-1.00785 -0.98203,-0.13822 -1.99983,-0.0554 -2.95572,-0.33003 -0.90372,-0.25961 -1.69158,-0.84897 -2.54717,-1.25078 -0.52809,-0.24803 -1.15203,-0.3169 -1.60293,-0.6983 -0.17818,-0.15073 -0.048,-0.47896 -0.072,-0.71844 -1.13064,3.91327 -2.23472,7.83518 -3.39192,11.73983 -0.10577,0.35689 0.11915,-0.74086 0.23674,-1.09362 0.15864,-0.47593 0.38865,-0.92202 0.588,-1.38063 0.28231,-0.64944 0.53409,-1.31534 0.85694,-1.94345 0.61219,-1.19098 1.8408,-3.02206 2.53857,-4.10074 0.52423,-0.92102 1.00222,-1.87309 1.57268,-2.76306 1.76052,-2.74659 4.09086,-5.06628 6.24609,-7.45667 3.27062,0.27736 4.3339,-13.65192 1.06329,-13.92929 z" />
    <path
       style="fill:#e6e6e6;fill-opacity:1;fill-rule:nonzero;stroke:none;stroke-width:0.194851"
       id="path102"
       d="m 127.44466,187.09724 c 1.217,-0.19752 2.37402,-0.63448 3.59398,-0.8253 0.48801,-0.0763 0.98635,-0.0672 1.47294,-0.15316 1.02289,-0.18059 2.0253,-0.47426 3.04461,-0.67613 0.44856,-0.10936 0.88937,-0.2636 1.34569,-0.32807 0.7836,-0.0147 1.4442,-2e-5 2.22168,-0.12062 2.35143,-0.36473 0.51988,-0.40549 3.97624,-0.59743 1.52378,-0.0846 3.05139,-0.0519 4.57709,-0.0777 9.6891,-0.0996 19.37252,-0.70865 29.06252,-0.73567 4.76275,-0.0133 9.5242,0.1778 14.28683,0.21428 13.06579,0.10009 18.72787,-0.0171 31.90587,-0.15023 4.9237,-0.0593 27.83072,-0.34642 32.61904,-0.35932 5.14567,-0.0138 10.29118,0.0842 15.43687,0.079 19.47271,-0.02 7.05104,-0.42155 24.2411,0.41708 2.28395,0.57965 4.50603,-9.14753 2.22207,-9.72718 v 0 c -10.35117,0.79723 -13.81104,1.20002 -24.6678,1.40055 -5.14927,0.0951 -10.30017,-0.0321 -15.45018,-0.01 -17.18211,0.0736 -15.58931,0.12364 -32.64395,0.5641 -5.37429,-0.19463 -10.74625,-0.4834 -16.12285,-0.58389 -5.19336,-0.0971 -10.39255,0.21183 -15.5825,-0.009 -4.68976,-0.19934 -9.34549,-0.95461 -14.03068,-1.24992 -4.01003,-0.25276 -8.03473,-0.15967 -12.04578,-0.39373 -5.77286,-0.33687 -10.71125,-1.01414 -16.37122,-1.70721 -1.52706,-0.12533 -3.05627,-0.22447 -4.58119,-0.37599 -0.8859,-0.088 -1.75989,-0.33027 -2.64965,-0.34249 -0.88991,-0.0122 -1.73869,0.46262 -2.6281,0.49628 -0.38087,0.0144 -0.75853,-0.16269 -1.13758,-0.12088 -0.47684,0.0526 -0.92501,0.26627 -1.38751,0.3994 -0.9913,0.18268 -1.97204,0.44327 -2.97282,0.55457 -0.4941,0.055 -0.99956,-0.0353 -1.48978,0.05 -1.1426,0.19864 -2.22549,0.88259 -3.43771,0.65408 -3.22016,-0.73229 -6.02739,12.98213 -2.80723,13.71442 z" />
    <path
       d="m 261.62166,216.24115 c -0.2105,0.27769 -0.4043,0.57041 -0.6315,0.83306 -1.25856,1.45501 -1.13229,1.03291 -2.50331,2.6962 -1.85613,2.25184 -3.49353,4.72704 -5.1838,7.11603 -1.54278,2.34023 -2.97331,4.75605 -4.3341,7.21503 -0.17256,0.31183 -0.45283,0.57105 -0.54328,0.91923 -1.21798,4.68803 -2.2466,9.42845 -3.36989,14.14266 0.58979,0.47063 1.09625,1.08852 1.76938,1.41188 0.88064,0.42303 1.87089,0.523 2.80595,0.78598 8.61261,2.4223 -2.38663,-0.56631 6.03874,1.42015 0.24486,0.0578 3.94112,1.16253 4.47309,1.32109 0.27072,0.28718 0.80118,0.45688 0.81215,0.86156 0.01,0.36178 -0.82884,1.07873 -0.76919,0.72228 0.62587,-3.73967 2.20025,-7.29856 2.50306,-11.08253 0.0651,-0.81402 -1.13716,1.11288 -1.74572,1.61875 -2.03845,1.69452 -4.18026,3.24621 -6.26323,4.87947 -12.16852,6.33091 5.20235,-2.79661 -6.23261,3.49657 -0.79716,0.43873 -1.63495,0.79002 -2.45242,1.18504 -3.12208,-0.44823 -4.84039,12.84845 -1.71831,13.29667 v 0 c 2.82492,-2.06479 5.67633,-4.09234 8.84945,-5.53686 1.1323,-0.71223 2.26459,-1.42446 3.39689,-2.13667 1.03695,-0.563 2.09724,-1.08062 3.11086,-1.68897 0.8455,-0.50746 2.05129,-0.72458 2.46062,-1.65497 1.85606,-4.21859 7.95728,-11.85055 3.40367,-15.97247 -0.45623,-0.41298 -1.05398,-0.61077 -1.58097,-0.91615 -2.20859,-0.5532 -2.46867,-0.67576 -4.82814,-1.00785 -0.98203,-0.13822 -1.99983,-0.0554 -2.95572,-0.33003 -0.90372,-0.25961 -1.69158,-0.84897 -2.54717,-1.25078 -0.52809,-0.24803 -1.15203,-0.3169 -1.60293,-0.6983 -0.17818,-0.15073 -0.0479,-0.47896 -0.072,-0.71844 -1.13065,3.91327 -2.23472,7.83518 -3.39192,11.73984 -0.10577,0.35688 0.11915,-0.74086 0.23674,-1.09363 0.15864,-0.47592 0.38865,-0.92202 0.588,-1.38063 0.28231,-0.64944 0.53409,-1.31533 0.85694,-1.94344 0.61219,-1.19098 1.8408,-3.02207 2.53857,-4.10075 0.52423,-0.92102 1.00222,-1.87309 1.57268,-2.76306 1.76052,-2.74659 4.09086,-5.06628 6.24609,-7.45667 3.27061,0.27736 4.3339,-13.65192 1.06328,-13.92929 z"
       id="path100-9"
       style="fill:#e6e6e6;fill-opacity:1;fill-rule:nonzero;stroke:none;stroke-width:0.194851" />
  </g>
</svg>
