<?xml version="1.0" encoding="UTF-8" standalone="no"?>
<svg
   xmlns:dc="http://purl.org/dc/elements/1.1/"
   xmlns:cc="http://creativecommons.org/ns#"
   xmlns:rdf="http://www.w3.org/1999/02/22-rdf-syntax-ns#"
   xmlns:svg="http://www.w3.org/2000/svg"
   xmlns="http://www.w3.org/2000/svg"
   xmlns:sodipodi="http://sodipodi.sourceforge.net/DTD/sodipodi-0.dtd"
   xmlns:inkscape="http://www.inkscape.org/namespaces/inkscape"
   width="400mm"
   height="400mm"
   viewBox="0 0 400 400"
   version="1.1"
   id="svg8"
   inkscape:version="1.0 (4035a4fb49, 2020-05-01)"
   sodipodi:docname="speed.svg">
  <defs
     id="defs2" />
  <sodipodi:namedview
     id="base"
     pagecolor="#ffffff"
     bordercolor="#666666"
     borderopacity="1.0"
     inkscape:pageopacity="0.0"
     inkscape:pageshadow="2"
     inkscape:zoom="0.35"
     inkscape:cx="400"
     inkscape:cy="674.28571"
     inkscape:document-units="mm"
     inkscape:current-layer="layer1"
     inkscape:document-rotation="0"
     showgrid="false"
     inkscape:window-width="1920"
     inkscape:window-height="1017"
     inkscape:window-x="-8"
     inkscape:window-y="-8"
     inkscape:window-maximized="1" />
  <metadata
     id="metadata5">
    <rdf:RDF>
      <cc:Work
         rdf:about="">
        <dc:format>image/svg+xml</dc:format>
        <dc:type
           rdf:resource="http://purl.org/dc/dcmitype/StillImage" />
        <dc:title></dc:title>
      </cc:Work>
    </rdf:RDF>
  </metadata>
  <g
     inkscape:label="Layer 1"
     inkscape:groupmode="layer"
     id="layer1">
    <path
       style="opacity:1;fill:#999999;fill-opacity:1;fill-rule:nonzero;stroke:none;stroke-width:0.107338"
       id="path90"
       d="m 55.052129,75.694159 c 1.273858,1.530411 1.660738,2.144069 3.442161,3.37673 4.015931,2.778833 7.984661,5.690317 12.191322,8.035289 1.937643,1.080122 4.075106,1.565723 6.149642,2.188731 7.57398,2.274554 11.546038,2.841482 19.492186,4.419752 3.062316,0.525251 20.90815,3.572517 23.8868,4.138738 3.78239,0.719006 7.5521,1.53037 11.32244,2.334161 5.93773,1.26585 11.70623,2.48363 17.5465,4.24782 2.09409,0.63256 4.14959,1.43403 6.2244,2.15106 2.99906,1.12049 4.83991,1.66381 7.60422,3.1664 0.77097,0.41908 1.50549,0.92912 2.23791,1.43682 0.38654,0.26793 1.49833,1.16315 1.11556,0.88769 -8.56564,-6.1642 -10.58264,-7.31236 -7.49399,-5.52807 -0.17349,0.008 -0.36088,-0.0567 -0.52049,0.0246 -6.73705,3.43426 -0.0295,1.29737 -11.08834,5.18956 -4.84628,1.70565 -9.76951,3.08456 -14.65264,4.63415 -7.81353,2.47953 -15.62488,4.9688 -23.43731,7.45319 -0.32141,0.436 1.15835,1.98214 1.47975,1.54614 v 0 c 8.69945,-1.55725 17.40011,-3.10492 26.09835,-4.67175 5.45549,-0.9827 10.91425,-1.94099 16.3628,-2.97684 2.77964,-0.52845 10.48956,-1.53941 13.90778,-3.7776 0.83201,-0.54477 1.33758,-1.60495 2.00637,-2.40743 -0.26253,-6.03277 0.28161,-1.62471 -9.51901,-9.09596 -0.39714,-0.30275 -0.86311,-0.45304 -1.29956,-0.6657 -0.70448,-0.34328 -1.39571,-0.73393 -2.12285,-1.00196 -2.28903,-0.843765 -4.71816,-1.082845 -6.97676,-2.062883 -4.92577,-1.156989 -8.01565,-1.924715 -13.15324,-2.922376 -11.28244,-2.190887 -8.17341,-1.312918 -20.22949,-3.479828 -6.9603,-1.251015 -17.395453,-3.391995 -24.342123,-4.792085 -10.125681,-2.520653 -11.096797,-2.388222 -20.486481,-6.05989 -2.157724,-0.843739 -4.145756,-3.372473 -6.375764,-2.86026 -1.585328,0.364138 2.625383,2.240586 3.893467,3.430424 0.88737,0.832623 -2.994115,-2.46324 -2.779004,-2.3104 0.841532,-3.089249 -9.643074,-7.137475 -10.484606,-4.048223 z" />
    <path
       style="opacity:1;fill:#999999;fill-opacity:1;fill-rule:nonzero;stroke:none;stroke-width:0.107338"
       id="path92"
       d="m 61.697005,148.1704 c 5.537204,-10.72841 6.310775,7.09835 10.340176,7.61245 0.608596,0.0777 1.224471,-0.0344 1.836211,-0.0103 0.905571,0.0358 1.808446,0.13967 2.713528,0.19008 2.824963,0.15732 5.651906,0.25932 8.477743,0.39261 9.575905,0.24977 1.600283,0.10337 11.951499,0.10127 2.408467,-4.9e-4 4.816878,0.0556 7.225328,0.0418 2.53818,-0.0145 5.0757,-0.14291 7.61389,-0.12691 5.86393,0.037 9.63225,0.3201 15.44814,0.64841 3.92055,0.44472 8.0673,0.68432 11.90682,1.92343 1.51958,0.49041 2.99383,1.18698 4.42231,1.97513 1.10777,0.61117 4.23065,2.90358 3.15875,2.20761 -6.26867,-4.07024 -7.4483,-6.09076 -4.40846,-1.99504 0.18334,0.77989 0.49899,1.53208 0.55004,2.33966 0.14998,2.37213 -0.42453,4.02945 -1.48677,6.03579 -0.65613,1.23931 -1.35576,2.47733 -2.24852,3.48552 -2.69726,3.04598 -6.50054,5.29004 -9.63652,7.4379 -6.75076,2.98069 -9.39804,4.45949 -16.66072,6.29463 -3.29537,0.83268 -6.63968,1.37907 -9.98165,1.88395 -5.822246,0.87957 -12.999716,1.56462 -18.917455,1.32953 -2.56622,-0.10195 -5.11186,-0.58348 -7.667792,-0.87522 -2.001795,-0.79766 -3.961814,-1.76305 -6.005364,-2.39295 -1.207196,-0.37209 3.213625,3.06517 3.485952,1.61637 0.415622,-2.21118 -2.112082,-3.84518 -2.659069,-6.01546 -1.903057,-7.55071 -1.292679,-13.93364 -0.377068,-21.71512 0.555678,-4.72251 1.489698,-9.37089 2.234546,-14.05635 2.507864,-12.86038 5.780752,-25.50809 9.741326,-37.83877 0.92699,-2.88603 2.006562,-5.69965 2.966921,-8.57018 3.722164,-11.125671 0.548838,-2.524784 4.047936,-11.707463 0.989049,-2.347234 1.776339,-4.80469 2.721801,-7.175453 0.382481,-0.959089 0.811777,-1.890732 1.211101,-2.840043 0.673661,-1.601523 1.266637,-3.252172 1.986985,-4.824636 0.266213,-0.581102 0.587977,-1.123601 0.881965,-1.685401 0.04726,0.423342 0.705034,-1.876204 1.202692,-1.513753 0.234002,0.170427 0.490148,1.077191 0.242698,0.936209 -2.792959,-1.591339 -5.351763,-3.71532 -8.100131,-5.413124 -0.388079,-0.239731 0.691532,0.643537 0.991751,1.021949 0.425231,0.535991 0.784569,1.140985 1.17685,1.711481 0.382368,0.741198 0.802605,1.456527 1.147102,2.223589 0.450057,1.002083 0.829907,2.046734 1.233326,3.076585 1.182453,3.018599 1.890008,4.676075 2.670947,7.917772 0.401954,1.668485 1.661163,8.785866 1.937847,10.317051 0.327667,1.879598 0.698727,3.749213 0.983013,5.638793 0.28197,1.874087 0.44885,3.770594 0.71508,5.647944 0.57461,4.05193 1.48638,9.01312 1.99428,13.02671 0.30524,2.41213 0.48385,4.8447 0.75073,7.26326 0.273,2.47409 0.57922,4.94283 0.86885,7.41423 0.25581,2.43954 0.51163,4.87908 0.76743,7.31862 0.25849,2.40749 0.52108,4.81436 0.77548,7.22246 0.25377,2.40205 0.45642,4.81221 0.74905,7.20801 0.29697,2.43135 0.74553,4.83499 1.01931,7.27021 0.26093,2.32101 0.37037,4.66278 0.58393,6.99065 0.2329,2.53846 0.5036,5.07182 0.75541,7.60773 0.57315,6.77404 0.73297,8.50359 1.25192,15.27168 0.19483,2.54089 0.45946,5.07641 0.56447,7.62479 0.0999,2.42544 -0.01,4.85749 0.0499,7.28481 0.35822,14.51742 0.35483,-0.0214 0.26029,13.43209 0.008,2.69319 0.0537,7.8329 -0.0459,10.63055 -0.0351,0.9862 -0.45403,7.14731 -0.53997,8.29184 -0.0913,1.21622 -0.12615,2.44219 -0.29823,3.64593 -0.15287,1.06941 -0.44921,2.1026 -0.67381,3.1539 -0.51814,2.47465 -1.00187,4.96923 -1.85678,7.31817 -0.1967,0.54042 -0.45037,1.04917 -0.65814,1.58366 -0.70309,1.80875 -0.11422,0.82398 -1.08107,2.15289 -0.34081,0.62619 -0.62733,1.31391 -1.10642,1.81367 -0.11572,0.12071 -0.2639,0.19562 -0.3706,0.32759 -0.33032,0.40849 0.0815,0.22913 -0.31917,0.34545 -0.0361,0.002 -0.0769,0.0262 -0.10855,0.005 -0.37331,-0.24653 -0.14823,-0.26192 -0.52704,-0.40582 -0.22166,-0.0842 -0.45294,-0.12801 -0.67641,-0.2051 -1.62751,-0.56142 -0.2083,-0.16563 -1.8432,-0.57922 -1.265499,-0.40801 -2.44905,-1.06226 -3.630792,-1.72232 -0.426383,-0.23816 -0.866707,-0.44382 -1.279001,-0.71488 -0.50262,-0.33041 -1.950085,-1.44429 -1.46091,-1.0864 2.34414,1.71502 4.683872,3.43856 7.025803,5.15784 -1.71331,-1.1334 -3.185738,-2.65134 -4.659992,-4.16516 -0.479835,-0.49271 -0.984186,-0.95245 -1.447015,-1.46772 -0.353896,-0.39398 -0.660662,-0.84414 -0.999709,-1.25621 -0.348338,-0.42336 -0.708126,-0.83316 -1.062183,-1.24972 -1.105213,-1.45897 -2.172721,-3.03804 -2.889069,-4.82489 -0.3575,-0.89172 -0.442576,-1.46228 -0.648977,-2.40669 0.253176,-0.81726 -0.302412,-1.64332 -0.164303,-2.44381 0.0699,-0.40509 0.408035,-0.67212 0.574505,-1.03509 0.177069,-0.38612 0.244467,-0.84125 0.45268,-1.20467 0.501029,-0.8745 1.222619,-1.34164 1.932997,-1.92852 3.869095,-2.70899 8.331236,-3.89825 12.637786,-5.1824 8.96757,-2.67395 5.14629,-1.68179 15.35149,-3.4305 10.66539,-2.11456 21.48749,-3.04838 32.29458,-3.16349 3.3206,-0.0354 6.64668,-0.0366 9.96051,0.21836 6.89824,0.53062 8.61392,1.25568 14.98658,2.937 -3.69272,-3.96077 10.59792,5.82519 8.08889,4.03814 -10.09188,-7.18787 -6.27663,-4.86215 -4.43718,-2.25917 0.42582,0.60256 1.15213,2.17992 1.48289,2.86703 0.0629,0.35088 0.42515,2.31579 0.44243,2.6516 0.0103,0.19989 -0.16448,2.34511 -0.19174,2.50614 -0.0689,0.40709 -0.2063,0.79342 -0.30554,1.19153 -0.10011,0.40158 -0.19498,0.80499 -0.29248,1.20751 -0.14522,0.33947 -0.29044,0.67897 -0.43567,1.01844 -0.1,0.34992 -0.16322,0.71793 -0.30001,1.04973 -0.46667,1.13186 -0.43862,0.53917 -0.94801,1.5439 -0.61263,1.20837 0.16118,0.30695 -0.67555,1.13912 -0.0694,0.21038 -0.0811,0.46333 -0.20829,0.63113 -0.15496,0.20439 -0.39866,0.27944 -0.59393,0.427 -0.1801,0.13608 -0.35916,0.27459 -0.53189,0.42365 -0.47686,0.41154 -0.8152,0.95692 -1.23853,1.44087 -0.18364,0.13519 -0.37374,0.25867 -0.55093,0.40554 -0.4848,0.40189 -0.54122,0.57697 -1.06714,0.90603 -0.20259,0.12674 -0.42351,0.20675 -0.63349,0.31509 -0.63781,0.32908 -0.56542,0.3006 -1.18849,0.6835 -0.15613,0.10234 -0.31856,0.19216 -0.46842,0.30702 -0.1343,0.10293 -0.24558,0.24539 -0.38181,0.34463 -0.26537,0.19333 -0.86915,0.49726 -1.13866,0.62791 -0.21473,0.10409 -0.42337,0.23414 -0.6489,0.29815 -0.28294,0.0803 -0.57705,0.0878 -0.86559,0.13173 -0.17507,0.15029 -0.32431,0.35691 -0.5252,0.45088 -0.218,0.10197 -0.46988,0.0446 -0.69538,0.12003 -0.35939,0.1201 -0.6821,0.43145 -1.02373,0.59637 -1.14228,0.55143 -0.10836,-0.14949 -1.12037,0.60756 -0.3838,0.0887 -0.91464,0.17989 -1.26818,0.39374 -0.18317,0.1108 -0.31531,0.31817 -0.49404,0.43882 -0.23598,0.15926 -0.50029,0.25109 -0.74272,0.39592 -0.26789,0.16005 -0.50314,0.40315 -0.78693,0.51795 -0.38797,0.15696 -0.8035,0.19201 -1.20525,0.28801 -1.37677,0.63244 -2.84244,0.91564 -4.2506,1.41399 -0.43353,0.15343 -0.84156,0.40227 -1.27883,0.53984 -2.89839,0.91188 0.16305,-0.37648 -2.19145,0.67507 -1.04728,0.38837 -2.14871,0.4948 -3.21375,0.77728 -1.13444,0.30087 -0.0882,0.18067 -1.31391,0.24721 -0.20405,0.012 -0.40809,0.024 -0.61214,0.0359 -0.1259,0.0689 -0.23959,0.19323 -0.37768,0.20668 -0.2072,0.0202 -0.40898,-0.11547 -0.61683,-0.10986 -0.18128,0.005 -0.35134,0.11133 -0.53097,0.14094 -1.48398,0.24463 0.28174,-0.22954 -1.47557,0.30485 -0.93779,0.17481 -1.86576,0.51199 -2.81898,0.56644 -0.31322,0.0179 -0.62694,-0.0461 -0.94033,-0.0331 -0.66201,0.0274 -1.31746,0.16607 -1.97666,0.24354 -4.4761,0.7278 -1.67772,0.28718 -8.40131,1.26551 -1.52215,1.94179 5.0681,9.26418 6.59026,7.3224 v 0 c 7.70969,0.0322 4.51178,0.0444 9.59376,0.008 0.49965,0.0615 0.99684,0.20078 1.49897,0.18452 0.26373,-0.008 0.50315,-0.19295 0.76132,-0.25768 2.23505,-0.56052 -0.81377,0.33384 1.8708,-0.18217 3.02844,-0.5821 -1.5487,-0.16211 1.98733,-0.40455 0.27271,-0.0299 0.54455,-0.0748 0.81813,-0.0899 0.25556,-0.0142 0.51411,0.0444 0.76749,0.002 0.13879,-0.0231 0.25034,-0.15996 0.3875,-0.19403 0.5698,-0.14157 1.18617,0.0655 1.72114,-0.30376 0.54083,-0.12641 0.78618,-0.19632 1.34603,-0.27244 0.27759,-0.0378 0.56845,0.0135 0.8351,-0.0859 0.22021,-0.0821 0.37087,-0.33695 0.58375,-0.44296 0.55459,-0.27614 1.19305,-0.25948 1.73005,-0.60619 0.32699,-0.11482 0.65691,-0.2184 0.98096,-0.34445 0.35722,-0.13896 0.69989,-0.3309 1.06207,-0.45025 0.46117,-0.15195 0.93627,-0.23623 1.40297,-0.36202 1.48634,-0.40064 2.94302,-0.89424 4.37383,-1.52373 0.40621,-0.15164 0.81668,-0.28808 1.21867,-0.45492 0.56517,-0.23459 1.10883,-0.53867 1.67391,-0.77362 0.24543,-0.10206 0.50777,-0.15025 0.74317,-0.28159 0.16791,-0.0937 0.28411,-0.29262 0.45232,-0.38553 0.18789,-0.10372 0.39954,-0.13011 0.5993,-0.19517 0.15669,-0.10962 0.30033,-0.2515 0.47004,-0.32888 0.21552,-0.0983 0.45324,-0.10933 0.67323,-0.19236 0.18254,-0.0689 0.34913,-0.18942 0.53067,-0.26198 0.59322,-0.23712 1.24562,-0.25912 1.74902,-0.75917 0.24411,-0.0879 0.49677,-0.14729 0.73235,-0.2636 2.51362,-1.24123 -1.17882,0.35018 1.43766,-0.81326 0.22921,-0.10194 0.47899,-0.13998 0.69849,-0.26868 0.32605,-0.19121 0.5132,-0.6544 0.91771,-0.70102 1.47706,-0.83971 -0.37007,0.29016 1.07452,-0.87569 0.20072,-0.16199 0.44556,-0.23255 0.65231,-0.38342 0.62698,-0.45747 1.08386,-1.18567 1.7663,-1.54904 0.33431,-0.34397 0.69975,-0.64351 1.03354,-0.98818 0.31665,-0.32696 0.55249,-0.75524 0.87065,-1.08009 0.18027,-0.18407 0.43142,-0.26962 0.5834,-0.48687 0.17109,-0.24451 0.23722,-0.57038 0.35582,-0.85558 0.17542,-0.20427 0.37084,-0.38671 0.52624,-0.61278 0.11675,-0.16985 0.75965,-1.42444 0.81786,-1.57827 0.12855,-0.33985 0.17816,-0.71638 0.30127,-1.05908 0.23393,-0.65116 0.74597,-1.64892 1.0376,-2.2439 0.1011,-0.47083 0.18646,-0.94683 0.30332,-1.41246 0.27184,-1.0833 0.60619,-1.76821 0.65157,-2.9199 0.0223,-0.56647 -0.14591,-1.13044 -0.11175,-1.69607 0.19554,-3.23719 0.68415,0.60174 -0.0446,-3.23206 -0.13582,-0.61752 -0.18831,-1.26997 -0.40746,-1.85254 -0.27862,-0.74067 -0.68524,-1.4049 -1.06998,-2.07482 -3.12805,-5.44655 -4.69781,-5.07672 -11.90893,-10.0205 -1.04678,-0.71765 -2.20549,-1.18999 -3.35652,-1.62628 -1.5187,-0.57565 -3.0894,-0.93502 -4.63408,-1.40251 -2.05655,-0.32224 -4.10313,-0.75324 -6.16964,-0.96673 -9.56486,-0.98814 -19.1596,-0.44018 -28.7216,0.2345 -3.80042,0.26815 -7.59928,0.57087 -11.3954,0.91459 -3.54795,0.32127 -7.09063,0.72019 -10.63595,1.08028 -7.04032,0.97699 -9.63877,1.21672 -16.363348,2.57127 -4.394866,0.88526 -6.003307,1.28939 -10.012379,2.68352 -0.87288,0.30355 -1.761239,0.57167 -2.593009,1.00924 -0.613092,0.32253 -1.14139,0.83705 -1.712086,1.25556 -0.462708,0.42466 -0.95845,0.80268 -1.388113,1.27398 -1.061455,1.16433 -1.096802,1.47932 -1.73414,2.96634 -0.761115,1.77583 -1.174714,2.83908 -0.899599,4.89463 0.06105,0.46303 0.08967,0.93382 0.183175,1.38913 0.104468,0.5086 0.271712,0.99598 0.408871,1.49345 0.124614,0.45194 0.222312,0.91596 0.376441,1.35481 0.540127,1.53796 1.390762,2.86752 2.174914,4.23273 1.775375,2.25509 0.405606,0.59478 2.454728,2.84737 0.43495,0.47814 0.865526,0.9621 1.288413,1.45535 0.431013,0.50271 0.827973,1.04702 1.272965,1.53218 0.823421,0.89775 2.140309,2.10307 3.031154,2.93808 3.40024,2.47171 6.786002,4.97186 10.200723,7.41513 0.53978,0.38621 1.09577,0.74118 1.66093,1.07196 1.71171,1.00184 3.52884,1.6596 5.34364,2.32863 1.33878,0.368 0.87125,0.29464 2.12821,0.44776 1.00645,0.12262 1.85973,0.189 2.55073,-0.8385 1.038,-1.07131 -0.27907,0.40054 0.52109,-0.87649 0.0979,-0.15629 0.27677,-0.2184 0.3822,-0.36764 0.13837,-0.19586 0.21831,-0.44136 0.33898,-0.65317 0.75179,-1.31961 0.15166,-0.0501 0.83198,-1.6229 0.1392,-0.38713 0.26931,-0.77908 0.4176,-1.16138 0.1817,-0.46848 0.40227,-0.91541 0.57202,-1.39021 1.08768,-3.04211 1.85782,-6.35909 2.42816,-9.58375 0.20583,-1.12179 0.47535,-2.22966 0.61748,-3.36537 0.38519,-3.07769 0.24722,-4.79971 0.35125,-7.93778 0.0493,-1.48535 0.18438,-2.96626 0.2113,-4.45244 0.0739,-4.07562 -0.11261,-6.77129 -0.29184,-10.90412 -0.29381,-7.03986 -0.5702,-14.08054 -0.86986,-21.12005 -0.10689,-2.51111 -0.16867,-5.02553 -0.3208,-7.53333 -0.15489,-2.55326 -0.41031,-5.0965 -0.60007,-7.64642 -0.18914,-2.54156 -0.35772,-5.08525 -0.53659,-7.62787 -0.21383,-2.52638 -0.39415,-5.0571 -0.64148,-7.57913 -0.233,-2.37568 -0.52985,-4.74186 -0.79931,-7.11207 -1.10116,-9.68611 -2.37073,-19.34403 -3.34837,-29.05021 -1.49974,-15.42887 0.10632,0.75272 -1.52308,-14.64682 -1.00628,-9.51048 -0.32215,-3.9949 -1.37457,-12.75635 -0.22791,-1.89728 -0.41485,-3.80302 -0.70631,-5.68793 -0.29745,-1.92365 -0.70622,-3.820525 -1.05932,-5.730784 -0.33491,-1.82644 -0.69992,-3.645421 -1.00473,-5.479319 -0.27386,-1.647786 -0.40969,-3.327875 -0.73089,-4.963501 -0.28036,-1.42769 -0.72406,-2.802898 -1.07054,-4.209869 -0.41663,-1.691953 -1.15219,-5.150107 -1.76718,-6.846126 -0.30992,-0.854738 -0.76013,-1.627244 -1.1402,-2.440866 -0.27697,-0.654895 -0.52301,-1.329662 -0.83091,-1.964678 -2.309969,-4.76413 -5.551869,-5.544207 -10.827056,-8.440787 -0.49185,-0.270071 -1.093664,0.224847 -1.554337,0.564017 -0.352555,0.259581 -1.245624,2.212564 -1.390764,2.508697 -1.884553,4.231295 0.308872,-0.86328 -1.59499,4.212691 -0.33658,0.897347 -0.790757,1.729886 -1.103425,2.63942 -0.348036,1.012395 -0.562328,2.083342 -0.873901,3.112442 -0.34626,1.143697 -0.732747,2.269566 -1.099114,3.404351 -0.409056,1.373531 -0.818104,2.747064 -1.227153,4.120596 -0.581097,2.070741 -3.023759,10.740613 -3.388941,12.212107 -0.755396,3.04388 -1.33174,6.148269 -2.093831,9.189779 -0.930191,3.71244 -2.066586,7.34913 -2.981715,11.06686 -0.186813,0.75893 -6.161978,27.24766 -6.188209,27.36387 -2.314545,10.96013 -3.641823,15.12498 -4.350216,26.14165 -0.215307,3.34834 -0.701724,13.31462 2.117546,16.5735 7.7397,8.94656 9.73139,8.62832 17.723965,10.75428 2.456743,0.0954 4.912404,0.32592 7.370225,0.28612 5.492413,-0.0889 13.468526,-0.94133 18.809006,-1.76658 5.95156,-0.91968 13.91973,-2.47978 19.73006,-4.49169 2.70273,-0.93587 5.28655,-2.30339 7.92984,-3.45507 2.16308,-1.16222 4.40429,-2.13716 6.48924,-3.48665 3.88017,-2.51145 7.66753,-6.07396 9.12705,-11.24915 0.84136,-2.98331 0.45597,-4.09475 0.14479,-7.03936 -3.5111,-6.50608 -1.32535,-3.233 -11.762,-10.7385 -1.93272,-1.38992 -5.19072,-2.30966 -7.28002,-2.803 -5.50296,-1.29941 -5.9926,-1.07343 -11.8405,-1.46801 -2.44436,-0.0546 -4.88885,-0.10126 -7.33307,-0.16391 -2.66147,-0.0682 -5.3221,-0.18585 -7.98392,-0.22865 -2.57653,-0.0413 -5.15387,0.0291 -7.730232,-0.024 -2.470326,-0.051 -4.938608,-0.19724 -7.408119,-0.28788 -9.117171,-0.33462 -3.821086,-0.035 -12.31668,-0.62344 -1.684029,-0.22208 -3.367531,-0.44991 -5.052087,-0.66625 -1.277065,-0.16417 -2.563557,-0.23977 -3.832775,-0.47494 -1.003978,-0.18602 -2.000551,-0.44694 -2.9757,-0.78675 -3.261111,-1.13643 -11.951432,-8.78346 6.099709,5.17644 0.758871,-3.20988 -10.135113,-6.86048 -10.893991,-3.6506 z" />
    <path
       style="opacity:1;fill:#999999;fill-opacity:1;fill-rule:nonzero;stroke:none;stroke-width:0.107338"
       id="path96"
       d="m 49.196068,230.00748 c -1.491523,1.0506 -2.73277,2.44758 -3.979156,3.86857 -0.742373,0.84635 -1.566097,1.61024 -2.195887,2.57735 -1.465056,2.24974 -2.310485,4.88545 -3.281003,7.44439 -0.253618,1.43054 -0.724352,2.8302 -0.760855,4.29162 -0.04433,1.77467 0.22956,3.54897 0.521528,5.29007 0.653365,3.89625 1.73615,7.29505 3.326072,10.7887 1.742418,3.82876 3.472465,6.32158 5.646413,9.77561 1.069377,1.39612 2.084181,2.85436 3.20813,4.18834 2.3706,2.81356 4.104219,4.38037 6.746806,6.72902 0.868804,0.77218 1.7322,1.55639 2.640882,2.2605 9.20818,7.1352 7.096327,5.70317 12.266878,9.05195 0.07041,0.0439 2.605839,1.63118 2.77444,1.71758 0.291724,0.14948 0.610695,0.2094 0.910533,0.33404 0.348105,0.14468 0.681598,0.33746 1.032168,0.47345 0.515494,0.19996 1.05097,0.31824 1.573281,0.49134 0.637516,-0.0466 1.187457,0.29957 1.777113,0.4958 0.220587,0.0734 0.450334,0.10071 0.673603,0.1616 1.534598,0.41852 0.01147,0.0657 1.475016,0.38614 1.433737,0.3925 2.866909,0.82395 4.311263,1.16031 0.790218,0.18404 1.589228,0.30981 2.383249,0.46894 1.325813,0.16833 2.654333,0.45873 3.985351,0.56331 0.445074,0.0349 0.893139,-0.0278 1.338088,0.009 2.913434,0.24249 0.229162,0.30227 2.83645,0.15873 0.515042,0.12228 1.025191,0.27868 1.545134,0.36684 0.132435,0.0225 2.226395,0.18355 2.406945,0.19598 0.79079,0.0544 1.58007,0.15637 2.37212,0.16833 0.4007,0.006 0.8007,-0.0413 1.20107,-0.0618 7.01431,0.0538 -3.72896,0.005 3.9067,-0.081 0.75897,-0.008 1.51769,0.0436 2.27671,0.0466 2.00655,0.007 3.99727,-0.0797 5.99672,-0.26509 1.09186,0.0402 3.06061,0.13532 4.14083,0.0811 0.74532,-0.0374 1.48467,-0.18699 2.22997,-0.22467 0.88541,-0.0448 1.77486,0.0571 2.65856,-0.0226 1.0183,-0.0916 2.0239,-0.32659 3.03584,-0.48988 1.24907,-0.0744 2.49814,-0.14884 3.7472,-0.22325 11.22179,-1.64758 -4.31349,0.5711 7.72868,-0.93089 2.87656,-0.35878 5.73675,-0.88719 8.61163,-1.26467 6.96689,-0.91479 1.78422,-0.0534 8.48224,-1.27751 3.90417,-0.14322 7.73575,-1.07426 11.59944,-1.64051 2.44577,-0.35844 4.91532,-0.58536 7.37655,-0.70744 0.50122,-0.067 1.00041,-0.16106 1.50364,-0.2013 0.42919,-0.0343 0.8603,-0.009 1.29031,-0.022 0.76081,-0.0234 1.58241,-0.15292 2.34418,-0.0576 0.22655,0.0283 0.4463,0.1091 0.66946,0.16366 1.15344,-0.0956 -0.12694,-0.0635 1.35079,0.22549 1.90445,0.37241 -0.99137,-0.47555 1.11763,0.0684 2.79104,0.71987 -0.4675,0.0582 2.04352,0.53582 0.98466,0.0308 1.91571,0.48902 2.89113,0.58733 0.20252,0.0204 0.40706,-0.0534 0.60926,-0.0289 0.38524,0.0468 0.75737,0.19693 1.14089,0.26043 0.5844,0.22851 0.87963,0.39849 1.47824,0.44867 0.16819,0.0142 0.33889,-0.0672 0.50504,-0.0331 0.21471,0.0441 0.41115,0.17195 0.61513,0.2631 0.0687,0.0307 0.16614,0.0264 0.20256,0.10229 0.0685,0.14261 0.0527,0.32255 0.079,0.48383 -24.45922,-19.39967 -8.31082,-1.52468 -8.32914,-8.75683 -8.8e-4,-0.27683 -0.41847,0.24236 -0.63344,0.34787 -1.82596,0.89618 -3.633,1.85219 -5.48875,2.65695 -11.39099,4.93985 -14.63145,5.87409 -26.8387,10.29198 -7.93066,2.94693 -15.86132,5.89386 -23.79196,8.84079 -0.23558,0.32424 0.86483,1.45746 1.1004,1.13323 v 0 c 8.95939,-1.90137 17.91879,-3.80275 26.87817,-5.70411 14.00964,-4.10349 15.70027,-4.90718 29.29096,-7.78617 2.36024,-0.5 4.76199,-0.69157 7.121,-1.1997 0.45887,-0.0989 0.96329,-0.2306 1.3003,-0.61431 0.49248,-0.56071 1.54776,-1.50622 1.06431,-2.07796 -2.54837,-3.01388 -5.94343,-4.80465 -8.91516,-7.20697 -0.66193,0.21691 -0.12112,0.10555 -0.85715,0.0532 -0.51219,-0.0364 -0.32767,0.11175 -0.91885,-0.0477 -0.25796,-0.0696 -0.50426,-0.19039 -0.75638,-0.28557 -0.21832,-0.0492 -0.43662,-0.0986 -0.65493,-0.14788 -0.64689,-0.16921 -0.72074,-0.21721 -1.323,-0.28367 -0.2068,-0.0228 -0.41699,-0.005 -0.62184,-0.0462 -0.30295,-0.0601 -0.59286,-0.19717 -0.8961,-0.25508 -3.0864,-0.58937 1.85234,0.61008 -1.91335,-0.34968 -0.32037,-0.0372 -0.64249,-0.0571 -0.9611,-0.11163 -0.61008,-0.10447 -1.20354,-0.33129 -1.81579,-0.41575 -0.65402,-0.0902 -1.32173,0.077 -1.97557,-0.0401 -0.47262,0.005 -0.94439,0.0581 -1.41704,0.0597 -0.28126,0.002 -0.5646,-0.0965 -0.84286,-0.0478 -0.2625,0.0461 -0.48642,0.26836 -0.74719,0.32667 -0.41079,0.0919 -0.83324,0.0799 -1.24986,0.11988 -0.47996,0.10884 -0.95993,0.21766 -1.4399,0.32647 -0.6221,0.10194 -1.24201,0.22516 -1.8663,0.30579 -0.80957,0.10455 -1.63168,0.0833 -2.43393,0.24962 -0.86137,0.17852 -1.6828,0.57383 -2.5396,0.78122 -3.75935,0.90992 -7.60611,1.2325 -11.40561,1.79755 -1.44708,0.15975 -2.89692,0.28746 -4.34127,0.47924 -2.86514,0.38043 -5.71671,0.89426 -8.57789,1.31479 -1.41805,0.20844 -2.83289,0.45459 -4.25584,0.60845 -1.3548,0.14648 -2.71504,0.21169 -4.07374,0.29222 -1.32637,0.0786 -2.654,0.12344 -3.981,0.18517 -2.6485,0.24259 -4.24309,0.44889 -6.87031,0.46451 -0.92332,0.005 -1.8455,-0.1161 -2.76874,-0.0998 -0.74663,0.0133 -1.48827,0.15833 -2.23456,0.18827 -0.71226,0.0286 -1.42531,-0.008 -2.13795,-0.0129 -0.62803,0.031 -1.25606,0.062 -1.88409,0.093 -2.24096,-0.0406 -1.65963,-0.0708 -3.9044,0.0521 -0.69197,0.0379 -1.38245,0.1207 -2.07507,0.13347 -2.15177,0.0397 -4.29596,-0.21684 -6.442189,-0.34561 -2.917922,0.0587 0.575064,0.047 -2.405305,-0.13342 -0.342345,-0.0208 -0.686491,0.0536 -1.028193,0.0212 -0.425442,-0.0404 -0.840265,-0.18394 -1.264572,-0.23866 -0.853279,-0.11002 -1.717842,-0.0566 -2.570525,-0.17656 -1.405996,-0.14179 -2.858115,-0.15108 -4.253747,-0.36643 -1.333161,-0.20571 -2.639411,-0.64086 -3.978473,-0.80733 -1.911754,-0.19468 -0.121578,0.055 -2.301095,-0.49244 -0.357784,-0.0898 -0.727797,-0.10328 -1.083453,-0.20436 -1.103286,-0.31359 -2.158446,-0.87284 -3.269954,-1.15794 -0.713604,-0.12044 -0.814249,-0.1032 -1.490731,-0.34633 -0.803758,-0.28886 -1.544594,-0.82467 -2.412821,-0.79381 -0.306995,-0.1138 -1.15403,-0.42224 -1.433406,-0.55 -1.406605,-0.64328 -2.717674,-1.55645 -4.078517,-2.31683 -4.023671,-2.74574 -1.328913,-0.9493 4.201082,3.31745 0.998432,0.77035 -2.038148,-1.46436 -3.024681,-2.25614 -3.766824,-3.02316 -7.361358,-6.3858 -10.379878,-10.45195 -2.168348,-3.20373 -4.014193,-5.66344 -5.723256,-9.27691 -0.748159,-1.58184 -1.345301,-3.26242 -1.909347,-4.94903 -1.012049,-3.02623 -1.94697,-6.18463 -1.873784,-9.50849 0.02838,-1.28879 0.42069,-2.52936 0.631035,-3.79403 0.359783,-1.19437 0.607819,-2.44518 1.07935,-3.58309 1.341369,-3.23702 1.717031,-3.1181 4.006655,-5.26387 0.63391,-0.59409 1.209986,-1.28884 1.903431,-1.77967 0.656197,-0.46448 1.471106,-0.52345 2.161292,-0.90196 1.747959,-2.48773 -6.695188,-10.89639 -8.443149,-8.40864 z" />
    <path
       id="path10"
       d="m 102.39728,89.550483 -3.638613,-0.721261 -0.998988,-4.836875 c -1.10481,-5.349224 -2.332994,-8.965383 -2.911565,-8.572496 -0.20717,0.140682 -1.321838,2.69731 -2.47704,5.681397 -1.155202,2.984088 -2.163355,5.522306 -2.240341,5.640485 -0.214019,0.328539 -8.286076,-1.616466 -8.533401,-2.056169 -0.299271,-0.532049 3.600512,-13.111326 5.504834,-17.756585 0.88667,-2.16288 1.93307,-3.932624 2.427118,-4.104914 1.059123,-0.369349 7.328332,2.976968 9.244483,4.93443 2.079713,2.124549 4.357523,7.577133 6.040543,14.459749 2.05337,8.397113 2.10867,8.229344 -2.41703,7.332239 z M 97.939333,70.083839 c -0.487117,-0.535224 -0.889045,0.270579 -0.489374,0.981122 0.30192,0.536751 0.414797,0.537168 0.57711,0.0021 0.110979,-0.365823 0.0715,-0.808284 -0.08775,-0.983246 z"
       style="opacity:1;fill:#999999;stroke-width:0.502309" />
    <path
       id="path12"
       d="m 136.48983,267.34915 c -1.64747,-1.31312 -3.83425,-4.90044 -3.32698,-5.45779 0.13719,-0.15077 3.68583,-0.75587 7.88585,-1.34468 4.20003,-0.58882 8.93026,-1.32059 10.51164,-1.62618 3.95191,-0.76364 11.86385,-3.44926 15.33455,-5.20515 1.58137,-0.80005 3.41433,-1.63505 4.07324,-1.85555 3.24932,-1.08737 8.38459,-5.2612 10.38639,-8.44178 1.52202,-2.4183 2.68974,-7.27343 2.32301,-9.65855 -0.59524,-3.87107 -3.96947,-7.82228 -6.16956,-7.2245 -0.4883,0.13268 -2.86037,-0.27202 -5.27125,-0.89935 -4.01444,-1.04456 -5.63389,-1.13887 -19.23876,-1.12039 -14.54593,0.0198 -20.88851,0.51586 -30.2429,2.36547 l -2.92822,0.57899 -0.33742,9.30254 c -0.46545,12.83229 -2.55972,22.60334 -5.86532,27.36519 -1.17268,1.6893 -1.39273,1.78721 -3.51332,1.56333 -7.82968,-0.82662 -26.005193,-15.88692 -28.690612,-23.77315 -2.666821,-7.8316 0.139941,-13.02656 8.53343,-15.7943 3.814286,-1.25775 15.438902,-3.68638 19.676332,-4.11081 l 1.67721,-0.16799 -0.17707,-13.68973 c -0.0974,-7.52935 -0.2349,-13.76183 -0.30558,-13.84997 -0.0707,-0.0882 -3.1178,0.23299 -6.77139,0.71359 -3.65359,0.48062 -10.09316,0.8954 -14.310161,0.92175 -11.764163,0.0735 -16.429378,-1.67134 -22.757946,-8.51161 -3.733789,-4.03569 -4.317116,-5.86585 -4.317116,-13.54473 0,-8.39104 2.379858,-24.88157 3.876845,-26.86345 0.285179,-0.37756 0.392536,-0.91042 0.238572,-1.18413 -0.308639,-0.54871 5.445996,-26.42689 8.061369,-36.2514 0.9091,-3.41499 2.342644,-9.11155 3.185651,-12.659035 0.84301,-3.54748 1.774615,-6.442571 2.07024,-6.433534 0.295623,0.0091 2.193074,0.423678 4.216558,0.921424 l 3.679064,0.904993 -2.396509,7.108123 c -6.782003,20.115659 -13.792426,47.120799 -12.575064,48.440949 0.773894,0.83923 32.063727,2.64862 33.141877,1.91648 0.71944,-0.48855 -3.79961,-39.66482 -6.10084,-52.889166 l -0.394747,-2.268474 2.680147,0.367932 c 4.97463,0.682917 5.02902,0.723143 5.68248,4.202949 0.32278,1.718879 1.02888,7.034709 1.5691,11.812939 0.54023,4.77824 1.07716,9.45701 1.1932,10.39727 0.17928,1.45276 0.0403,1.75661 -0.92476,2.02276 -1.3296,0.36666 -1.14177,1.41621 0.39077,2.18344 0.98692,0.49407 1.13493,1.28993 2.19216,11.78656 0.62358,6.19119 1.23672,11.55288 1.36255,11.91486 0.15106,0.43459 1.31016,0.6597 3.41213,0.66266 5.54235,0.008 13.59849,0.9975 17.3199,2.12766 2.43125,0.73835 5.42611,2.30519 9.25673,4.84288 6.72639,4.45607 8.12733,6.40533 8.17926,11.38045 0.0621,5.95046 -3.84274,11.40172 -11.11968,15.52333 -7.66627,4.34211 -12.43877,6.23663 -21.36103,8.47959 l -1.38739,0.34878 0.31606,8.52685 c 0.65652,17.71195 0.84438,19.89434 1.68897,19.62137 2.14426,-0.693 23.66255,-2.03067 33.11606,-2.05865 16.37106,-0.0485 21.33422,1.06575 30.12122,6.76196 7.83426,5.0786 9.96403,8.48206 9.52649,15.22374 -0.5646,8.69929 -5.46108,15.20367 -14.48946,19.24748 -15.27773,6.84289 -21.06002,8.32107 -33.51989,8.56905 -6.51397,0.12964 -6.72782,0.0984 -8.38608,-1.22329 z m -29.86261,-12.97619 c 2.1608,-4.32665 3.88208,-12.21241 4.27514,-19.58598 0.29409,-5.51687 0.25358,-5.98429 -0.49138,-5.67021 -0.44652,0.18828 -2.1527,0.72311 -3.79148,1.18853 -10.075988,2.86157 -14.853336,5.37068 -16.372799,8.59915 -2.238262,4.75576 3.964277,14.91186 10.810789,17.7017 1.68387,0.68616 3.2656,1.18587 3.51495,1.11048 0.24934,-0.0754 1.17399,-1.58004 2.05478,-3.34367 z m -2.38834,-65.70434 5.87025,-0.95384 v -1.70143 c 0,-2.21618 -2.3533,-28.2046 -2.63175,-29.0634 -0.16167,-0.49862 -2.91782,-0.67253 -11.36994,-0.71744 -6.136101,-0.0326 -14.230162,-0.21031 -17.986801,-0.39489 l -6.830255,-0.33563 -0.245766,1.57959 c -1.343828,8.63707 -1.561327,18.19812 -0.524149,23.04098 0.357253,1.66811 1.216453,3.93176 1.909333,5.03032 0.69288,1.09856 1.259781,2.27131 1.259781,2.6061 0,0.57153 2.072331,1.40124 4.792047,1.91862 2.968535,0.56472 20.234838,-0.11165 25.75725,-1.00898 z m 20.97107,-6.05306 c 8.7362,-3.90568 14.65035,-8.78464 16.80122,-13.86038 1.97136,-4.65216 1.25916,-8.50724 -1.78585,-9.66655 -3.73449,-1.42181 -14.76579,-2.79684 -22.43797,-2.79684 h -3.20432 l 0.84901,6.9765 c 0.46695,3.83706 1.11384,10.44123 1.43754,14.67592 l 0.58854,7.69943 1.52242,-0.46187 c 0.83734,-0.25404 3.64057,-1.40883 6.22941,-2.56621 z m 20.59994,-20.53197 c -0.79069,-0.57536 -1.65326,-1.04611 -1.91682,-1.04611 -0.26357,0 0.16771,0.47075 0.9584,1.04611 0.79069,0.57537 1.65326,1.04612 1.91682,1.04612 0.26357,0 -0.16772,-0.47075 -0.9584,-1.04612 z"
       style="opacity:1;fill:#999999;stroke-width:0.502309" />
    <path
       id="path14"
       d="m 131.19414,312.71596 c 0.39535,-0.247 9.77578,-3.79924 20.8454,-7.89388 23.84995,-8.82204 21.51095,-7.91816 21.24532,-8.21001 -0.11906,-0.13083 -1.49769,-0.0129 -3.06362,0.26189 -2.66802,0.46829 -18.93357,2.8016 -31.35983,4.49859 -3.03096,0.41394 -11.76447,1.03067 -19.40779,1.37054 -12.19146,0.54211 -14.8993,0.51097 -22.064764,-0.25372 -7.488158,-0.79912 -16.569138,-2.80011 -20.56512,-4.5315 -4.342208,-1.88143 -16.833098,-11.5581 -22.415537,-17.3653 -7.208627,-7.49884 -12.410313,-16.78758 -14.285435,-25.50973 -1.328142,-6.17784 -1.071615,-9.11114 1.277893,-14.6123 1.385144,-3.24318 2.495277,-4.92562 4.840931,-7.33654 1.906787,-1.95986 3.458809,-3.12833 4.155191,-3.12833 1.289382,0 5.03245,2.98214 6.19953,4.93923 1.125023,1.88656 1.016497,3.31145 -0.279436,3.66881 -0.593864,0.16377 -2.300588,1.57641 -3.79272,3.1392 -2.283112,2.39121 -2.871305,3.40467 -3.712294,6.39637 -0.54963,1.95523 -0.999326,4.8082 -0.999326,6.33994 0,7.91093 5.981592,20.22333 13.586511,27.96619 3.320916,3.38114 8.668357,7.6931 9.037524,7.28748 0.110412,-0.1213 2.412332,0.47399 5.115381,1.32289 9.879951,3.10286 13.256995,3.44286 33.838381,3.40679 10.57384,-0.0186 20.76979,-0.29198 23.48103,-0.62977 12.48201,-1.55505 28.55819,-3.91986 31.1483,-4.58192 6.19535,-1.58365 11.85071,-2.07287 15.86808,-1.37268 8.4096,1.46569 9.95672,2.16044 15.66166,7.03313 1.74681,1.49197 1.78607,1.59372 0.98866,2.56189 -0.45675,0.55452 -1.11358,0.88881 -1.45965,0.74289 -0.3461,-0.14592 -0.62926,-0.0581 -0.62926,0.19529 0,0.25331 -1.13212,0.62382 -2.51583,0.82331 -4.76248,0.68661 -16.43084,3.48089 -25.27803,6.05344 -4.87591,1.41779 -14.49115,3.77506 -21.36722,5.23836 -12.26008,2.60907 -15.61103,3.12726 -14.09393,2.17945 z"
       style="opacity:1;fill:#999999;stroke-width:0.502309" />
    <path
       transform="scale(0.26458333)"
       id="path16"
       d=""
       style="opacity:0.7;fill:#b3b3b3;stroke-width:2.85714" />
    <path
       id="path18"
       d="m 137.102,267.42005 c -1.98055,-1.32691 -4.21442,-4.85751 -3.38687,-5.35291 0.32661,-0.19552 4.15193,-0.87407 8.50072,-1.50792 12.10892,-1.76489 18.09362,-3.52581 27.93931,-8.22072 8.73182,-4.16377 12.56413,-8.6234 13.5372,-15.75318 0.66681,-4.88563 -2.66414,-10.24512 -6.39145,-10.28384 -0.97919,-0.0102 -3.18201,-0.37746 -4.89517,-0.81619 -4.37366,-1.12007 -22.51177,-1.55817 -33.30472,-0.80444 -7.47464,0.52199 -18.57174,2.11479 -19.13311,2.74624 -0.10229,0.11506 -0.41874,4.37221 -0.70322,9.46033 -0.75378,13.48177 -2.44661,21.83424 -5.37791,26.53464 -1.39141,2.23116 -2.42797,2.54536 -5.47267,1.65886 -7.2709,-2.11701 -21.362073,-13.56896 -25.57756,-20.78694 -4.034803,-6.90864 -2.243545,-13.72253 4.451709,-16.93415 2.577002,-1.23616 11.521532,-3.43281 18.668831,-4.58481 l 5.67166,-0.91416 -0.33779,-13.6979 c -0.18578,-7.53386 -0.40788,-13.78346 -0.49356,-13.88803 -0.0856,-0.10457 -2.80939,0.12824 -6.05268,0.51733 -3.24329,0.38909 -9.994093,0.70976 -15.001781,0.71261 -12.410985,0.007 -15.811021,-1.16555 -21.992369,-7.58456 -3.280197,-3.40631 -4.379627,-5.81938 -4.814664,-10.56741 -0.537137,-5.86238 1.114259,-21.07613 3.086241,-28.4325 0.504586,-1.88234 1.368604,-5.67333 1.920038,-8.42444 2.833441,-14.13606 11.150122,-48.260043 11.98764,-49.186222 0.478603,-0.529267 7.020512,0.567146 7.399018,1.240064 0.123554,0.219655 -1.396033,5.440825 -3.376857,11.602598 -5.888575,18.31766 -11.506408,39.91973 -11.132582,42.80776 0.128587,0.9934 0.5481,1.22288 2.786997,1.52453 4.30966,0.58065 19.897251,1.48876 25.554149,1.48876 h 5.25847 l -0.31323,-4.87037 c -0.51835,-8.06007 -3.86866,-35.69294 -5.86332,-48.360005 l -0.29824,-1.893926 2.63666,0.393139 c 4.12064,0.614403 4.58509,0.891083 5.08895,3.03157 0.51161,2.173442 2.9185,21.561712 2.9185,23.509522 0,0.68718 -0.26955,1.36891 -0.59901,1.51498 -0.35784,0.15865 -0.26138,0.28231 0.2396,0.30714 0.46124,0.0229 0.83861,0.39698 0.83861,0.83137 0,0.89412 -0.7504,1.05903 -1.19801,0.26325 -0.1629,-0.28958 -0.55299,-0.518 -0.86689,-0.50758 -0.3139,0.0104 0.0313,0.5603 0.76709,1.22198 1.30219,1.17102 1.37237,1.51047 2.63563,12.74937 l 1.29781,11.5463 7.42768,0.6231 c 12.48275,1.04717 16.67962,2.4645 24.734,8.35293 3.05242,2.2316 4.15996,3.38649 4.93535,5.14641 1.7225,3.90959 1.06647,8.79083 -1.7212,12.80657 -3.62767,5.2258 -13.88614,10.97457 -25.72903,14.41837 -2.8647,0.83302 -5.26016,1.58508 -5.32324,1.67124 -0.19651,0.2684 0.72353,21.03303 1.09176,24.64019 l 0.34936,3.42243 1.6701,-0.0978 c 0.91856,-0.0538 4.79692,-0.359 8.61858,-0.67826 11.18486,-0.9344 30.31667,-1.26609 35.98493,-0.62389 6.40116,0.72523 11.55651,2.51504 16.63092,5.77383 5.18098,3.32723 8.01597,5.97267 9.25088,8.63229 1.49199,3.21337 1.17614,10.08053 -0.65177,14.1702 -2.77934,6.21838 -7.5029,9.89059 -18.59452,14.45594 -10.61493,4.36911 -18.61372,6.02096 -29.13368,6.01649 -3.72321,-0.002 -4.91689,-0.19988 -6.14129,-1.02018 z m -31.07171,-11.60477 c 1.62242,-2.82386 3.40486,-8.81746 4.30053,-14.46077 0.77701,-4.89579 0.99622,-12.40189 0.36218,-12.40189 -0.206,0 -3.06325,0.84813 -6.34946,1.88474 -7.076468,2.23223 -11.191865,4.27682 -13.162986,6.53958 -3.148129,3.61391 -1.238559,9.66394 5.118706,16.21748 1.536903,1.58435 6.49466,4.2744 7.93361,4.30472 0.32615,0.006 1.13498,-0.93086 1.79742,-2.08386 z m -2.39041,-66.84909 c 7.08862,-1.13939 6.46991,-0.7689 6.46423,-3.87087 -0.006,-3.25689 -2.25252,-27.60485 -2.60486,-28.23124 -0.13441,-0.23896 -6.8801,-0.59222 -14.990407,-0.78502 -8.11031,-0.1928 -16.17325,-0.47587 -17.917641,-0.62905 -2.574621,-0.22609 -3.224943,-0.12583 -3.454897,0.53259 -0.771005,2.20763 -1.366581,10.68847 -1.204896,17.15737 0.179977,7.20071 0.191656,7.26524 2.038019,11.2621 2.579187,5.58321 2.852658,5.66777 17.294307,5.34762 6.061941,-0.13438 12.531205,-0.48696 14.376145,-0.7835 z m 20.80697,-5.89474 c 9.37623,-4.18824 15.32544,-9.03254 17.55528,-14.29483 1.23834,-2.92241 1.50268,-6.08362 0.65436,-7.82528 -1.17289,-2.40797 -8.52185,-4.0215 -20.51448,-4.50414 l -7.85413,-0.31608 0.29196,1.79155 c 0.55183,3.38623 2.70797,25.1941 2.71595,27.46981 0.002,0.61026 2.148,-0.0863 7.15106,-2.32103 z M 147.0079,162.8869 c 0,-0.41448 -2.94608,-1.95403 -3.20173,-1.67313 -0.13059,0.14349 0.37464,0.62534 1.12273,1.0708 1.40854,0.8387 2.079,1.03296 2.079,0.60233 z"
       style="opacity:1;fill:#999999;stroke-width:0.502309" />
    <path
       id="path20"
       d="m 137.5535,267.42104 c -1.73064,-0.87417 -3.95523,-3.60609 -3.96154,-4.86495 -0.003,-0.4409 2.92941,-1.055 12.21793,-2.55933 16.96025,-2.74683 31.82407,-9.74306 35.81592,-16.85815 0.74045,-1.3198 1.59175,-3.84992 1.89176,-5.62248 0.46431,-2.74321 0.42562,-3.56778 -0.26003,-5.54038 -1.41961,-4.08429 -2.88787,-5.12979 -8.78719,-6.25712 -6.92526,-1.32338 -24.48644,-1.83422 -35.57503,-1.03483 -8.09532,0.58359 -17.59363,1.91732 -18.60203,2.61204 -0.27179,0.18725 -0.74337,4.24992 -1.04796,9.02817 -0.90164,14.14485 -2.71782,22.86455 -5.68763,27.30704 -1.1249,1.68269 -1.30498,1.75889 -3.63387,1.53733 -6.94073,-0.66032 -24.06568,-14.37575 -27.569891,-22.08083 -3.223393,-7.08759 -0.961264,-13.38531 5.744691,-15.99312 3.700253,-1.43895 13.77955,-3.71359 20.99836,-4.73878 l 2.5819,-0.36668 -0.34772,-13.76196 c -0.19123,-7.56908 -0.41576,-13.83778 -0.49893,-13.93043 -0.0832,-0.0927 -3.13746,0.11123 -6.78729,0.4531 -9.391651,0.87968 -24.583482,0.4506 -27.708482,-0.7826 -4.54516,-1.79364 -10.08322,-6.76802 -11.949369,-10.73313 -2.359077,-5.01246 -1.706485,-18.37425 1.650164,-33.78702 1.040623,-4.77825 2.772789,-12.71565 3.84926,-17.63868 2.079468,-9.51006 8.66498,-36.435214 9.485106,-38.780276 0.268674,-0.768244 0.663531,-1.513394 0.877459,-1.65589 0.562354,-0.374579 6.057584,0.648394 6.584139,1.225681 0.273331,0.299666 -1.426959,6.630255 -4.411909,16.426605 -6.322803,20.75088 -10.245413,36.49362 -9.5729,38.41923 0.190589,0.54572 1.30632,0.9117 3.554503,1.16597 5.725035,0.64749 17.925346,1.3303 24.074599,1.34738 l 5.94252,0.0165 -0.2934,-4.87038 c -0.49011,-8.13533 -4.82679,-43.74024 -5.94208,-48.785518 -0.275809,-1.247707 -0.240681,-1.261906 2.38518,-0.964129 4.98251,0.565024 5.01046,0.622966 6.53392,13.550837 1.55697,13.21212 1.58209,13.56142 1.00341,13.95439 -0.3617,0.24561 -0.26937,0.57596 0.28558,1.02183 0.53578,0.43046 0.64027,0.78097 0.30139,1.0111 -0.28528,0.19372 -0.65413,0.11142 -0.81968,-0.1829 -0.16555,-0.29432 -0.54426,-0.53512 -0.84158,-0.53512 -0.29731,0 0.0387,0.66425 0.74652,1.4761 1.20684,1.38408 1.36506,2.16359 2.53815,12.50502 0.68809,6.06593 1.38919,11.18676 1.55799,11.37963 0.16882,0.19286 3.54157,0.62335 7.495,0.95663 8.19372,0.69074 12.41172,1.55049 16.44825,3.35265 3.40216,1.51895 9.91205,6.03202 11.64911,8.07593 2.5835,3.03985 2.93175,7.88652 0.88366,12.29758 -2.88347,6.21023 -11.72643,11.80652 -25.81871,16.33943 -3.53199,1.13611 -6.49002,2.06564 -6.5734,2.06564 -0.43771,0 1.15711,27.48286 1.62464,27.99655 0.19869,0.21831 2.29924,0.1756 4.66789,-0.0949 7.02554,-0.80232 19.84136,-1.31458 31.8609,-1.2735 10.62188,0.0363 11.52554,0.11749 15.91483,1.42999 9.63019,2.87961 18.74692,9.50178 20.02146,14.54308 1.56016,6.17108 -0.57602,13.94211 -5.09954,18.55119 -5.66498,5.7721 -20.79309,12.05824 -33.30297,13.83825 -7.76814,1.1053 -13.66421,1.03503 -16.09306,-0.1918 z m -31.55197,-11.48389 c 1.56945,-2.63228 3.42413,-8.87957 4.32929,-14.58264 0.81275,-5.12089 0.98643,-12.40189 0.29584,-12.40189 -0.24249,0 -3.07777,0.83392 -6.30065,1.85317 -6.951463,2.19844 -11.175833,4.3101 -13.145456,6.57115 -1.203169,1.38119 -1.432155,2.06101 -1.404137,4.16865 0.0663,4.98737 4.843419,11.70565 10.509023,14.7793 1.58138,0.85792 3.24954,1.56591 3.70704,1.5733 0.45749,0.007 1.36156,-0.87506 2.00905,-1.96104 z m -1.88245,-66.9989 c 6.35578,-1.00847 5.99005,-0.77081 5.99005,-3.89242 0,-2.59712 -1.57796,-21.12884 -2.21355,-25.99625 -0.16118,-1.23432 -0.43408,-2.33997 -0.60644,-2.45702 -0.28149,-0.19115 -23.63383,-0.94082 -32.641147,-1.04785 l -3.594035,-0.0427 -0.608945,4.4755 c -0.347172,2.55155 -0.553173,7.89248 -0.479204,12.42421 l 0.129739,7.94873 1.842791,3.98673 c 1.812447,3.92109 2.391842,4.49982 5.345278,5.33919 1.543808,0.43876 23.166623,-0.15597 26.835463,-0.7381 z m 19.65842,-5.56267 c 11.87392,-4.94192 19.37743,-12.52772 19.39208,-19.6047 0.006,-3.14994 -1.34614,-4.50213 -5.54806,-5.54615 -4.50664,-1.11972 -12.1973,-1.93294 -18.27991,-1.93294 h -5.04213 l 0.29527,2.02886 c 0.30639,2.10524 2.70246,26.03203 2.70246,26.98631 0,0.66066 0.88911,0.39568 6.48029,-1.93138 z m 23.2304,-20.48868 c 0,-0.41448 -2.94608,-1.95403 -3.20173,-1.67313 -0.13059,0.14349 0.37464,0.62534 1.12273,1.0708 1.40854,0.8387 2.079,1.03296 2.079,0.60233 z"
       style="opacity:1;fill:#999999;stroke-width:0.502309" />
    <path
       id="path22"
       d="m 111.54675,124.00181 c 0,-0.45996 3.88464,-1.92034 11.38111,-4.27858 23.25967,-7.31705 29.17326,-9.31027 31.62751,-10.6603 1.3837,-0.76113 2.51582,-1.55416 2.51582,-1.76226 0,-0.43419 -6.11177,-2.57551 -11.74051,-4.1134 -5.73612,-1.56723 -18.02498,-4.210951 -28.27308,-6.08243 l -9.10489,-1.662708 -0.443,-1.952524 c -0.24365,-1.073889 -0.34097,-2.064635 -0.21626,-2.201657 0.2199,-0.24162 4.07964,0.408627 24.99699,4.211218 13.25181,2.409064 23.34718,5.131241 26.69757,7.198891 1.44959,0.8946 4.19904,2.55278 6.10986,3.68485 3.22109,1.90833 3.47424,2.18358 3.47424,3.77764 0,3.34316 -2.77423,4.90887 -11.7231,6.61627 -10.70717,2.04286 -43.74301,7.9233 -44.51252,7.9233 -0.43435,0 -0.78974,-0.31424 -0.78974,-0.69831 z m 53.67808,-12.9671 c -0.65496,-0.55294 -1.28615,-0.90063 -1.40263,-0.77264 -0.27099,0.29775 1.48027,1.76628 2.11428,1.77294 0.26356,0.003 -0.0567,-0.44737 -0.71165,-1.0003 z m -6.47642,-4.76306 c -0.16289,-0.28959 -0.51181,-0.52652 -0.77537,-0.52652 -0.26356,0 -0.34593,0.23693 -0.18304,0.52652 0.16289,0.28959 0.51181,0.52653 0.77537,0.52653 0.26356,0 0.34593,-0.23694 0.18304,-0.52653 z"
       style="opacity:1;fill:#999999;stroke-width:0.502309" />
    <path
       id="path24"
       d="m 112.02596,124.16692 c 0,-0.62969 2.00954,-1.3852 13.18299,-4.95627 25.22615,-8.06236 31.86224,-10.5421 31.86224,-11.90611 0,-0.7039 -8.38682,-3.44756 -16.77216,-5.48684 -7.38446,-1.79587 -28.63396,-6.076604 -30.16417,-6.076604 -1.19558,0 -2.26845,-1.134966 -2.613,-2.76427 -0.26868,-1.270478 -0.16541,-1.447951 0.84256,-1.447951 2.21858,0 30.33969,5.315483 37.86665,7.157598 8.72684,2.135767 10.28644,2.749077 16.74631,6.585447 5.24084,3.11242 5.9667,4.00714 5.10508,6.29271 -1.19321,3.16515 -3.58231,3.81145 -33.77349,9.13647 -22.20036,3.91562 -22.28301,3.92847 -22.28301,3.46582 z m 53.24363,-13.1872 c -0.63035,-0.57679 -1.27695,-0.90494 -1.43686,-0.72923 -0.34033,0.37394 1.33259,1.8211 2.07554,1.79546 0.27908,-0.01 -0.008,-0.48944 -0.63868,-1.06623 z m -6.52118,-4.70807 c -0.16289,-0.28959 -0.51181,-0.52652 -0.77537,-0.52652 -0.26356,0 -0.34593,0.23693 -0.18304,0.52652 0.16289,0.28959 0.51181,0.52653 0.77537,0.52653 0.26356,0 0.34593,-0.23694 0.18304,-0.52653 z"
       style="opacity:1;fill:#999999;stroke-width:0.502309" />
    <path
       id="path26"
       d="m 75.606401,88.688064 c -4.215619,-1.395402 -6.156416,-2.450398 -12.938524,-7.033228 -4.974494,-3.361384 -7.188071,-5.202344 -7.188071,-5.978093 0,-1.601543 5.908321,-0.411524 8.324412,1.676652 2.432893,2.102701 7.257187,4.589764 12.123819,6.250178 l 4.87408,1.662958 -0.726085,2.341381 c -0.399348,1.28776 -0.759726,2.325275 -0.800841,2.305591 -0.04112,-0.01969 -1.69207,-0.571131 -3.66879,-1.225439 z"
       style="opacity:1;fill:#999999;stroke-width:0.502309" />
    <path
       id="path28"
       d="m 98.368624,93.856784 c -0.26356,-0.08073 -2.556173,-0.541986 -5.094688,-1.025022 l -4.615483,-0.878248 0.734735,-2.055166 c 0.82918,-2.319346 1.009278,-2.361677 5.839172,-1.372429 3.075969,0.630012 3.095611,0.645248 3.48496,2.704356 0.434368,2.297221 0.361767,2.84411 -0.348696,2.626509 z"
       style="opacity:1;fill:#999999;stroke-width:0.502309" />
    <path
       id="path30"
       d="m 101.51033,89.231844 -2.608736,-0.610336 -1.062172,-4.768686 c -1.345189,-6.039311 -2.44696,-9.009278 -3.082961,-8.310474 -0.261434,0.287252 -1.423608,2.83576 -2.582609,5.663349 -1.158999,2.827589 -2.191809,5.233957 -2.295132,5.347483 -0.242033,0.265935 -7.504572,-1.62896 -7.897349,-2.060526 -0.422597,-0.464329 3.455698,-13.02978 5.425699,-17.578951 1.951006,-4.505309 2.186681,-4.576001 6.780774,-2.033982 4.171117,2.307978 5.659787,3.977434 7.565186,8.483947 1.77618,4.200915 4.18069,13.411416 3.9548,15.148977 -0.18263,1.404891 -0.80838,1.512108 -4.1975,0.719199 z M 98.129018,70.73103 c 0,-0.434385 -0.215642,-0.789793 -0.479202,-0.789793 -0.26356,0 -0.479202,0.355408 -0.479202,0.789793 0,0.434385 0.215642,0.789791 0.479202,0.789791 0.26356,0 0.479202,-0.355406 0.479202,-0.789791 z"
       style="opacity:1;fill:#999999;stroke-width:0.502309" />
    <path
       id="path32"
       d="m 100.35529,88.97758 c -1.26662,-0.319125 -1.448373,-0.695009 -2.457928,-5.083357 -1.1358,-4.93712 -2.383441,-8.687708 -2.889973,-8.687708 -0.16242,0 -1.355284,2.487843 -2.65081,5.528541 -1.695398,3.979231 -2.593109,5.526237 -3.203377,5.520317 -1.385285,-0.01344 -6.413233,-1.418187 -6.829525,-1.908088 -0.48604,-0.571985 2.701974,-11.363865 4.903785,-16.60001 0.914806,-2.175505 2.04857,-4.117914 2.519476,-4.316462 1.106156,-0.46639 6.190564,2.129599 8.461164,4.320087 0.940995,0.907795 2.355218,3.134384 3.142718,4.947972 1.61908,3.728685 3.88274,11.845174 4.07685,14.617782 0.12679,1.810958 0.0958,1.844255 -1.78779,1.92419 -1.05425,0.04474 -2.53232,-0.07373 -3.28459,-0.263264 z M 98.129018,70.73103 c 0,-0.434385 -0.215642,-0.789793 -0.479202,-0.789793 -0.26356,0 -0.479202,0.355408 -0.479202,0.789793 0,0.434385 0.215642,0.789791 0.479202,0.789791 0.26356,0 0.479202,-0.355406 0.479202,-0.789791 z"
       style="opacity:1;fill:#999999;stroke-width:0.502309" />
    <path
       id="path34"
       d="m 85.191905,91.335863 c -8.39e-4,-0.250954 -0.540515,-0.343045 -1.199423,-0.204646 -0.658906,0.138395 -1.19801,0.04755 -1.19801,-0.201885 0,-0.249431 -0.377374,-0.45714 -0.838608,-0.461576 -1.803475,-0.01734 -2.159107,-0.736883 -1.52093,-3.077278 0.326933,-1.198963 0.651823,-2.179935 0.72198,-2.179935 0.07016,0 2.068511,0.491024 4.44079,1.091168 l 4.313233,1.091168 -0.754192,2.235874 c -0.686247,2.03444 -0.898756,2.232607 -2.358812,2.199629 -0.882539,-0.01993 -1.605251,-0.241568 -1.606028,-0.492519 z"
       style="opacity:1;fill:#999999;stroke-width:0.502309" />
    <path
       id="path36"
       d="M 74.162707,87.934498 C 68.810203,85.809411 58.846788,79.372013 56.419539,76.470571 l -1.179335,-1.409728 2.820576,0.305445 c 2.042551,0.221191 3.562661,0.804878 5.510853,2.116042 4.255892,2.864278 7.14107,4.322043 12.11537,6.121407 2.548175,0.921759 4.751738,2.015778 4.896808,2.431156 0.14507,0.415377 0.03692,0.755233 -0.240336,0.755233 -0.277255,0 -0.414889,0.294056 -0.305857,0.653458 0.240491,0.792717 -0.767868,1.990368 -1.64156,1.949719 -0.348279,-0.0162 -2.253288,-0.672667 -4.233351,-1.458805 z"
       style="opacity:1;fill:#999999;stroke-width:0.502309" />
    <path
       id="path38"
       d="m 112.76872,123.6742 c 0.25038,-0.27466 7.14015,-2.66296 15.31059,-5.30731 23.29914,-7.54073 28.99188,-9.70255 28.99188,-11.00964 0,-0.64868 -6.21419,-2.84816 -13.41773,-4.74914 -6.35891,-1.67809 -31.52106,-6.867014 -33.29956,-6.867014 -0.58005,0 -1.41152,-0.433295 -1.84772,-0.962882 -0.88724,-1.07721 -1.07288,-3.249339 -0.27771,-3.249339 3.06565,0 38.68584,7.169756 44.44123,8.945285 3.75313,1.15783 10.04646,4.42577 13.41383,6.96538 1.78743,1.34806 2.04417,1.77733 1.91682,3.20505 -0.19666,2.20469 -2.27073,3.68773 -6.72666,4.80982 -5.66212,1.42583 -45.95205,8.71919 -48.1665,8.71919 -0.50091,0 -0.62577,-0.18423 -0.33847,-0.4994 z m 52.50087,-12.69448 c -0.63035,-0.57679 -1.27695,-0.90494 -1.43686,-0.72923 -0.34033,0.37394 1.33259,1.8211 2.07554,1.79546 0.27908,-0.01 -0.008,-0.48944 -0.63868,-1.06623 z m -6.52118,-4.70807 c -0.16289,-0.28959 -0.51181,-0.52652 -0.77537,-0.52652 -0.26356,0 -0.34593,0.23693 -0.18304,0.52652 0.16289,0.28959 0.51181,0.52653 0.77537,0.52653 0.26356,0 0.34593,-0.23694 0.18304,-0.52653 z"
       style="opacity:1;fill:#999999;stroke-width:0.502309" />
    <path
       id="path40"
       d="m 139.10102,267.9523 c -0.79069,-0.21016 -1.88341,-0.68974 -2.42828,-1.06574 -1.18818,-0.81993 -3.33307,-4.13644 -2.94847,-4.55902 0.14979,-0.16458 4.43984,-0.99753 9.53342,-1.85097 13.32196,-2.23212 19.75372,-4.25006 28.51839,-8.94753 6.56911,-3.52076 9.76876,-6.91415 11.14899,-11.82412 1.24794,-4.43935 1.2331,-5.76992 -0.0966,-8.66201 -1.57752,-3.43105 -3.29855,-4.43468 -9.56612,-5.57858 -7.57705,-1.38288 -33.31741,-1.38967 -43.26619,-0.0114 -9.34297,1.29434 -10.30231,1.60977 -10.30531,3.38834 -0.007,3.93628 -1.5397,19.38801 -2.3441,23.62603 -1.04399,5.50025 -3.09498,10.93864 -4.54664,12.05584 -1.45978,1.12345 -3.75497,0.92805 -6.87032,-0.58489 -6.00012,-2.91387 -13.584462,-8.78918 -19.356105,-14.99446 -3.768179,-4.05128 -5.911074,-8.92216 -5.581783,-12.68759 0.305629,-3.49485 2.287603,-6.57545 5.287448,-8.21832 2.586004,-1.41625 11.808509,-3.80493 19.94329,-5.16543 l 5.45797,-0.91282 -0.34137,-13.74171 c -0.18777,-7.55795 -0.4144,-13.82194 -0.50363,-13.91999 -0.0892,-0.098 -3.00092,0.0864 -6.47043,0.41007 -6.990261,0.65197 -18.968945,0.64501 -24.323547,-0.0141 -5.724157,-0.70461 -12.420872,-5.47819 -15.340345,-10.93495 -1.195306,-2.23414 -1.33016,-3.02343 -1.486352,-8.69967 -0.279149,-10.14469 0.5859,-15.61447 7.131626,-45.09384 3.810109,-17.15923 8.97364,-37.421879 9.740237,-38.222469 0.398929,-0.41662 1.412101,-0.41662 3.666111,0 2.930674,0.54169 3.105742,0.653553 2.96109,1.892048 -0.08456,0.723975 -2.066426,7.713631 -4.404154,15.532571 -5.816297,19.45361 -9.578642,34.11404 -9.578642,37.32432 0,1.43135 0.492882,1.70703 3.833637,2.14426 4.26813,0.5586 18.089263,1.33247 23.840429,1.33487 l 5.87026,0.003 -0.004,-2.501 c -0.007,-4.08978 -3.26611,-32.73719 -5.25615,-46.20281 -0.47078,-3.185497 -0.78346,-5.879699 -0.69486,-5.987118 0.39499,-0.478893 5.54825,0.61299 6.18261,1.309985 1.07187,1.177728 1.57683,3.830783 2.89212,15.194963 0.84398,7.29204 1.05654,10.61669 0.70825,11.07779 -0.35832,0.47439 -0.28448,0.7487 0.26377,0.97986 0.41878,0.17657 0.61558,0.58029 0.43735,0.89716 -0.23335,0.41487 -0.46987,0.41591 -0.84502,0.004 -1.17586,-1.29199 -1.28175,-0.45341 -0.13227,1.04758 0.68234,0.89097 1.2406,1.86754 1.2406,2.17014 0,0.30261 0.30655,2.94997 0.6812,5.88304 0.37467,2.93308 0.95527,7.66793 1.29024,10.5219 0.33497,2.85398 0.83709,5.27226 1.11582,5.37393 0.27873,0.10168 3.41795,0.44 6.97605,0.75182 10.72168,0.93959 15.61072,2.34313 21.52835,6.18036 7.31902,4.74593 8.73953,6.67463 8.81841,11.97318 0.0386,2.59298 -0.19822,3.68643 -1.20647,5.57069 -3.78519,7.07385 -12.69776,12.35173 -29.79364,17.64329 l -2.80977,0.86969 0.31592,6.13199 c 0.66537,12.91465 1.29742,21.41444 1.61693,21.74427 0.18274,0.18865 3.78253,0.0435 7.99953,-0.32262 4.21701,-0.36609 14.85341,-0.7068 23.63647,-0.75712 14.8213,-0.0849 16.26802,-0.0111 20.12659,1.02713 9.0782,2.44274 18.65523,9.21443 20.48763,14.48634 1.94439,5.59408 -0.48754,14.34241 -5.28375,19.00711 -4.46695,4.34449 -17.47371,10.29482 -27.45488,12.56009 -6.86443,1.5579 -16.71595,2.21929 -20.01115,1.34346 z m -33.09949,-12.01515 c 1.56945,-2.63228 3.42413,-8.87957 4.32929,-14.58264 0.88945,-5.60424 0.9886,-12.40189 0.18089,-12.40189 -1.29728,0 -12.379248,3.88821 -15.018318,5.26931 -1.581373,0.82758 -3.522152,2.24734 -4.312838,3.15501 -2.827691,3.24606 -1.535576,8.5385 3.501123,14.34041 2.558586,2.9473 7.382593,6.14965 9.310803,6.18084 0.45749,0.007 1.36156,-0.87506 2.00905,-1.96104 z m -1.88245,-66.9989 c 6.34931,-1.00744 5.99001,-0.77587 5.99034,-3.8609 3.4e-4,-3.05913 -1.75551,-23.16637 -2.30677,-26.41618 l -0.35725,-2.10612 -7.892821,-0.32178 C 95.21153,156.0563 87.023452,155.81936 81.356858,155.70675 l -10.3029,-0.20476 -0.612405,4.47549 c -0.35871,2.62148 -0.55463,7.85633 -0.472942,12.63667 l 0.139463,8.16118 1.880207,3.79416 c 1.817835,3.66829 2.479777,4.30667 5.295336,5.10686 1.543808,0.43876 23.166623,-0.15597 26.835463,-0.7381 z m 18.68898,-5.12371 c 12.48185,-5.03551 20.34648,-12.77737 20.36152,-20.04366 0.006,-3.14994 -1.34614,-4.50213 -5.54806,-5.54615 -6.90801,-1.71637 -23.19954,-2.67641 -23.19954,-1.36712 0,0.31121 0.4216,4.39837 0.93688,9.08261 0.51529,4.68422 1.08294,10.29381 1.26146,12.46574 0.17852,2.17192 0.38735,4.30436 0.46407,4.73874 0.0767,0.43439 0.15599,1.2204 0.17615,1.7467 0.0419,1.09381 0.28292,1.04703 5.54752,-1.07686 z M 147.0079,162.8869 c 0,-0.41448 -2.94608,-1.95403 -3.20173,-1.67313 -0.13059,0.14349 0.37464,0.62534 1.12273,1.0708 1.40854,0.8387 2.079,1.03296 2.079,0.60233 z"
       style="opacity:1;fill:#999999;stroke-width:0.502309" />
    <path
       id="path42"
       d="m 138.14261,267.7175 c -2.18133,-1.09652 -4.55244,-3.82505 -4.55244,-5.23868 0,-0.39752 1.77021,-0.77189 10.21149,-2.15954 9.91106,-1.62927 16.14278,-3.39147 23.40181,-6.61757 6.68745,-2.97208 11.87278,-6.62067 13.8132,-9.71949 1.77301,-2.83146 3.1216,-7.98373 2.71248,-10.36294 -0.39797,-2.3144 -1.86537,-4.91468 -3.39486,-6.0158 -3.18374,-2.29207 -17.00816,-3.64271 -32.84719,-3.20914 -6.19372,0.16954 -12.01606,0.42664 -12.93853,0.57131 -0.92247,0.14467 -3.83363,0.53157 -6.46926,0.85978 -2.63563,0.32819 -5.6007,0.8198 -6.58906,1.09246 -1.67943,0.4633 -1.79702,0.62577 -1.79702,2.48288 0,4.51446 -1.54729,19.60864 -2.43672,23.77087 -0.99751,4.66797 -2.81036,9.57446 -4.1292,11.17568 -2.9482,3.57943 -17.119298,-4.71439 -26.804156,-15.68749 -5.116337,-5.7969 -6.634526,-11.3649 -4.368496,-16.02152 0.634147,-1.30316 1.999009,-3.02308 3.033024,-3.82205 2.275117,-1.75794 9.993526,-3.98377 19.784298,-5.70534 l 6.88256,-1.21021 -0.34678,-13.71783 c -0.19072,-7.54481 -0.40571,-13.78918 -0.47774,-13.87639 -0.072,-0.0872 -2.79749,0.0973 -6.05657,0.40993 -7.194505,0.69022 -22.191122,0.64557 -25.812616,-0.0769 -5.584807,-1.11405 -12.309555,-6.53182 -14.660251,-11.81094 -1.278092,-2.87031 -1.283496,-2.93236 -1.017416,-11.6837 0.270644,-8.90137 0.941331,-13.78941 3.374517,-24.5939 0.652163,-2.8959 2.088336,-9.41168 3.191498,-14.47951 3.559713,-16.35301 9.291545,-39.248679 10.090555,-40.306505 0.492716,-0.652314 6.100895,-0.03918 6.814624,0.745035 0.219387,0.241053 -1.428961,6.575449 -3.662995,14.07644 -4.185336,14.05267 -8.262677,28.56308 -8.936557,31.80337 -0.21079,1.01356 -0.508391,2.43518 -0.661334,3.15916 -0.152942,0.72398 -0.411836,2.41715 -0.575319,3.76262 -0.254189,2.09196 -0.167789,2.49087 0.596494,2.75402 1.720677,0.59245 12.00632,1.3895 22.338146,1.73103 l 10.422704,0.34453 v -2.32996 c 0,-4.10025 -4.95311,-46.50401 -6.01421,-51.487905 -0.265137,-1.245324 -0.23553,-1.256355 2.44409,-0.910317 3.6849,0.475854 4.31724,0.955631 4.96081,3.763885 0.86729,3.784477 2.99327,22.341397 2.68272,23.416487 -0.15332,0.53078 -0.0509,1.11983 0.22774,1.309 0.27859,0.18918 0.37599,0.57603 0.21644,0.85967 -0.18257,0.32457 -0.54069,0.2872 -0.96623,-0.10085 -0.97115,-0.88558 -0.83272,-0.15115 0.28445,1.50912 0.74961,1.11402 1.22643,3.6825 2.17091,11.69392 0.66566,5.64649 1.31361,10.63762 1.43988,11.0914 0.18314,0.65814 1.63283,0.95606 7.16524,1.47255 11.57254,1.08037 15.73199,2.27299 22.01981,6.31361 5.05317,3.24723 7.69282,6.05048 8.38822,8.90811 1.52574,6.26984 -1.81102,12.31559 -9.54666,17.29729 -3.68885,2.37559 -11.02278,5.70428 -15.94562,7.23732 -1.51549,0.47194 -3.95733,1.23537 -5.42632,1.6965 l -2.6709,0.83841 0.28431,5.08502 c 1.01757,18.20014 1.32205,22.49381 1.61414,22.76131 0.18068,0.16548 3.77878,0.0235 7.99579,-0.31542 4.217,-0.33897 14.89128,-0.65989 23.72062,-0.71317 15.674,-0.0946 16.16437,-0.0659 20.75074,1.21353 8.86014,2.47164 17.95363,9.03829 19.77575,14.28061 1.98622,5.71446 -0.36534,14.26212 -5.20575,18.92219 -4.96002,4.77522 -17.39012,10.39686 -28.47714,12.87906 -6.32726,1.41658 -17.94281,1.92996 -20.02172,0.88492 z M 106.6129,254.40737 c 0.88867,-1.78255 2.14967,-5.57356 2.80226,-8.42444 1.39094,-6.07655 2.16762,-17.03031 1.20752,-17.03031 -0.94484,0 -11.541819,3.59095 -14.170874,4.80202 -6.544002,3.01451 -8.126692,6.79087 -5.375585,12.8264 2.118283,4.6472 10.162429,11.57002 13.002689,11.19016 0.57501,-0.0769 1.5222,-1.33429 2.53399,-3.36383 z m -2.73343,-65.48909 c 6.61135,-0.9107 6.39791,-0.67483 6.07499,-6.71347 -0.25168,-4.70655 -1.35152,-16.88276 -2.06824,-22.8973 -0.16469,-1.38206 -0.43412,-2.60429 -0.59873,-2.71607 -0.23712,-0.16102 -20.880893,-0.79847 -33.818739,-1.04428 l -2.377255,-0.0452 -0.431507,2.36937 c -0.237328,1.30316 -0.461416,6.88065 -0.497973,12.39443 l -0.06647,10.02505 1.620298,3.51396 c 1.868742,4.05277 2.760063,5.08065 4.94914,5.7074 2.01554,0.57707 21.857037,0.14404 27.214486,-0.59393 z m 20.56069,-5.84382 c 13.26305,-5.9244 20.69578,-14.72665 18.2947,-21.66564 -0.60833,-1.75802 -2.94321,-2.83726 -8.22774,-3.80306 -5.88179,-1.07494 -20.08514,-1.70413 -20.08514,-0.88974 0,0.3222 0.21361,2.31328 0.47469,4.42464 0.524,4.23753 2.40054,23.01627 2.40054,24.02241 0,0.85567 1.59678,0.38877 7.14295,-2.08861 z M 147.0079,162.8869 c 0,-0.41448 -2.94608,-1.95403 -3.20173,-1.67313 -0.13059,0.14349 0.37464,0.62534 1.12273,1.0708 1.40854,0.8387 2.079,1.03296 2.079,0.60233 z"
       style="opacity:1;fill:#999999;stroke-width:0.502309" />
    <path
       transform="scale(0.26458333)"
       id="path44"
       d=""
       style="opacity:0.7;fill:#b3b3b3;stroke-width:2.85714" />
    <path
       id="path46"
       d="m 138.14261,267.73672 c -2.41592,-1.24674 -5.13343,-4.62348 -4.38374,-5.44719 0.1355,-0.14889 3.54934,-0.83389 7.5863,-1.52226 10.1993,-1.73909 14.27025,-2.6846 19.53141,-4.53633 9.31594,-3.27886 17.24326,-7.94346 19.82839,-11.66745 1.72631,-2.48681 3.34986,-8.04559 3.05576,-10.46243 -0.27833,-2.28721 -1.91481,-5.40931 -3.39325,-6.47369 -5.02554,-3.61804 -36.13648,-4.53061 -54.16742,-1.58888 -2.75822,0.45 -5.32059,0.94705 -5.69415,1.10456 -0.48777,0.20565 -0.77132,1.72536 -1.00605,5.39182 -0.45665,7.1333 -1.33796,15.89996 -1.98794,19.77469 -0.80437,4.79507 -3.57245,11.60351 -5.0774,12.48848 -2.93726,1.72721 -10.91934,-2.30711 -19.816352,-10.01563 -8.247478,-7.14575 -11.374479,-11.98955 -11.455414,-17.74473 -0.03986,-2.83434 0.141497,-3.5195 1.463332,-5.52855 0.856028,-1.30106 2.411005,-2.78265 3.594035,-3.42439 2.809179,-1.52388 10.199921,-3.49775 18.552229,-4.95481 l 6.88292,-1.20073 -0.34714,-13.73207 c -0.19093,-7.55265 -0.41473,-13.81294 -0.49734,-13.91177 -0.0826,-0.0988 -2.851,0.0885 -6.15197,0.41644 -6.780168,0.67343 -21.298782,0.67718 -25.102422,0.006 -5.547378,-0.97818 -12.669536,-6.37489 -14.998506,-11.36489 -1.105988,-2.36967 -1.170121,-2.99482 -1.151662,-11.22644 0.01075,-4.79437 0.298366,-10.37559 0.639147,-12.40272 1.41694,-8.42869 10.560707,-48.86209 13.812237,-61.077221 2.042246,-7.672162 2.003095,-7.632126 6.705696,-6.857286 1.760875,0.290136 2.064798,0.522578 2.064798,1.579171 0,0.681425 -1.711565,7.004986 -3.80348,14.052356 -4.709873,15.8669 -7.306059,25.38639 -8.879382,32.55819 -1.513513,6.89917 -1.5285,7.7982 -0.135861,8.15098 2.383208,0.60372 12.189849,1.34725 22.118094,1.67695 l 10.497391,0.34862 -0.33835,-4.95665 c -0.55223,-8.08998 -5.13823,-46.423673 -5.87796,-49.132972 -0.254052,-0.930504 -0.0766,-0.97566 2.51724,-0.640693 3.22301,0.416209 4.15631,1.158539 4.88821,3.887974 0.6675,2.489271 2.5127,17.194701 2.64988,21.118411 0.0569,1.62896 0.2948,3.29525 0.52854,3.70285 0.33047,0.5763 0.19518,0.67508 -0.60837,0.44419 -1.27349,-0.36591 -1.28157,-0.19633 -0.0763,1.60031 0.74803,1.11494 1.22697,3.72728 2.1922,11.95718 0.67928,5.79181 1.48852,10.80272 1.79829,11.13538 0.30979,0.33265 3.39746,0.87233 6.86149,1.19929 13.00098,1.22711 18.34686,3.1133 25.79416,9.10099 3.64063,2.92709 4.61977,4.74623 4.71799,8.76547 0.18186,7.44298 -5.45012,13.34518 -17.92469,18.78465 -2.85746,1.24598 -6.38883,2.64 -7.8475,3.09783 -1.45867,0.45783 -3.85402,1.20971 -5.32302,1.67085 l -2.67089,0.83841 0.29017,5.34829 c 0.40567,7.47713 0.66686,11.93675 1.03404,17.65582 l 0.31693,4.93615 5.08495,-0.32948 c 2.79673,-0.1812 13.40521,-0.48029 23.57442,-0.66463 22.75252,-0.41245 23.18213,-0.34507 33.42217,5.24106 5.01588,2.73626 9.29536,6.89288 10.41596,10.1169 1.70206,4.89688 -0.20561,13.32048 -4.02997,17.79506 -3.19655,3.74002 -11.89711,8.47827 -21.33005,11.61619 -8.39413,2.79233 -11.22783,3.31117 -20.43501,3.74146 -5.02166,0.23468 -6.79095,0.13631 -7.90687,-0.43955 z M 106.77876,253.9092 c 0.9357,-2.05655 2.18211,-5.93412 2.7698,-8.61683 1.29005,-5.88879 1.97702,-16.33975 1.07404,-16.33975 -0.94478,0 -11.541871,3.59101 -14.170794,4.80202 -6.544002,3.01451 -8.126692,6.79087 -5.375585,12.8264 2.132457,4.67831 10.153919,11.56034 13.042859,11.19016 0.66235,-0.0849 1.48394,-1.27787 2.65968,-3.862 z m -2.89929,-64.99092 c 6.69375,-0.92205 6.42547,-0.60063 6.04688,-7.24489 -0.43997,-7.7215 -2.18757,-24.5099 -2.59761,-24.95413 -0.26219,-0.28406 -19.741089,-0.96029 -34.102675,-1.18393 l -2.140735,-0.0333 -0.422565,2.36938 c -0.232411,1.30315 -0.455113,6.98965 -0.494892,12.63666 l -0.07233,10.26729 1.77955,3.47367 c 2.034925,3.97215 2.652152,4.64784 4.812467,5.26829 1.995713,0.57317 21.858828,0.13561 27.19191,-0.59901 z m 17.04764,-4.39298 c 10.80998,-4.07842 18.7867,-10.1678 21.30552,-16.26453 1.69021,-4.09108 1.07525,-7.59392 -1.57585,-8.97619 -2.57492,-1.34254 -9.96149,-2.47401 -18.47411,-2.82983 l -7.81346,-0.32661 0.28332,2.58284 c 0.5392,4.9157 2.64468,26.06383 2.64468,26.56409 0,0.65312 -0.19555,0.69351 3.6299,-0.74977 z m 26.08079,-21.6384 c 0,-0.13735 -0.64693,-0.61731 -1.43762,-1.06657 -0.79069,-0.44926 -1.43762,-0.61002 -1.43762,-0.35725 0,0.25277 0.48521,0.7167 1.07822,1.03094 1.20235,0.63714 1.79702,0.76715 1.79702,0.39288 z"
       style="opacity:1;fill:#999999;stroke-width:0.502309" />
    <path
       id="path48"
       d="m 137.53893,267.37167 c -1.9582,-1.10386 -3.94876,-3.45847 -3.94876,-4.67093 0,-0.31728 0.084,-0.57687 0.18666,-0.57687 0.10266,0 1.88171,-0.33905 3.95344,-0.75345 2.07172,-0.41438 4.95281,-0.9102 6.40239,-1.10182 13.13216,-1.7359 29.54523,-8.32206 34.94427,-14.02226 5.51557,-5.82323 6.10437,-15.05651 1.18594,-18.59744 -0.67698,-0.48738 -3.63826,-1.36142 -6.58062,-1.94229 -6.25893,-1.23565 -26.89673,-1.76332 -36.25845,-0.92706 -6.93157,0.61917 -15.73493,1.98356 -16.78588,2.60155 -0.62568,0.36792 -0.8704,1.59517 -1.1223,5.62814 -0.55887,8.94808 -1.76486,18.71369 -2.78267,22.53303 -1.1118,4.17203 -2.82718,8.15552 -3.95467,9.18368 -2.39115,2.18044 -12.14296,-2.65569 -20.579175,-10.20567 -7.774904,-6.95813 -10.602375,-11.26431 -11.134982,-16.95837 -0.269372,-2.87982 -0.183276,-3.24876 1.320097,-5.6568 0.884545,-1.41683 2.476507,-3.10129 3.537692,-3.74324 1.735897,-1.0501 9.368443,-3.30945 14.363528,-4.25181 1.05425,-0.19889 2.30677,-0.43789 2.78338,-0.53112 0.4766,-0.0932 2.59945,-0.4479 4.71744,-0.78817 l 3.8509,-0.61868 -0.3416,-13.49026 c -0.18788,-7.41964 -0.44734,-13.68707 -0.57659,-13.92761 -0.12923,-0.24056 -1.12798,-0.29323 -2.21942,-0.11706 -4.08279,0.659 -24.985136,0.95018 -28.215791,0.39306 -6.100729,-1.05205 -12.753091,-5.78304 -15.591574,-11.08831 -1.284081,-2.40001 -1.30536,-2.58692 -1.296837,-11.39103 0.0047,-4.92303 0.282701,-10.60953 0.617636,-12.63666 1.680032,-10.16806 11.151493,-51.55041 14.822729,-64.762915 0.785213,-2.825915 1.024699,-3.177764 2.270304,-3.335484 0.765872,-0.09698 2.321654,-0.02323 3.457293,0.163893 1.764916,0.290801 2.064798,0.521242 2.064798,1.586655 0,0.685543 -1.423873,6.061352 -3.164167,11.946241 -5.239811,17.71871 -5.401468,18.29362 -7.598276,27.02217 -2.819652,11.20327 -3.469235,14.97984 -2.669947,15.52261 1.130516,0.7677 18.901651,2.0947 28.238632,2.10863 l 4.98254,0.007 -0.30446,-4.34385 c -0.56386,-8.04491 -5.19979,-46.949024 -5.90729,-49.573238 -0.250799,-0.930243 -0.0725,-0.975567 2.52066,-0.640694 3.11121,0.401773 4.2481,1.248233 4.94252,3.679897 0.7523,2.634405 2.98321,22.178315 2.64286,23.152855 -0.1701,0.48704 -0.0155,1.27901 0.34334,1.75992 0.57946,0.77638 0.53174,0.84018 -0.42559,0.56913 -1.31995,-0.37373 -1.33237,-0.21488 -0.12445,1.59193 0.73369,1.09745 1.23237,3.73498 2.16124,11.43065 0.66412,5.50222 1.40408,10.50758 1.64435,11.12301 0.38739,0.99227 0.97023,1.16069 5.14663,1.48725 14.07948,1.10089 20.36391,3.28301 28.30358,9.82773 3.12447,2.57552 4.00077,4.39833 4.10551,8.53993 0.0676,2.6711 -0.14449,3.678 -1.18343,5.61965 -3.61235,6.75105 -11.41237,11.70114 -25.76027,16.3481 -3.53784,1.14583 -6.51123,2.1699 -6.60753,2.27571 -0.21072,0.23154 1.31466,27.36286 1.55347,27.63089 0.0918,0.10306 4.11555,-0.0377 8.94157,-0.3127 4.82603,-0.27505 15.56733,-0.53834 23.86955,-0.58508 17.83394,-0.10042 20.01559,0.27045 28.24289,4.80103 5.97781,3.29184 10.11517,7.19447 11.32876,10.68607 1.5627,4.49593 0.0939,12.16124 -3.21635,16.78509 -3.59928,5.02762 -14.71773,10.80518 -27.25041,14.16037 -6.19312,1.65797 -7.24806,1.8102 -15.33456,2.21304 -6.02902,0.3003 -6.60816,0.24393 -8.51055,-0.82846 z m -32.41787,-10.37291 c 2.4857,-2.73117 5.34586,-13.77694 5.79658,-22.38596 0.19468,-3.71859 0.12822,-5.66018 -0.19377,-5.66018 -0.82789,0 -10.2814,3.12985 -13.074054,4.32853 -3.368216,1.44574 -5.942258,3.2038 -6.907305,4.71766 -1.039513,1.63066 -0.940772,5.47104 0.212471,8.26369 1.254002,3.03664 6.292906,8.39073 9.582218,10.18159 3.12018,1.69877 3.50069,1.74481 4.58386,0.55467 z m -1.24159,-68.13967 c 6.76428,-0.96214 6.41701,-0.54844 6.02365,-7.17627 -0.18431,-3.10543 -0.42263,-6.35705 -0.52962,-7.22582 -0.10697,-0.86877 -0.53752,-5.12862 -0.95675,-9.46633 -0.41924,-4.33771 -0.99234,-8.043 -1.27358,-8.23396 -0.28122,-0.19097 -7.11467,-0.49758 -15.185432,-0.68134 -8.070766,-0.18377 -16.067579,-0.38795 -17.770692,-0.45375 l -3.096575,-0.11963 -0.414205,2.36938 c -0.227813,1.30315 -0.45167,6.98965 -0.49746,12.63667 l -0.08326,10.26729 1.77955,3.47366 c 2.094711,4.08886 2.487448,4.49923 4.966842,5.18994 2.307542,0.64284 21.305963,0.2354 27.037532,-0.57984 z m 19.887,-5.54062 c 11.43707,-4.80298 19.40779,-12.67241 19.40779,-19.16114 0,-5.17857 -5.0283,-6.98143 -21.49945,-7.70848 l -7.3629,-0.32501 0.30053,2.05846 c 0.28201,1.93162 2.68418,26.30208 2.68458,27.23563 1.7e-4,0.52674 0.94907,0.21882 6.46945,-2.09946 z M 147.0079,162.8869 c 0,-0.13735 -0.64693,-0.61731 -1.43762,-1.06657 -0.79069,-0.44926 -1.43762,-0.61002 -1.43762,-0.35725 0,0.25277 0.48521,0.7167 1.07822,1.03094 1.20235,0.63714 1.79702,0.76715 1.79702,0.39288 z"
       style="opacity:1;fill:#999999;stroke-width:0.502309" />
    <path
       id="path50"
       d="m 132.70916,312.40997 c 0.13043,-0.1433 9.16943,-3.59163 20.08666,-7.66294 17.46465,-6.51302 22.03212,-8.40204 20.30477,-8.39773 -0.25039,0 -7.69831,1.05466 -16.55093,2.34228 -18.73718,2.72535 -24.65314,3.31839 -39.01285,3.91085 -11.75687,0.48509 -19.621545,0.0625 -27.947762,-1.50166 -10.424033,-1.95827 -13.04552,-2.98645 -19.628809,-7.6987 -14.431687,-10.33004 -23.782452,-21.21729 -27.880094,-32.46125 -3.026659,-8.30516 -3.19056,-14.0064 -0.579033,-20.14133 1.591573,-3.73889 5.391898,-8.62368 7.79049,-10.01359 1.521593,-0.88172 3.096391,-0.13725 5.7879,2.73618 1.935144,2.06595 2.535315,3.63436 1.678091,4.38531 -0.307439,0.26933 -1.745011,1.50533 -3.194606,2.74669 -6.599621,5.65151 -7.570744,15.30895 -2.641428,26.268 3.448205,7.66616 8.466049,14.32057 14.84975,19.69295 3.048002,2.56514 3.936255,3.00227 9.121785,4.48916 3.159726,0.90599 7.470093,1.98893 9.578594,2.40652 5.249577,1.03964 30.520642,1.52916 42.170002,0.81684 9.04621,-0.55315 31.21948,-3.54269 38.09678,-5.13648 8.66678,-2.00848 18.8674,-1.37522 24.59183,1.52665 3.18306,1.61361 7.55779,5.42144 7.24791,6.30874 -0.2965,0.84894 -2.81331,1.64912 -9.55673,3.03841 -2.89919,0.5973 -11.09359,2.62878 -18.20978,4.51444 -18.15447,4.81058 -37.09235,8.91821 -36.10254,7.83066 z"
       style="opacity:1;fill:#999999;stroke-width:0.502309" />
    <path
       id="path52"
       d="m 136.94459,310.84018 c 1.71316,-0.674 10.01539,-3.82642 18.44939,-7.00537 17.20645,-6.48546 17.97017,-6.79493 17.97017,-7.28191 0,-0.19133 -1.0243,-0.19302 -2.27622,-0.004 -19.0276,2.8763 -35.24374,4.91541 -43.48782,5.4684 -10.9973,0.73767 -29.692988,0.43031 -35.70075,-0.58692 -11.595309,-1.96339 -15.432329,-3.41037 -22.467567,-8.47293 -14.868962,-10.6997 -24.584586,-22.78694 -28.38138,-35.30937 -0.842206,-2.77775 -1.116125,-4.85309 -1.111916,-8.42445 0.0051,-4.32767 0.146824,-5.04976 1.633687,-8.3237 2.072627,-4.56372 6.936933,-10.36804 8.688942,-10.36804 2.346773,0 6.964065,4.59264 6.576168,6.54108 -0.08771,0.44058 -1.449668,1.94021 -3.026569,3.33252 -3.909475,3.45182 -5.600364,7.09113 -5.895264,12.68842 -0.152742,2.89909 0.01994,5.01233 0.583699,7.14309 2.558326,9.6694 9.25428,19.82654 17.535921,26.60039 3.514045,2.87425 3.803676,3.00132 11.26131,4.93999 10.270143,2.66983 13.693376,2.9359 35.208769,2.73651 15.03883,-0.13934 19.95534,-0.37325 26.59586,-1.26521 12.19937,-1.63867 18.5472,-2.62732 24.91864,-3.88099 9.18488,-1.80726 19.3584,-1.36785 24.66825,1.06544 1.86218,0.85338 5.44233,3.4582 6.79345,4.94275 1.87649,2.0618 1.32579,2.38216 -7.54984,4.39219 -3.39972,0.76993 -11.68016,2.81969 -18.40101,4.55506 -16.02677,4.13823 -32.23744,7.83048 -34.16367,7.78137 -1.31538,-0.0336 -1.08783,-0.21594 1.57775,-1.26463 z"
       style="opacity:1;fill:#999999;stroke-width:0.502309" />
  </g>
</svg>
